<?xml version="1.0" encoding="utf-8"?>
<!-- Generator: Adobe Illustrator 27.2.0, SVG Export Plug-In . SVG Version: 6.00 Build 0)  -->
<svg version="1.1" id="Layer_1" xmlns="http://www.w3.org/2000/svg" xmlns:xlink="http://www.w3.org/1999/xlink" x="0px" y="0px"
	 viewBox="0 0 512 512" style="enable-background:new 0 0 512 512;" xml:space="preserve">
<style type="text/css">
	.st0{fill:#243238;}
</style>
<path class="st0" d="M278.7,345.1c5.7-5.7,10.8-11.9,15.3-18.5c0.1-0.2,0.2-0.4,0.4-0.5c15.3-22.9,22.6-50.2,20.9-77.7
	c0-0.6,0-1.2-0.1-1.7c-1.2-15.7-5.3-31.1-12.1-45.4c-0.1-0.3-0.3-0.7-0.5-1c-12.3-24.8-32.3-44.9-57.1-57.2
	c-0.4-0.2-0.7-0.4-1.1-0.5c-14.2-6.8-29.5-10.9-45.2-12.1c-0.6-0.1-1.2-0.1-1.8-0.1c-27.6-1.7-54.9,5.7-77.9,21l-0.3,0.2
	c-13.5,9.1-25.1,20.7-34.1,34.2l0,0c-15.4,23-22.8,50.4-21.1,78c0,0.6,0,1.2,0.1,1.8c1.2,15.7,5.3,31.1,12.1,45.3
	c0.1,0.3,0.3,0.7,0.5,1c12.3,24.8,32.4,45,57.2,57.2c0.3,0.2,0.7,0.4,1,0.5c14.2,6.8,29.7,10.9,45.4,12.1c0.4,0.1,0.8,0.1,1.3,0.1
	h0.2c2.6,0.2,5.2,0.2,7.8,0.2c25,0,49.4-7.4,70.2-21.3l0.2-0.1C266.7,356,273,350.8,278.7,345.1z M286,309l-37.1-37.1l50.6-13.5
	C299.1,276.1,294.5,293.4,286,309z M283.7,199.1L233,212.7l13.6-50.7C261.8,171.2,274.5,183.9,283.7,199.1L283.7,199.1z
	 M187.4,146.1l-13.6,50.7l-37.2-37.2C152.2,151.1,169.6,146.4,187.4,146.1L187.4,146.1z M122.9,168.6l49.4,49.4
	c1.5,1.5,3.5,2.3,5.7,2.3c0.7,0,1.4-0.1,2.1-0.2c2.8-0.7,4.9-2.9,5.7-5.7l18.1-67.3c9.7,1.2,19.2,3.8,28.3,7.6l-18,67.4
	c-1.2,4.3,1.4,8.7,5.6,9.8c0.7,0.2,1.4,0.3,2.1,0.3c0.7,0,1.4-0.1,2.1-0.3l67.3-18c3.8,9,6.3,18.6,7.5,28.3l-67.3,18
	c-4.3,1.1-6.8,5.5-5.7,9.8c0.4,1.4,1.1,2.6,2.1,3.6l49.3,49.3c-6,7.8-12.9,14.8-20.7,20.7l-49.3-49.3c-3.1-3.1-8.2-3.1-11.3,0
	c-1,1-1.7,2.2-2.1,3.6l-18,67.3c-9.7-1.2-19.3-3.8-28.3-7.5l18-67.4c1.1-4.3-1.4-8.7-5.7-9.8c-1.4-0.4-2.8-0.4-4.1,0l-67.4,18.1
	c-3.8-9.1-6.3-18.6-7.6-28.3L148,252c4.3-1.1,6.8-5.5,5.7-9.8c-0.4-1.4-1.1-2.6-2.1-3.6l-49.4-49.4
	C108.2,181.5,115.2,174.5,122.9,168.6L122.9,168.6z M242.6,352.4c-15.5,8.5-32.9,13.2-50.6,13.5l13.6-50.6L242.6,352.4z M93.2,203
	l37.2,37.2l-50.7,13.6C80.1,236,84.7,218.6,93.2,203z M95.5,313l50.8-13.6l-13.6,50.7C117.5,340.9,104.8,328.2,95.5,313z
	 M189.6,286.6c16.9,0,30.7-13.7,30.7-30.6c0-16.9-13.7-30.7-30.6-30.7c-16.9,0-30.7,13.7-30.7,30.6c0,8.1,3.2,15.9,9,21.7
	C173.7,283.4,181.5,286.6,189.6,286.6L189.6,286.6z M179.2,245.6c5.7-5.7,15-5.7,20.7,0c5.7,5.7,5.7,15,0,20.7
	c-5.7,5.7-15,5.7-20.7,0C173.5,260.7,173.5,251.4,179.2,245.6C179.2,245.6,179.2,245.6,179.2,245.6L179.2,245.6z M487.7,215.7v-55.6
	c0-30-24.3-54.3-54.3-54.3H258.7c-83-38.1-181.1-1.8-219.3,81.2s-1.8,181.1,81.2,219.3c21.7,10,45.2,15.1,69.1,15.1
	c10.6,0,21.1-1,31.5-3h212.2c30,0,54.3-24.3,54.3-54.3v-55.6c0-18.9-9.9-36.5-26-46.3C477.8,252.2,487.7,234.6,487.7,215.7
	L487.7,215.7z M471.7,308.4v19.8h-26l23.5-33.2C470.9,299.3,471.7,303.8,471.7,308.4L471.7,308.4z M468.6,379.1l-23.4-34.9h26.4V364
	C471.7,369.2,470.6,374.3,468.6,379.1L468.6,379.1z M471.7,160.1v19.8h-26l23.5-33.2C470.9,151,471.7,155.5,471.7,160.1L471.7,160.1
	z M426.1,179.9h-29.8l41-57.9c8.4,0.9,16.3,4.5,22.5,10.4L426.1,179.9z M346.4,328.2l38.9-58.2h32.6l-41.2,58.2H346.4z M388.1,254
	l-41.2-58.1h29.8l41.2,58.1H388.1z M376.7,179.9h-30.3l38.9-58.1h32.6L376.7,179.9z M332.2,172.3c-4.4-7.4-9.3-14.5-14.8-21.2
	l19.7-29.4H366L332.2,172.3z M368.5,254h-13.6c-0.1-7.2-0.6-14.4-1.7-21.6L368.5,254z M354.2,270H366l-15.4,23
	C352.4,285.4,353.6,277.7,354.2,270L354.2,270z M328.4,345.8l40,56.5h-30.6l-26.4-34.5C317.6,361,323.4,353.6,328.4,345.8
	L328.4,345.8z M346.9,344.1h29.8l41.2,58.1h-29.8L346.9,344.1z M396.3,344.1H426l32.6,48.7c-5.9,5.2-13.4,8.4-21.2,9.3L396.3,344.1z
	 M426.1,328.1h-29.8l41-57.9c8.4,0.9,16.3,4.5,22.5,10.4L426.1,328.1z M396.3,195.9H426l32.6,48.7c-5.9,5.2-13.3,8.5-21.2,9.3
	L396.3,195.9z M445.2,195.9h26.4v19.8c0,5.2-1,10.3-3.1,15.1L445.2,195.9z M317.9,121.7L306.3,139c-6.3-6.3-13.1-12-20.3-17.2
	L317.9,121.7z M84,361.6c-58.2-58.2-58.2-152.9,0-211.1c58.3-58.2,152.8-58.2,211.1,0c58.2,58.2,58.2,152.9,0,211.1
	S142.2,419.8,84,361.6z M299.8,379.1l17.8,23.2h-51C278.6,396,289.8,388.2,299.8,379.1L299.8,379.1z"/>
</svg>
