<?xml version="1.0" encoding="utf-8"?>
<!-- Generator: Adobe Illustrator 27.2.0, SVG Export Plug-In . SVG Version: 6.00 Build 0)  -->
<svg version="1.1" id="Layer_1" xmlns="http://www.w3.org/2000/svg" xmlns:xlink="http://www.w3.org/1999/xlink" x="0px" y="0px"
	 viewBox="0 0 48 48" style="enable-background:new 0 0 48 48;" xml:space="preserve">
<style type="text/css">
	.st0{fill:none;stroke:#243238;stroke-width:2;stroke-miterlimit:10;}
	.st1{fill:none;stroke:#243238;stroke-width:2;stroke-linecap:round;stroke-miterlimit:10;}
	.st2{fill:none;stroke:#243238;stroke-width:2;stroke-linecap:round;stroke-linejoin:round;}
</style>
<g>
	<line class="st0" x1="43" y1="22" x2="43" y2="33"/>
	<line class="st0" x1="39" y1="22" x2="39" y2="33"/>
	<line class="st0" x1="0" y1="23" x2="5" y2="23"/>
	<line class="st0" x1="1" y1="23" x2="1" y2="14"/>
	<line class="st1" x1="9.5" y1="11" x2="31" y2="11"/>
	<line class="st0" x1="1" y1="23" x2="1" y2="32"/>
	<path class="st1" d="M28,38h11v-5h4v5h2.5c2-8.6,2-17.4,0-26H43v5h-4v-4c0-1.1-0.9-2-2-2h-1l-4.5-5h-17L10,11H7c-1.1,0-2,0.9-2,2
		v19h4l4,6h7"/>
	<line class="st0" x1="8" y1="15" x2="10" y2="15"/>
	<line class="st0" x1="15" y1="1" x2="31" y2="1"/>
	<line class="st0" x1="18" y1="1" x2="18" y2="6"/>
	<line class="st0" x1="28" y1="1" x2="28" y2="6"/>
</g>
<circle class="st1" cx="24" cy="25" r="9"/>
<line class="st2" x1="24" y1="34" x2="24" y2="47"/>
</svg>
