<?xml version="1.0" encoding="utf-8"?>
<!-- Generator: Adobe Illustrator 27.2.0, SVG Export Plug-In . SVG Version: 6.00 Build 0)  -->
<svg version="1.1" id="Layer_1" xmlns="http://www.w3.org/2000/svg" xmlns:xlink="http://www.w3.org/1999/xlink" x="0px" y="0px"
	 viewBox="0 0 50 50" style="enable-background:new 0 0 50 50;" xml:space="preserve">
<style type="text/css">
	.st0{fill:none;}
	.st1{fill:none;stroke:#243238;stroke-width:2.1111;stroke-linecap:round;stroke-linejoin:round;stroke-miterlimit:10;}
	.st2{fill:none;stroke:#243238;stroke-width:2;stroke-linecap:round;stroke-linejoin:round;stroke-miterlimit:10;}
</style>
<rect class="st0" width="50" height="50"/>
<path class="st1" d="M25,1C11.8,1,1,11.8,1,25s10.8,24,24,24s24-10.8,24-24S38.2,1,25,1z M25,44C14.5,44,6,35.5,6,25S14.5,6,25,6
	s19,8.5,19,19S35.5,44,25,44z"/>
<path class="st2" d="M43.4,22c-8,0-11.8-5-18.4-5c-6.6,0-9.9,5-18.4,5 M29,42c0,0,0-6.2,0-8c0-2.7,2.3-5,5-5c1.2,0,9.1,0,9.1,0
	 M6.6,29c0,0,8.3,0,9.4,0c2.9,0,5,2.2,5,5c0,1.9,0,8,0,8"/>
<circle class="st2" cx="25" cy="25" r="4"/>
</svg>
