<?xml version="1.0" encoding="utf-8"?>
<!-- Generator: Adobe Illustrator 27.2.0, SVG Export Plug-In . SVG Version: 6.00 Build 0)  -->
<svg version="1.1" id="Layer_1_1_" xmlns="http://www.w3.org/2000/svg" xmlns:xlink="http://www.w3.org/1999/xlink" x="0px" y="0px"
	 viewBox="0 0 64 64" style="enable-background:new 0 0 64 64;" xml:space="preserve">
<style type="text/css">
	.st0{fill:#243238;}
</style>
<g>
	<path class="st0" d="M32,31c-1.7,0-3,1.3-3,3s1.3,3,3,3s3-1.3,3-3S33.7,31,32,31z M32,35c-0.6,0-1-0.4-1-1s0.4-1,1-1
		c0.6,0,1,0.4,1,1S32.6,35,32,35z"/>
	<path class="st0" d="M32,13c-11.6,0-21,9.4-21,21s9.4,21,21,21s21-9.4,21-21S43.6,13,32,13z M48,44.3c-6.6,2.8-9.6-1.4-11.6-4.8
		c0.4-0.3,0.8-0.7,1.2-1.2c1.8,1,4.4,2.3,7.2,2.3c1.9,0,3.9-0.6,5.8-2.2C50,40.5,49.1,42.5,48,44.3z M32,39c-2.8,0-5-2.2-5-5
		s2.2-5,5-5s5,2.2,5,5S34.8,39,32,39z M26.5,38.3c0.3,0.4,0.7,0.8,1.2,1.2c-1.7,3.1-4.1,8.2,0,13c-2.1-0.5-4.1-1.4-5.9-2.5
		C18.9,43.4,23.1,40.3,26.5,38.3z M16,23.7c6.6-2.8,9.6,1.4,11.6,4.8c-0.4,0.3-0.8,0.7-1.2,1.2c-3.1-1.7-8.2-4.1-13,0
		C14,27.5,14.9,25.5,16,23.7z M37.5,29.7c-0.3-0.4-0.7-0.8-1.2-1.2c1.7-3.1,4.1-8.2,0-13c2.1,0.5,4.1,1.4,5.9,2.5
		C45.1,24.6,40.9,27.7,37.5,29.7z M51,34.9c-4.3,5.7-9.1,3.6-12.5,1.7c0.2-0.5,0.3-1,0.4-1.6c3.5,0,9.2-0.5,11.3-6.5
		c0.5,1.7,0.8,3.6,0.8,5.5C51,34.3,51,34.6,51,34.9z M48.9,25.3c-0.9,7.1-6,7.6-10,7.7c-0.1-0.6-0.2-1.1-0.4-1.6
		c3-1.8,7.6-5,6.5-11.2C46.6,21.7,47.9,23.4,48.9,25.3z M32.9,15c5.7,4.3,3.6,9.1,1.7,12.5c-0.5-0.2-1-0.3-1.6-0.4
		c0-3.5-0.5-9.2-6.5-11.3c1.7-0.5,3.6-0.8,5.5-0.8C32.3,15,32.6,15,32.9,15z M23.3,17.1c7.1,0.9,7.6,6,7.7,10
		c-0.6,0.1-1.1,0.2-1.6,0.4c-1.8-3-5-7.6-11.2-6.5C19.7,19.4,21.4,18.1,23.3,17.1z M13,33.1c4.3-5.7,9.1-3.6,12.5-1.7
		c-0.2,0.5-0.3,1-0.4,1.6c-3.5,0-9.2,0.5-11.3,6.5C13.3,37.7,13,35.9,13,34C13,33.7,13,33.4,13,33.1z M15.1,42.7
		c0.9-7.1,6-7.6,10-7.7c0.1,0.6,0.2,1.1,0.4,1.6c-3,1.8-7.6,5-6.5,11.2C17.4,46.3,16.1,44.6,15.1,42.7z M31.1,53
		c-5.7-4.3-3.6-9.1-1.7-12.5c0.5,0.2,1,0.3,1.6,0.4c0,3.5,0.5,9.2,6.5,11.3C35.7,52.7,33.9,53,32,53C31.7,53,31.4,53,31.1,53z
		 M40.7,50.9c-7.1-0.9-7.6-6-7.7-10c0.6-0.1,1.1-0.2,1.6-0.4c1.6,2.7,4.4,6.7,9.4,6.7c0.6,0,1.2-0.1,1.8-0.2
		C44.3,48.6,42.6,49.9,40.7,50.9z"/>
	<path class="st0" d="M63,28h-4V5h-4V1h-8v4H17V1H9v4H5v23H1v8h4v23h4v4h8v-4h30v4h8v-4h4V36h4V28z M57,15h-3c-0.6,0-1-0.4-1-1V7h4
		V15z M49,3h4v2h-4V3z M11,3h4v2h-4V3z M51,7v2H7V7H51z M3,34v-4h2v4H3z M15,61h-4v-2h4V61z M53,61h-4v-2h4V61z M7,57V11h44v3
		c0,1.7,1.3,3,3,3h3v40H7z M61,34h-2v-4h2V34z"/>
	<rect x="53" y="53" class="st0" width="2" height="2"/>
	<rect x="53" y="49" class="st0" width="2" height="2"/>
	<rect x="9" y="53" class="st0" width="2" height="2"/>
	<rect x="9" y="49" class="st0" width="2" height="2"/>
</g>
</svg>
