<?xml version="1.0" encoding="utf-8"?>
<!-- Generator: Adobe Illustrator 27.2.0, SVG Export Plug-In . SVG Version: 6.00 Build 0)  -->
<svg version="1.1"
	 id="svg2" xmlns:svg="http://www.w3.org/2000/svg" xmlns:dc="http://purl.org/dc/elements/1.1/" xmlns:inkscape="http://www.inkscape.org/namespaces/inkscape" xmlns:sodipodi="http://sodipodi.sourceforge.net/DTD/sodipodi-0.dtd" xmlns:cc="http://creativecommons.org/ns#" xmlns:rdf="http://www.w3.org/1999/02/22-rdf-syntax-ns#"
	 xmlns="http://www.w3.org/2000/svg" xmlns:xlink="http://www.w3.org/1999/xlink" x="0px" y="0px" viewBox="0 0 32 32"
	 style="enable-background:new 0 0 32 32;" xml:space="preserve">
<style type="text/css">
	.st0{fill:none;}
	.st1{fill:#243238;}
</style>
<g id="background">
	<rect class="st0" width="32" height="32"/>
</g>
<g id="computer_x5F_settings">
	<path class="st1" d="M30.8,27.5c0.8-1.3,1.2-2.9,1.2-4.5c0-3.1-1.6-5.9-4-7.5V2H4v18h10.5c-0.2,0.6-0.4,1.3-0.5,2H4l-4,8h17.3
		c1.5,1.2,3.5,2,5.7,2c2.1,0,4.1-0.8,5.6-2H32L30.8,27.5z M6,18V4h20v10.5c-0.9-0.3-1.9-0.5-3-0.5c-3.1,0-5.9,1.6-7.5,4H6z M16.1,23
		c0-3.8,3.1-6.9,6.9-6.9c3.8,0,6.9,3.1,6.9,6.9c0,3.8-3.1,6.9-6.9,6.9C19.2,29.9,16.1,26.8,16.1,23z"/>
	<path class="st1" d="M28,24v-2h-1.7c-0.1-0.2-0.1-0.4-0.2-0.6l1.2-1.2l-1.4-1.4L24.7,20c-0.2-0.1-0.5-0.2-0.7-0.3V18h-2v1.7
		c-0.2,0.1-0.4,0.2-0.7,0.3l-1.1-1.1l-1.4,1.4l1.1,1.1c-0.1,0.2-0.2,0.4-0.3,0.7H18v2h1.7c0.1,0.2,0.2,0.5,0.3,0.7l-1.2,1.2l1.4,1.4
		l1.2-1.2c0.2,0.1,0.4,0.2,0.6,0.2V28h2v-1.7c0.2-0.1,0.4-0.2,0.7-0.3l1.2,1.2l1.4-1.4l-1.2-1.2c0.1-0.2,0.2-0.4,0.3-0.7
		C26.3,24,28,24,28,24z M23,24.5c-0.8,0-1.5-0.7-1.5-1.5c0-0.8,0.7-1.5,1.5-1.5c0.8,0,1.5,0.7,1.5,1.5C24.5,23.8,23.8,24.5,23,24.5z
		"/>
</g>
</svg>
