<?xml version="1.0" encoding="utf-8"?>
<!-- Generator: Adobe Illustrator 27.2.0, SVG Export Plug-In . SVG Version: 6.00 Build 0)  -->
<svg version="1.1" id="Шар_1" xmlns="http://www.w3.org/2000/svg" xmlns:xlink="http://www.w3.org/1999/xlink" x="0px" y="0px"
	 viewBox="0 0 64 64" style="enable-background:new 0 0 64 64;" xml:space="preserve">
<style type="text/css">
	.st0{fill:#243238;}
</style>
<g id="a">
</g>
<g id="b">
	<path class="st0" d="M11.9,44L9.1,39c-0.1-0.2-0.1-0.5,0.2-0.7c0.2-0.1,0.5-0.1,0.7,0.2l2.8,4.9c0.1,0.2,0.1,0.5-0.2,0.7
		c-0.1,0-0.2,0.1-0.2,0.1C12.1,44.2,12,44.1,11.9,44L11.9,44z M15.6,43.9L15.6,43.9c0.3,0,0.5-0.2,0.5-0.5l0.4-6.3
		c0-0.3-0.2-0.5-0.5-0.5c-0.3,0-0.5,0.2-0.5,0.5l-0.4,6.3C15.2,43.6,15.4,43.9,15.6,43.9L15.6,43.9z M15.5,45.8
		C10.7,45,9.3,48.9,9.3,49c-0.1,0.3,0,0.5,0.3,0.6c0.3,0.1,0.5,0,0.6-0.3c0-0.1,1.2-3.2,5.1-2.5c3.3,0.5,3.3,4.5,3.3,4.6
		c0,0.3,0.2,0.5,0.5,0.5h0c0.3,0,0.5-0.2,0.5-0.5C19.7,49.7,18.8,46.3,15.5,45.8z M17.9,45c0.1,0.1,0.2,0.1,0.3,0.1
		c0.2,0,0.3-0.1,0.4-0.2l1.5-2.3c0.1-0.2,0.1-0.5-0.2-0.7c-0.2-0.2-0.5-0.1-0.7,0.2l-1.5,2.3C17.6,44.6,17.7,44.9,17.9,45z
		 M24.4,40.3l0.7-3.7c0.2-0.6-0.7-0.9-1-0.3l-1.1,3.6C22.5,40.9,24.1,41.4,24.4,40.3L24.4,40.3z M27.9,22.2
		c-0.8,0.1-4.8,0.7-6.9,0.9c0.2,1,0.6,3.2,1.6,4.4c0.6,0.2,4.1,1.3,6.8-0.6C29.2,24.7,28.6,22.5,27.9,22.2L27.9,22.2z M45.7,50.5
		c-3.3,3-8.5,4.5-12.6,4.5c-1.4,0-2.7-0.2-3.8-0.5c-1.7-0.5-2.8-1.4-3.1-2.6c-0.4-1.5-0.2-2.7,0.4-3.6c1-1.5,3-1.9,4.8-2.2
		c0.3,0,0.6-0.1,0.8-0.1c2.6-0.4,5.6-0.8,9-4.1c0.2-0.2,0.5-0.2,0.7,0s0.2,0.5,0,0.7c-3.6,3.6-6.9,4.1-9.5,4.4
		c-0.3,0-0.6,0.1-0.8,0.1c-1.5,0.2-3.4,0.6-4.1,1.8c-0.5,0.7-0.5,1.6-0.2,2.8c0.2,0.8,1.1,1.5,2.4,1.9c4.1,1.2,11.3,0,15.5-3.8
		c4.3-3.9,4.5-10.2,0.7-18.9c-2-4.6-6.1-6-6.1-6.1c-0.2-0.1-0.3-0.2-0.3-0.4c0,0-0.2-0.7-0.4-1.7l-5,2.5c0.5,1.4,0.9,2.9,1.3,4
		c0.2,0.6,0.2,1.2-0.1,1.8h0c-0.5,1.2-1.8,3.3-4.4,4.2c-0.5,0.2-0.9,0.2-1.4,0.2c-2.3,0-4.6-1.6-6.4-3.5l-3.3,6.1
		c-0.1,0.2-0.3,0.3-0.4,0.3c-0.1,0-0.2,0-0.2-0.1c-0.2-0.1-0.3-0.4-0.2-0.7l3.4-6.3c-0.7-0.7-1.3-1.5-1.7-2.1c-2.9-4.2-2-9.8-2-10
		c0-0.2,0.2-0.4,0.4-0.4c0.1,0,0.2,0,0.4,0c-0.1-1.3,0.1-4.7,3.2-6.9c3.3-2.4,8.4-4,12.6-1.3c2.4,1.5,2.9,3.9,3.3,6.2
		c0.1,0.4,0.2,0.8,0.3,1.2c0.2,0,0.4,0.1,0.5,0.3c0.1,0.3,0,0.5-0.3,0.7l0,0c0.2,0.8,0.5,1.7,0.7,2.6c0.2,0,0.4,0.1,0.5,0.3
		c0.1,0.2,0,0.5-0.2,0.7l0,0c0.2,0.7,0.3,1.3,0.4,1.6c1,0.4,4.5,2.2,6.4,6.5C50.7,39.5,50.4,46.3,45.7,50.5L45.7,50.5z M30.4,27
		c-0.1-1.3-0.6-5.5-2.3-5.9c-0.1,0-0.1,0-0.2,0c-0.1,0-5.5,0.8-7.5,1c-0.1,0-0.3,0.1-0.3,0.2c-0.1,0.1-0.1,0.2-0.1,0.4
		c0,0.2,0.4,3.8,2,5.5c0.1,0.1,0.1,0.1,0.2,0.1c0.1,0,1.6,0.6,3.5,0.6c1.4,0,3.1-0.3,4.6-1.5C30.3,27.4,30.4,27.2,30.4,27L30.4,27z
		 M37.8,18.2c-0.1-0.5-0.2-0.9-0.3-1.4c-0.4-2.2-0.9-4.3-2.9-5.6c-3.2-2-7.7-1.5-11.5,1.3c-2.7,2-2.9,4.9-2.8,6
		c1.8-0.2,4.7-0.6,7.1-1c2.4-0.4,4.1,0.6,5,3L37.8,18.2z M23.1,48.6l-1.9,0.4c-0.3,0.1-0.4,0.3-0.4,0.6c0.1,0.2,0.3,0.4,0.5,0.4
		c0,0,0.1,0,0.1,0l1.9-0.4c0.3-0.1,0.4-0.3,0.4-0.6C23.6,48.7,23.4,48.5,23.1,48.6L23.1,48.6z M26.3,43.1c-0.1-0.2-0.4-0.3-0.7-0.2
		l-5.7,3.4c-0.2,0.1-0.3,0.4-0.2,0.7c0.1,0.2,0.3,0.2,0.4,0.2c0.1,0,0.2,0,0.3-0.1l5.7-3.4C26.4,43.7,26.5,43.4,26.3,43.1z"/>
</g>
</svg>
