<?xml version="1.0" encoding="utf-8"?>
<!-- Generator: Adobe Illustrator 27.2.0, SVG Export Plug-In . SVG Version: 6.00 Build 0)  -->
<svg version="1.1" id="Шар_1" xmlns="http://www.w3.org/2000/svg" xmlns:xlink="http://www.w3.org/1999/xlink" x="0px" y="0px"
	 viewBox="0 0 64 64" style="enable-background:new 0 0 64 64;" xml:space="preserve">
<style type="text/css">
	.st0{fill:none;stroke:#243238;stroke-width:2;stroke-linecap:round;stroke-linejoin:round;}
	.st1{fill:none;stroke:#243238;stroke-miterlimit:10;}
</style>
<g id="katman_2">
	<g id="icons">
		<path class="st0" d="M37.8,12.1c11,3.3,17.2,14.8,14,25.8C48.4,48.8,37,55,26,51.8C15.1,48.6,8.9,37,12.1,26
			c2.4-8.1,9.4-13.9,17.8-14.7"/>
		<path class="st0" d="M53,18.9c2.5,3.9,3.7,8.4,3.7,13"/>
		<path class="st0" d="M44.1,10.3c2,1.1,3.8,2.5,5.4,4"/>
		<path class="st0" d="M18.3,52.6c-1.4-0.9-2.7-2-3.9-3.1"/>
		<polygon class="st0" points="44.7,24.7 19.1,59.9 19.1,59.9 35,30.9 20.5,30.9 33.3,4 42.6,4 30.2,24.7 		"/>
		<rect x="-1.2" y="-1.2" class="st1" width="66.1" height="66.2"/>
	</g>
</g>
</svg>
