<?xml version="1.0" encoding="utf-8"?>
<!-- Generator: Adobe Illustrator 27.2.0, SVG Export Plug-In . SVG Version: 6.00 Build 0)  -->
<svg version="1.1" id="Layer_1_1_" xmlns="http://www.w3.org/2000/svg" xmlns:xlink="http://www.w3.org/1999/xlink" x="0px" y="0px"
	 viewBox="0 0 64 64" style="enable-background:new 0 0 64 64;" xml:space="preserve">
<style type="text/css">
	.st0{fill:#243238;}
</style>
<g>
	<path class="st0" d="M58.1,39.7L50,37.3v-2.1c1.8-1.8,3-4.3,3-7.1h1c2.8,0,5-2.2,5-5c0-1.6-0.8-3.1-2-4v-4c0-7.7-6.3-14-14-14
		S29,7.3,29,15v4c-1.2,0.9-2,2.3-2,4s0.8,3.1,2,4v2c0,1.7,1.3,3,3,3h1.8c0.5,1.2,1.3,2.2,2.2,3.1v2.1l-8.1,2.5
		c-3,0.9-4.9,3.6-4.9,6.7v1.9c-0.8-1.2-1.8-2.3-3-3.1V18.7c3.1-2.3,5-5.9,5-9.7c0-2.8-1-5.5-2.8-7.6L21.9,1H16v9h-6V1H4.1L3.8,1.4
		C2,3.5,1,6.2,1,9c0,3.9,1.9,7.5,5,9.7v26.5c-3.1,2.3-5,5.9-5,9.7c0,2.8,1,5.5,2.8,7.6L4.1,63H10v-9h6v9h5.9l0.3-0.4
		c0.3-0.3,0.5-0.7,0.8-1V63h40V46.4C63,43.3,61,40.7,58.1,39.7z M51.5,39.8l-3,6.7l-4-2.7l4.7-4.7L51.5,39.8z M41.9,50h2.3l1.7,11
		h-5.7L41.9,50z M44.5,48h-2.9l-0.8-1.3l2.3-1.5l2.3,1.5L44.5,48z M54,26h-1v-6h1c1.7,0,3,1.3,3,3S55.7,26,54,26z M31,15
		c0-6.6,5.4-12,12-12s12,5.4,12,12v3.1C54.7,18,54.3,18,54,18h-1h-1c-3,0-5.7-1.2-7.8-3.2L43,13.6l-1.2,1.2C39.7,16.8,37,18,34,18
		h-1h-1c-0.3,0-0.7,0-1,0.1V15z M32,20h1v6h-1c-1.7,0-3-1.3-3-3S30.3,20,32,20z M32,30c-0.6,0-1-0.4-1-1v-1.1c0.3,0.1,0.7,0.1,1,0.1
		h1c0,0.7,0.1,1.4,0.2,2H32z M38.2,32c0.4,1.2,1.5,2,2.8,2h4c1.7,0,3-1.3,3-3s-1.3-3-3-3h-4c-1.3,0-2.4,0.8-2.8,2h-2.9
		c-0.2-0.6-0.3-1.3-0.3-2v-8c3-0.2,5.8-1.5,8-3.6c2.2,2.1,5,3.3,8,3.6v8c0,4.4-3.6,8-8,8c-3,0-5.5-1.6-6.9-4H38.2z M40,31
		c0-0.6,0.4-1,1-1h4c0.6,0,1,0.4,1,1s-0.4,1-1,1h-4C40.4,32,40,31.6,40,31z M43,38c1.8,0,3.5-0.5,5-1.4v0.9l-5,5l-5-5v-0.9
		C39.5,37.5,41.2,38,43,38z M36.7,39.1l4.7,4.7l-4,2.7l-3-6.7L36.7,39.1z M21,61h-3v-7c0-1.1-0.9-2-2-2h-6c-1.1,0-2,0.9-2,2v7H5
		c-1.3-1.7-2-3.8-2-6c0-3.4,1.7-6.5,4.5-8.4L8,46.3V17.7l-0.5-0.3C4.7,15.5,3,12.4,3,9c0-2.2,0.7-4.3,2-6h3v7c0,1.1,0.9,2,2,2h6
		c1.1,0,2-0.9,2-2V3h3c1.3,1.7,2,3.8,2,6c0,3.4-1.7,6.5-4.5,8.4L18,17.7v28.7l0.5,0.3c2.8,1.9,4.5,5,4.5,8.4
		C23,57.2,22.3,59.3,21,61z M25,46.4c0-2.2,1.4-4.1,3.5-4.8l4-1.2l4,9.1l2.5-1.6l0.9,1.4L38.1,61H33V49h-2v12h-6V46.4z M61,61h-6V49
		h-2v12h-5.1L46,49.2l0.9-1.4l2.5,1.6l4-9.1l4,1.2c2.1,0.6,3.5,2.6,3.5,4.8V61z"/>
	<circle class="st0" cx="38" cy="22" r="1"/>
	<circle class="st0" cx="48" cy="22" r="1"/>
	<rect x="14" y="29" class="st0" width="2" height="2"/>
	<path class="st0" d="M13,18c-1.7,0-3,1.3-3,3v6h2v-6c0-0.6,0.4-1,1-1s1,0.4,1,1v6h2v-6C16,19.3,14.7,18,13,18z"/>
	<rect x="10" y="29" class="st0" width="2" height="2"/>
	<rect x="10" y="33" class="st0" width="2" height="2"/>
	<path class="st0" d="M14,43c0,0.6-0.4,1-1,1s-1-0.4-1-1v-6h-2v6c0,1.7,1.3,3,3,3s3-1.3,3-3v-6h-2V43z"/>
	<rect x="14" y="33" class="st0" width="2" height="2"/>
</g>
</svg>
