<?xml version="1.0" encoding="utf-8"?>
<!-- Generator: Adobe Illustrator 27.2.0, SVG Export Plug-In . SVG Version: 6.00 Build 0)  -->
<svg version="1.1" id="Шар_1" xmlns="http://www.w3.org/2000/svg" xmlns:xlink="http://www.w3.org/1999/xlink" x="0px" y="0px"
	 viewBox="0 0 24 24" style="enable-background:new 0 0 24 24;" xml:space="preserve">
<style type="text/css">
	.st0{fill:#243238;}
</style>
<g id="Layer_1">
</g>
<g id="Layer_2">
	<g>
		<path class="st0" d="M18.6,5.4c-1.1-1.1-2.6-1.8-4.2-1.8s-3.1,0.6-4.2,1.8C8.6,6.9,8,9.1,8.6,11.2l0,0L3.8,16
			c-0.2,0.2-0.3,0.4-0.3,0.6l-0.3,3.1c0,0.3,0.1,0.6,0.3,0.8c0.2,0.2,0.4,0.3,0.7,0.3h0.1l3.1-0.3c0.2,0,0.5-0.1,0.6-0.3l4.8-4.8
			l0,0c2.1,0.6,4.3,0,5.8-1.5c1.1-1.1,1.8-2.6,1.8-4.2C20.4,8,19.7,6.5,18.6,5.4z M17.2,12.5c-1,1-2.5,1.4-3.9,1
			c-0.1,0-0.2-0.1-0.3-0.1c-0.4-0.2-0.8-0.1-1.1,0.2l-5,5l-1.6,0.1l0.1-1.6l5-5c0.3-0.3,0.4-0.8,0.2-1.1c0-0.1-0.1-0.2-0.1-0.3
			c0,0,0,0,0-0.1c-0.4-1.4,0-2.9,1-3.9c1.5-1.5,4.1-1.5,5.7,0c0.8,0.8,1.2,1.8,1.2,2.8C18.4,10.7,17.9,11.7,17.2,12.5z"/>
		<circle class="st0" cx="15.5" cy="8.5" r="1"/>
	</g>
</g>
</svg>
