<?xml version="1.0" encoding="utf-8"?>
<!-- Generator: Adobe Illustrator 27.2.0, SVG Export Plug-In . SVG Version: 6.00 Build 0)  -->
<svg version="1.1" id="Шар_1" xmlns="http://www.w3.org/2000/svg" xmlns:xlink="http://www.w3.org/1999/xlink" x="0px" y="0px"
	 viewBox="0 0 512 512" style="enable-background:new 0 0 512 512;" xml:space="preserve">
<style type="text/css">
	.st0{fill:#243238;}
</style>
<g id="Order_confirmation">
	<path class="st0" d="M228.3,453.5l2-18.4H90.2c-5.5,0-10-4.5-10-10V88.2c0-5.5,4.5-10,10-10h211.1c5.5,0,10,4.5,10,10v158.5
		c4.6-3.8,9.7-6.9,15.2-9.1V60.6c0-18.1-14.6-32.7-32.7-32.7l0,0H97.7C79.6,27.9,65,42.6,65,60.6v392.6c0,18.1,14.6,32.7,32.7,32.7
		h0h139.5C230.2,476.6,227,465,228.3,453.5z M218.7,465.6h-45.8v-12h45.8V465.6z"/>
	<path class="st0" d="M156.9,166.8c-1.1,13.2-12.6,23-25.7,21.9c-13.2-1.1-23-12.6-21.9-25.7c1-12.4,11.4-22,23.8-22v-11
		c-19.3,0-34.9,15.6-34.9,34.9s15.6,34.9,34.9,34.9c18.5,0,33.8-14.5,34.8-33H156.9z"/>
	<path class="st0" d="M123.4,153.5l-8.9,8.1l13.2,14.4c1.1,1.2,2.7,1.9,4.4,2h0c1.7,0,3.2-0.7,4.4-1.9l28-29.8l-8.8-8.2l-23.6,25.1
		L123.4,153.5z"/>
	<path class="st0" d="M156.9,261.9c-1.1,13.2-12.6,23-25.7,21.9c-13.2-1.1-23-12.6-21.9-25.7c1-12.4,11.4-22,23.8-22v-11
		c-19.3,0-34.9,15.6-34.9,34.9s15.6,34.9,34.9,34.9c18.5,0,33.8-14.5,34.8-33H156.9z"/>
	<path class="st0" d="M123.4,248.5l-8.9,8.1l13.2,14.4c1.1,1.2,2.7,1.9,4.4,2h0c1.7,0,3.2-0.7,4.4-1.9l28-29.8l-8.8-8.2l-23.6,25.1
		L123.4,248.5z"/>
	<path class="st0" d="M98.1,355.1c0,19.3,15.6,34.9,34.9,34.9c18.5,0,33.8-14.5,34.8-33h-11c-1.1,13.2-12.6,23-25.7,21.9
		c-13.2-1.1-23-12.6-21.9-25.7c1-12.4,11.4-22,23.8-22v-11C113.8,320.2,98.2,335.8,98.1,355.1z"/>
	<path class="st0" d="M123.4,343.6l-8.9,8.1l13.2,14.4c1.1,1.2,2.7,1.9,4.4,2h0c1.7,0,3.2-0.7,4.4-1.9l28-29.8l-8.8-8.2l-23.6,25.1
		L123.4,343.6z"/>
	<rect x="192.8" y="146.9" class="st0" width="72.7" height="12"/>
	<rect x="192.8" y="171" class="st0" width="50.6" height="12"/>
	<rect x="192.8" y="240" class="st0" width="50.6" height="12"/>
	<rect x="192.8" y="264.1" class="st0" width="72.3" height="12"/>
	<path class="st0" d="M453.9,454.3l-14.1-126.9c-1.1-10.4-9.9-18.3-20.4-18.2h-28v-19.4c0-24.2-19.4-43.9-43.5-44.3
		c-24.8-0.4-45.1,20.3-45.1,45.1v18.6h-28c-10.5,0-19.2,7.9-20.4,18.2l-14.2,127.4c-2,18.3,11.2,34.8,29.5,36.9
		c1.2,0.1,2.5,0.2,3.7,0.2h146.9c18.7,0,33.8-15.1,33.8-33.8C454.1,456.8,454.1,455.5,453.9,454.3L453.9,454.3z M314.8,289.9
		c0-17.6,14.1-32,31.8-32.3c18.1-0.3,32.9,14.9,32.9,33v18.7h-64.6V289.9z M436.6,472.6c-4.1,4.6-10.1,7.3-16.3,7.3H273.4
		c-11.8,0-21.4-9.6-21.4-21.4c0-0.8,0-1.6,0.1-2.4l14.2-127.4c0.5-4.3,4.1-7.6,8.5-7.6h28V345h12v-23.8h64.6V345h12v-23.8h28
		c4.3,0,8,3.3,8.5,7.6L442,455.6C442.7,461.8,440.7,468,436.6,472.6z"/>
</g>
</svg>
