<?xml version="1.0" encoding="utf-8"?>
<!-- Generator: Adobe Illustrator 27.2.0, SVG Export Plug-In . SVG Version: 6.00 Build 0)  -->
<svg version="1.1" id="Шар_1" xmlns="http://www.w3.org/2000/svg" xmlns:xlink="http://www.w3.org/1999/xlink" x="0px" y="0px"
	 viewBox="0 0 512 512" style="enable-background:new 0 0 512 512;" xml:space="preserve">
<style type="text/css">
	.st0{fill:#243238;}
</style>
<g id="health_insurance">
	<path class="st0" d="M117.3,125.4h11.5v11.5c0,2.2,1.8,4,4,4h26.9c2.2,0,4-1.8,4-4v-11.5h11.5c2.2,0,4-1.8,4-4V94.6
		c0-2.2-1.8-4-4-4h-11.5V79c0-2.2-1.8-4-4-4h-26.9c-2.2,0-4,1.8-4,4v11.5h-11.5c-2.2,0-4,1.8-4,4v26.9
		C113.3,123.6,115,125.4,117.3,125.4C117.3,125.4,117.3,125.4,117.3,125.4z M121.3,98.6h11.5c2.2,0,4-1.8,4-4V83h18.9v11.5
		c0,2.2,1.8,4,4,4h11.5v18.9h-11.5c-2.2,0-4,1.8-4,4v11.5h-18.9v-11.5c0-2.2-1.8-4-4-4h-11.5V98.6z"/>
	<rect x="257.8" y="79.8" class="st0" width="84.1" height="8"/>
	<rect x="257.8" y="93.9" class="st0" width="84.1" height="8"/>
	<rect x="257.8" y="108.7" class="st0" width="84.1" height="8"/>
	<rect x="257.8" y="122.5" class="st0" width="84.1" height="8"/>
	<path class="st0" d="M116.2,307.6h96.7c2.2,0,4-1.8,4-4V162.4c0-2.2-1.8-4-4-4h-96.7c-2.2,0-4,1.8-4,4v141.2
		C112.2,305.8,114,307.6,116.2,307.6z M120.2,166.4h88.7v133.2h-88.7V166.4z"/>
	<path class="st0" d="M215.5,331.4H115.3c-2.2,0-4,1.8-4,4V392c0,2.2,1.8,4,4,4h100.2c2.2,0,4-1.8,4-4v-56.6
		C219.5,333.2,217.7,331.4,215.5,331.4z M211.5,388h-92.2v-48.6h92.2V388z"/>
	<path class="st0" d="M425.6,198.5c-0.8-0.8-2-1.1-3.1-1c-3.1,0.3-6.2,0.5-9.3,0.5c-12,0-23.9-2.6-34.8-7.5V47.3c0-2.2-1.8-4-4-4
		H84.8c-2.2,0-4,1.8-4,4v382.3c0,2.2,1.8,4,4,4h289.6c2.2,0,4-1.8,4-4V357l0.2-0.1c29.6-20.4,47.7-53.7,48.3-88.9l0.1-3.2v-63.3
		C427,200.3,426.5,199.3,425.6,198.5z M370.4,425.6H88.8V51.3h281.6v135.1c-9.5-5.6-17.7-13.1-24.2-22c-1.3-1.8-3.8-2.2-5.6-0.9
		c-0.3,0.2-0.6,0.5-0.9,0.9c-15.3,21.1-40.3,33.7-67,33.7c-3.1,0-6.2-0.2-9.3-0.5c-2.2-0.2-4.2,1.3-4.4,3.5c0,0.1,0,0.3,0,0.4v62.7
		l0.1,3.8c0.6,35.2,18.7,68.5,48.3,88.9l33.4,23c1.4,0.9,3.2,0.9,4.5,0l25.2-17.4L370.4,425.6z M418.9,267.8
		c-0.6,32.7-17.4,63.5-44.9,82.4l-31.1,21.5l-31.1-21.5c-27.5-19-44.2-49.8-44.9-82.4l-0.1-3.7l0-58.3c1.9,0.1,3.8,0.2,5.8,0.2
		c27.1,0.1,52.9-11.9,70.3-32.8c17.4,20.9,43.1,32.9,70.3,32.8c1.9,0,3.8-0.1,5.8-0.2l0,58.9L418.9,267.8z"/>
	<path class="st0" d="M406.2,214.8c-22.5-1.5-43.9-10.6-60.6-25.7c-1.5-1.4-3.9-1.4-5.4,0c-16.8,15.1-38.1,24.2-60.6,25.7
		c-2.1,0.1-3.7,1.9-3.7,4V264l0.1,3.6c0.5,29.8,15.9,57.9,41,75.2l23.7,16.4c1.4,0.9,3.2,0.9,4.5,0l23.7-16.4
		c25.1-17.3,40.4-45.5,41-75.3l0.1-3v-45.8C410,216.7,408.3,214.9,406.2,214.8z M401.9,267.5c-0.5,27.2-14.5,53-37.5,68.8
		l-21.5,14.8l-21.5-14.8c-23-15.9-37-41.6-37.5-68.8l-0.1-3.6l0-41.5c21.7-2.2,42.3-11,59-25.1c16.7,14.1,37.3,22.8,59,25.1l0,42.1
		L401.9,267.5z"/>
	<path class="st0" d="M382.5,251.6h-17.2v-17.2c0-2.2-1.8-4-4-4h-36.7c-2.2,0-4,1.8-4,4v17.2h-17.2c-2.2,0-4,1.8-4,4v36.7
		c0,2.2,1.8,4,4,4h17.2v17.2c0,2.2,1.8,4,4,4h36.7c2.2,0,4-1.8,4-4v-17.2h17.2c2.2,0,4-1.8,4-4v-36.7
		C386.5,253.4,384.7,251.6,382.5,251.6z M378.5,288.3h-17.2c-2.2,0-4,1.8-4,4v17.2h-28.7v-17.2c0-2.2-1.8-4-4-4h-17.2v-28.7h17.2
		c2.2,0,4-1.8,4-4v-17.2h28.7v17.2c0,2.2,1.8,4,4,4h17.2L378.5,288.3z"/>
</g>
</svg>
