<?xml version="1.0" encoding="UTF-8"?>
<svg xmlns="http://www.w3.org/2000/svg" viewBox="0 0 504 288">
  <defs>
    <style>
      .cls-1 {
        fill: #d44330;
        mix-blend-mode: overlay;
      }

      .cls-2 {
        isolation: isolate;
      }
    </style>
  </defs>
  <g class="cls-2">
    <g id="Layer_1" data-name="Layer 1">
      <path class="cls-1" d="m451.71,117.94c-.42-.73-.65-1.61-1.07-2.21-.02-.03-.02-.09-.02-.13-.54.4-1.06.8-1.72,1.3-.02-.03-.04-.06-.06-.09-.43.7-.87,1.41-1.3,2.1l.55,1.47s.03.02.05.05c0,0-.01.02-.02.03l.69,1.82c.93-1.63,1.87-3.34,2.91-4.32Zm13.91,5.25c.17-1.04.32-1.96.46-2.84-.19.05-.34.1-.41.24-.15.3-.29.64-.43.98.13.53.25,1.04.39,1.62Zm-.76,5.61h-1.42c-.11.22-.23.41-.34.61l1.24,3.29c.29-.1.55-.2.86-.31-.24-.85-.49-1.71-.76-2.63.15-.37.28-.64.42-.96Zm-8.18,11.85s0,.07,0,.11c0-.04,0-.07,0-.11h0Zm-9.71-17.07l-.49-1.3c-.2.23-.43.48-.64.73.38.19.76.38,1.14.57Zm8.9,2.07c-.15-.45-.11-1.8,0-2.66.05-.38.71-.78,1.09-1.17.14.06.29.11.43.16-.25.72-.5,1.44-.75,2.15.16.06.32.1.48.15.49-.44.99-.88,1.01-.9.03-.31.04-.59.07-.88l-5.48-14.56c-.43-.32-.88-.65-1.36-1l-2.12,5.22c-.05.45-.09.83-.13,1.22.09.19.17.37.26.56.1-.02.21-.04.31-.06.63-.15.95-.03,1.12.41.04-.16.08-.31.1-.45.23-.03.46-.07.69-.1.59,1.13,1.21,2.29,1.86,3.53.78,0,1.59.2,2.37.17-.03.4-.07.8-.1,1.2-.65.3-1.3.59-1.96.9.34,2.61.5,4.59.48,6.14h1.64Zm14.44-29.54c.2-.79.48-1.22,1.04-1.16l-.67-1.76c-.07.01-.12.02-.19.03.04-.1.06-.18.09-.28l-1.35-3.52c-.54-.19-1.08-.38-1.62-.54-.51-.14-1.09-.43-1.54-.18-.49.27-.93.4-1.32.29-.32,1.4-.58,2.93-1.06,3.71.02.15.04.29.06.44.66.5,1.3,1.03,1.9,1.61.38.36.37,1.3.54,1.98-.22.15-.44.3-.66.45-.79-.77-1.58-1.55-2.37-2.33-.45-.2-.92-.42-1.39-.63l.68,1.77c.56-.85,1.68,1.48,2.39,1.1-.08,2.21-.41,2.86-.83,2.95l.49,1.27s.02.08.03.13h1.06c.73-.56,1.25-.95,1.77-1.35-.24-.33-.5-.69-.72-1-.01,0-.02,0-.03,0,0-.01,0-.02,0-.03-.03-.04-.07-.09-.1-.13.11-1.63.23-3.38.37-5.47.39,0,.82,0,1.23.02.18-.66.36-1.34.56-2.07.26,1.47.38,2.65.38,3.65.18-.12.38-.24.6-.34-.18.87-.34,1.64-.49,2.36.35-.72.74-.98,1.15-.99Zm-25.92,50.13h1.91c1.35-1.06,2.71-2.12,4.06-3.17l.66-1.94c-.61.44-1.23.82-1.85,1.22.19-.9.45-1.3.69-1.66l-6.4.04c-.65.89-1.41,1.24-2.14,1.68l-1.31,3.86,3.45-.02c.52-1.16,1.03-2.33,1.55-3.49.26.24.53.48.79.72-.47.92-.95,1.84-1.42,2.76Zm12.75-66.14c.24.61.49,1.21.72,1.84.15.4.17.93.25,1.4-.14.06-.29.14-.43.22l3.24,8.44c.04-.08.09-.16.13-.25.24,0,.53-.1.73-.03,0-.01,0-.03.02-.04-.5-.65-.9-1.17-1.45-1.89.7-.44,1.2-.76,1.71-1.08,0-.21.01-.42.02-.63-.47-.85-.92-1.67-1.36-2.47-.3.18-.6.37-.89.55-.06-.29-.12-.57-.19-.85.18-.22.35-.46.52-.71-.3-.53-.59-1.07-.89-1.61.95-1.28,2.11-1.25,2.81-.33.05-.02.1-.05.15-.07.01-.46.02-.93.04-1.39-1.06-.43-2.22-.28-3.15-1.11h-1.97Zm-38.41.28l.69.41-.16-.41h-.53Zm61.45,51.57s.04-.02.06-.03v.05s-.05-.01-.06-.02c-.39.18-.72.42-.97.72-.08.51-.21.96-.34,1.41l3.81-.03c.45-.67.88-1.39,1.26-2.24-.18-.68-.35-1.35-.55-2.09-.64,1.16-1.21,2.41-1.89,3.39-1.09,1.6-1.51,1.03-1.27-1.14,1.29-.14,2.01-1.66,2.7-3.29l-3.34.02c-.07,1.01-.15,2-.26,2.94.28.08.56.23.84.31Zm.47-27.05c.31.43.62.85.91,1.24.08-.64.21-1.13.37-1.57h-1.04s-.04.1-.06.14c-.05.09-.12.12-.18.19Zm-14.13-.22h-1.09s.6,1.6.6,1.6c.18-.58.34-1.11.49-1.6Zm18.1-22.67c.46.59.93,1.17,1.4,1.76.54-.34,1.07-.74,1.59-1.18v-.43c-.09-.19-.12-.42-.16-.64-.28.29-.58.57-.83.58-.71.02-1.37-.02-1.99-.07Zm-94.99,12.02l-5.15-13.41-9.27.07,8.04,20.96c.08.13.15.26.23.39l3.62-.02c-.68-1.1-1.37-2.22-2.13-3.46.02,1.09.04,1.72.06,2.73-.98-1.19-1.74-2.1-2.32-2.8.07-1.69.11-2.99.15-3.85,1.83.15,3.7.43,5.56.38.41-.01.83-.48,1.22-.99Zm37.83,7.7l-7.41-19.31c-.6-.28-1.21-.57-1.81-.85.06-.4.12-.79.18-1.19l-8.43.06,1.71,4.46c.84.57,1.37,3.21,2.5,2.35.26.73.55,1.55.83,2.32.29-.12.4-.2.51-.21.49-.04.99-.11,1.48-.02.07,0,.11.76.16,1.16-.5.03-1.01.18-1.5.08-.69-.14-1.31-.61-2-.53l4.46,11.62s.02.08.04.13l9.29-.07Zm-9.3-10.87c.17-.32.33-.63.5-.95.59.77,1.18,1.54,1.77,2.32-.18.34-.35.68-.53,1.02-.58-.8-1.16-1.59-1.74-2.39Zm-.31,3.83c1.86,1.1,3.87.78,5.04,3.63-1.43-1.85-3.91.23-5.04-3.63Zm-46.05,7.43l9.29-.06-.06-.14c-.88-.72-1.78-1.45-2.83-2.32,2.14-3.97-1.3-3.6-1.62-5.71.4-.4.74-.67,1.04-.87l-3.76-9.79c-.9-.38-1.82-1.39-2.37-2.51l-7.88.05,8.15,21.23s.02.09.04.13Zm103.98,42.44c-.12-.13-.24-.28-.36-.4l-.38,1.13c.24-.24.49-.5.74-.72Zm-84.37-51.93c1.38-.73,3.3-1.55,3.57-1.31.13.12.21.38.39.71-.54.21-1,.4-1.46.58-.01.24-.02.48-.04.73.94.48,1.88.96,2.57,1.3.44,1.14.82,2.11,1.48,3.84-1.63-.54-2.87-.97-3.83-1.29-.08.67-.13,1.33-.17,1.96l1.03,2.69s.02.08.04.13l9.29-.06-7.09-18.48c-.31-.46-.63-.93-.91-1.34.13,0,.27,0,.4.01l-.59-1.55-2.19.02c.9,1.69,1.81,3.37,2.71,5.06-.04.1-.08.21-.12.31-1.49-1.57-2.98-3.14-4.51-4.75.1.89.19,1.74.29,2.6-2.8.53-3.39.18-3.35-3.2h-1.05c-.04.59-.17,1.18-.37,1.82l3.92,10.22Zm71.05-12.55c.36.14.76.19,1.16.24.07-.08.13-.16.2-.25h-1.37Zm-73.29,21.93c.02-.49.1-1,.27-1.57.57-1.94.39-2.43-.68-3.29.09,1.1.18,2.11.28,3.36-.65-.22-1.1-.37-1.43-.49.13.67.25,1.33.38,2h1.18Zm49.58,50.96c-.18.56-.35,1.11-.53,1.66-.46,2.09-.97,3.43-1.62,4.04l3.15,7.07c.31-1.05,1.22-.47,1.49-.59,1.21-2.37,1.97-4.68,2.98-5.65-.74-.52-1.46-1.16-2.19-1.82-.46.45-.9.88-1.36,1.33-.09-.32-.18-.64-.27-.96.23-.39.47-.79.71-1.18-.55-.47-1.11-.92-1.73-1.27,1.06-.31,2.03-.6,3.02-.9.6-1.01,1.23-2.06,1.9-3.18.15,2.29.96,3.95,1.77,4.22l2.12-6.27-4.39.03c-.03.17-.06.34-.09.52-.88-.17-1.76-.34-2.63-.5l-2.17.02-1.07,3.15c.28.1.58.19.91.3Zm37.61-31.79c-1.21.98-2.42,1.96-3.63,2.94l.53,1.41h.96c.25-.56.51-1.03.81-1.4.7-.86,1.1-1.85,1.33-2.96Zm-5.26,35.73s0,.01.01.02c.41-.45.77-.83,1.16-1.27.05.44.09.83.13,1.22.19-.68.39-1.36.59-2.04-.18-.42-.36-.84-.55-1.31.53-1.32,1.08-2.68,1.63-4.04-.04-.07-.09-.14-.14-.22h-.09c-.07.04-.13.08-.2.11l-2.54,7.52Zm-29.2,11.14l2.09-6.18c-.5.53-.9,1.44-1.19,2.99-.26,1.41-.71,2.44-1.26,3.23.11,0,.25-.05.36-.04Zm8.84,2.28c-.03-.19-.03-.38-.02-.58-.11.2-.21.39-.32.58h.33Zm1.77-19.15c-.05,1.43-.1,2.87-.14,4.27-1.3,1.3-2.58,2.58-3.87,3.84l.47,1.05s.03-.03.04-.04c1.18-.93,2.39-1.73,3.52-2.87.14-.14.27-.31.4-.49-.01-.11-.03-.21-.05-.31.08.01.15.03.23.04.42-.65.81-1.43,1.23-2.11.14-.27.28-.55.42-.81-.26,0-.51-.24-.73-.77.66-1.21,1.31-2.41,1.96-3.6l-3.59.02c0,.54-.05,1.08-.04,1.6.05.06.11.11.16.17Zm18.35,43.49c.43-.08.86-.15,1.29-.22.17-2.13.29-4.26.18-6.38l-2.28,6.61h.81Zm-4.27-33.9c.26.09.53.2.79.32l.29-.87c.01-.4.03-.78.04-1.19-.01,0-.03,0-.04.02-.52.29-.97.4-1.34.34.04.31.05.71.03,1.16.08.07.15.16.22.23h0Zm13.82-36.49c-.36.43-.66.8-1,1.21l3.12-.02-1.41-3.76c-.26.93-.51,1.81-.71,2.57Zm-3.27,19.09c.05-.05.11-.1.17-.15-.02.13-.06.22-.08.35.07.18.15.36.23.54.34-.36.69-.72,1.03-1.08-.58-.61-1.16-1.21-1.73-1.83-.13.1-.26.2-.39.3.25.6.52,1.25.78,1.87Zm-16.42-31.05c.08.12.16.25.23.37-.4,1.19-.79,2.39-1.31,3.96,1.13-1.08,2.02-1.94,2.81-2.69.51-1.44,1.11-1.93,1.78-1.39.36.3.72.5,1.03.53.22-.3.43-.61.65-.91l-2.47-6.57-2.73,6.71Zm8.29,52.2c.2-.04.41-.07.61-.11.36-.54.73-1.08,1.08-1.61.02-.08.05-.16.07-.25l-.9-2.02-.48,1.42c.27.12.52.24.8.35-.42.67-.84,1.35-1.26,2.03.02.06.05.13.08.19Zm-.1-57.92c0,.86,0,1.69,0,2.5.99-.6,2.01-1.08,2.92-2.07.29-.31.49-.96.69-1.68-.13-.08-.27-.16-.46-.22-.12-.04-.23-.15-.34-.22-.19-.09-.37-.17-.55-.25h-1.44c.01,1.15.02,1.96.03,3.04-.33-.38-.59-.76-.83-1.1Zm6.26,43.62c-.1,1.86-.2,3.71-.3,5.61.63-.38,1.07-.65,1.84-1.12-.55,1.33-.87,2.1-1.24,3.02,0,0,0,0,0,.02.2.22.43.32.53.61.02.06.04.11.06.17.21-.44.43-.89.63-1.3.12.15.23.3.35.46-.13.76-.26,1.53-.4,2.3.29.51.63.75,1.13.44-.07-1.05-.14-2.1-.17-3.14-.07.1-.13.2-.2.31-.13-.23-.27-.47-.41-.7.42-1.41.84-2.82,1.5-5.02.09.35.2.67.3.98.26.15.61.47.97.67.16-.6.4-1.53.74-2.84-.76-.07-1.22-.13-1.85-.19.06-.44.11-.85.17-1.28l-2.49.02c.26.49.52.97.77,1.46-.84.45-1.49.3-1.94-.51Zm4.08-30.18c.1.14.17.31.24.48.26-.34.53-.69.79-1.04l-.18-.48c-.15-.15-.3-.31-.45-.46-.74.6-1.49,1.2-2.23,1.81-.16,1.17-.32,2.37-.48,3.56.76-1,1.49-1.97,2.23-2.95.03-.3.06-.59.09-.91Zm-11.35-14.32c-.47,0-1.01.6-1.65,1.22l.87,2.31c.49-.99.99-1.97.84-3.5-.02,0-.04-.03-.06-.03Zm16.03.44l.59-1.46s-.03.02-.04.02c-.04-.05-.07-.1-.1-.15h-.68c.06.52.14,1.04.17,1.54.02.02.05.03.07.05Zm-9.89,58.27l.48,1.09c.32-1,.53-2.04.54-2.8-.34-.21-.69-.32-1.07-.26.06.52.11,1.04.09,1.55,0,.14-.03.28-.05.42Zm-7.69-3.7s0-.07,0-.1c-.01.03-.02.06-.04.09.01,0,.03,0,.04,0Zm2.61-14.63c.04-.13.08-.25.12-.39-.15.13-.29.26-.44.39h.32Zm2.82,21.41c-.2-.29-.37-.55-.55-.82-.36.35-.73.71-1.12,1.04.51.33,1.05.27,1.67-.22Zm-4.94-15.96c.07.36.14.66.22.9.52-1,.89-2.1,1.06-3.13h-.92c-.04.41-.05.85-.03,1.36,0,.22-.12.53-.32.87Zm-.5,9.07s.01-.03.02-.05v-.03s-.01-.02-.02-.02v.1Zm14.28,2.88c.23-.81.47-1.59.7-2.39-.01-.04-.03-.08-.04-.12l-.82,2.43c.05.03.11.04.17.07Zm-16.98-7.81s-.04.04-.06.07c.02,0,.05-.02.07-.02,0-.02,0-.03,0-.05Zm15.28,12.6c.12.02.24.04.35.06.25-.89.5-1.79.75-2.69-.09-.04-.18-.08-.28-.13l-.65,1.93c-.06.27-.12.56-.17.83Zm-5.65-.13l-.09-.19c-.04.15-.09.3-.13.45.07-.07.14-.17.21-.26Zm-39.27-17.6s.02-.07.04-.11c-.04.02-.07.03-.1.05.02.02.04.04.07.07Zm31.98-5.57c-.49-.03-.96-.07-1.44-.11-.12.32-.23.65-.34.99-.1-.4-.19-.73-.27-1.04-.1,0-.21-.01-.32-.02l-.45,1.32,3.05-.02c.95-1.39,2.35-2.66,3.66-3.4.2-.65.44-1.2.7-1.67-.19-.16-.38-.3-.57-.47h-.84c-.34.44-.67.9-1.01,1.29-.32.36-.89-.33-1.34-.54.11-.23.22-.48.33-.73h-1.18c-.22.97-.53,1.87-.87,2.78.28.45.57.97.89,1.62Zm-5.99,28.5h-.46c.15.07.29.14.44.21,0-.07.02-.14.03-.21Zm24.39,21.09c.35-2.44.71-4.89,1.06-7.32l-.7-.56c-.4,2.63-.8,5.26-1.2,7.89h.85Zm-8.84-26.77l.23.52c.05.06.11.11.16.16l.22.24c0-.52-.02-1.06-.06-1.65-.22.21-.38.47-.55.72Zm12.51-33.82h0s.46.01.46.01l-.02-.86c-.15.28-.3.57-.44.85Zm-28.92,34.95c.45.36.9.72,1.35,1.08.12-.63.26-1.25.44-1.81-.6.24-1.19.49-1.79.73Zm22.36-8.43l-.03-.07-.04.11s.05-.03.07-.05Zm1.47-3.87c.05.25-.18.57-.38.87l.12.26c.24-.07.51-.08.73-.1.43-.05.86.2,1.29.31.02-.32.05-.64.07-.97-.51-.66-1.01-1.31-1.51-1.96l-.4,1.19c.03.13.06.27.08.41Zm-2.99-16.15h-.49c.15.2.28.43.4.66.03-.22.06-.44.09-.66Zm-25.98,33.7c.63-.18,1.26-.33,1.88-.44.15-.03.3.05.44.14-.13-.13-.25-.26-.37-.39h-1.73c-.01.06-.01.1-.03.14l-.19.54Zm6.88-33.57h-1.55c-.72.7-1.43,1.4-2.12,2.13-.28.3-.42,1.24-.62,1.88.33-.03.7.15.98-.14.44-.43.82-1.18,1.32-1.93-.11,1.06-.2,1.85-.23,2.16.21-.07.41-.16.61-.24-.13,0-.25-.02-.38-.03,1.47-1.48,2.55-2.36,3.45-2.66l.4-1.18h-.97c-.27.5-.55,1.01-.86,1.58.07-.6.12-1.07.18-1.51-.07-.02-.13-.04-.2-.06Zm-11.6,5.6l.12-.35c-.24.12-.48.24-.72.35h.6Zm15.48-4.19c-.04-.1-.07-.17-.11-.27l-.2.59c.11-.11.23-.24.31-.32Zm-1.58,7.39s0-.06,0-.08h-1.09s-.29.87-.29.87c.47-.32.93-.6,1.39-.79Zm19.42-33.86c.36.66.73,1.32,1.08,1.95-.48-.16-.93-.31-1.37-.46-.08.35-.15.7-.24,1.05l2.69,7.14c.34-.41.7-.79,1.04-1.2.11.47.23.93.34,1.4h.15c.05-.11.08-.24.13-.36,0-.27,0-.53,0-.8.09.01.19.02.28.03.05-.16.13-.3.17-.46-.13-.62-.36-1.45-.71-2.72.25-.66.48-1.26.7-1.87-.13-.69.46-2.08.71-3.15.19.09.37.18.56.27.02-.01.04-.03.06-.04v-.41c-.28-.34-.53-.67-.76-1.03-.11-.17-.21-.36-.32-.54-1.63,1.12-1.63,6.07-2.76,8.77.29-5.48.63-7.75,1.95-10.19-.1-.19-.21-.37-.31-.57-.38.08-.74.12-1.09.06-.27-.04-.47-.51-.66-1.14l-1.58,3.88c-.02.13-.04.27-.06.39Zm-34.8,42.16c0-.1,0-.2-.01-.3l-.05.15.06.14Zm-3.59-1.48c-.43.42-1.06.81-1.77,1.26,1.18.02,2.14.03,3.01.04l.27-.81c-.52-.17-1.02-.33-1.51-.49Zm33.01,9.94l.55-1.62c-.59-.26-1.19-.44-1.82-.54-.1.58-.2,1.17-.31,1.8.63.11,1.18.46,1.58.36Zm-37.83,4.23l-.35-.78c-.12,0-.23.07-.35.06.05-.08.12-.17.18-.25-.78-.55-1.53-1.16-2.25-1.81-.08-.07.32-.9.71-1.82l-2.24-5.03-.31.92c.44.5.67,1.64,1.05,2.67-.71-.11-1.21-.18-1.42-.21-.87,2.08-1.64,3.9-2.38,5.65l-.23.68,7.57-.05Zm-79.12-.35l6.78-20.04-9.29.06-2.76,8.15,5.27,11.83Zm-17.91-8.64l-.09.26c.04-.07.08-.13.12-.2l-.03-.06Zm13.09-11.32l-2.65.02c.63.92,1.2,1.78,1.76,2.61l.89-2.63Zm69.55-.48h0s0,.02,0,.03v-.03Zm-77.44,2.4c-.54,1.28-1.06,2.51-1.92,4.54-.05-1.9-.08-3.1-.12-4.37-.01,0-.02,0-.03,0l-2.07,6.13.48,1.08c.17-.16.33-.34.52-.45,2.38-1.3,2.73,2.37,3.79,3.04-.91.18-1.88.38-2.9.58l3.37,7.58,5.45-16.11c-2.31-.98-2.6-2.05-1.43-3.91l-6.53.04-.12.35c.53.53,1.05,1.04,1.5,1.5Zm22.29,18.88l-4.29-9.64-3.28,9.69,7.57-.05Zm21.17-4.68l-2.01-4.52c-.2.13-.4.26-.6.39l-1.28,3.78c.64-1.06,1.09-1.81,1.84-3.07.19,1.97.95,2.98,2.05,3.42Zm-9.8-13.01c-.42.98-.84,1.96-1.36,3.18-.27-.39-.51-.73-.74-1.05l-.93,2.74,5.26,11.83,6.78-20.05-9.29.06-.97,2.87c.41.14.82.28,1.23.41Zm-30.53,17.83l7.57-.05-4.29-9.64-3.28,9.7Zm79.06-69.31l9.29-.06-8.2-21.36h-.59c.6,3.4,1.19,6.8,1.79,10.19-.15.11-.29.21-.43.32-.67-3.5-1.33-7-2-10.5l-8.04.06,8.14,21.23s.02.09.03.13Zm-5.16,44.68c-.03-.8-.05-1.6-.08-2.35.51.73,1.05,1.5,1.61,2.3l1.86-5.49-9.29.06-1.87,5.53,7.77-.05Zm8.89-.06c.85-1.85,1.7-3.7,2.54-5.53l-5.73.04-1.65,4.87c.47-.6.94-1.19,1.41-1.79-.06.87-.23,1.68-.46,2.44l3.88-.03Zm-30.55.21l1.87-5.53-9.29.06-1.87,5.53,9.28-.07Zm-20.88.15l9.29-.06,1.87-5.53-9.29.07-1.87,5.53Zm32.31,10c-.39.12-.76.24-1.12.35l-.26.77,4.48,10.07c.34.35.69.71,1.03,1.05l2.66-7.86c-.3.64-.6,1.28-.9,1.91-.15-.29-.3-.58-.46-.87,1.22-1.53,1.29-5.33,2.99-5.86l1.57-4.63c-.15.02-.28.07-.43.09.24-.31.47-.59.71-.9l.12-.34c0-.29-.02-.57-.03-.86l-8.97.06-1.49,4.4c.04.92.08,1.81.12,2.62Zm-6.83,10.44c-.97-.64-1.93-1.29-2.9-1.93l2.02,4.54.88-2.6Zm-4.1-11.61c.33.41.66.82.99,1.22-.65,1.21-1.2,3.2-1.93,3.62l1.59,3.59c1.25.78,2.5,1.55,3.74,2.34l2.85-8.44c-.25.08-.5.16-.76.24.61-2.26,1.11-4.1,1.53-5.67.47-.27.91-.52,1.33-.77l.67-1.97-9.29.06-2.22,6.58c.5-.27,1.01-.54,1.51-.82Zm2.61,1.34c1.29-1.34,2.3-2.4,3.71-3.87-1.14,4.95-1.56,5.37-3.71,3.87Zm-10.98,12.95l1.93-5.71c-1.07-.42-2.18-.5-3.2-.12-.12-.85-.24-1.66-.37-2.5,1.55-.07,2.94.33,4.1,1.06l1.33-3.94c-.1-.07-.21-.16-.31-.22.09-.24.19-.49.29-.73.1.04.21.07.31.11l2.7-7.98-9.29.07-2.76,8.15,5.26,11.83Zm-136.48-66.9c-.44-1.76-.83-3.59-1.62-4.95-.17.13-.33.27-.5.4.32,1.52.63,3.04.95,4.56h1.17Zm157.64,67.65l-4.29-9.64-3.28,9.69,7.57-.05Zm-164.42-67.61c-.93-1.1-1.79-2.36-3.03-1.27.14.45.28.86.42,1.29l2.62-.02Zm127.94,43.75l1.87-5.53-9.28.06-1.87,5.53,9.28-.06Zm-129.81-50.68c.55.81,1.18,1.47,1.81,2.14l-1.85-4.82c-.51.75-.58,1.77.04,2.68Zm-85.45,7.54c.85-1.93.51-3.5-.9-4.27-.87-.47-1.75-.92-2.62-1.36l1.93,5.04c.15-.36.31-.72.51-1.07.24.63.43,1.15.62,1.66h.46Zm100.69-.71l-4.4-11.47c-.03.05-.03.09-.06.15-.97-1.14-1.81-2.29-1.57-4.4l-2.16-5.63h-.04s-9.24.06-9.24.06h-.04s.65,1.68.65,1.68c2.06.7,4.13,1.39,6.19,2.09.5,2.39.99,4.78,1.5,7.17.39,1.83.77,3.59,2.18,4.2.28.12.43,1.41.57,2.19.19,1.08.17,2.31.5,3.26.09.26.2.5.3.75l5.64-.04Zm-8.74-12.62c.21-.21.43-.42.64-.63,1.34,1.05,1.1,3.4,1.68,5.08-.18.15-.36.31-.53.47-.6-1.64-1.19-3.28-1.79-4.92Zm-53.79,12.71c.03.13.12.24.21.34l2.81-.02c-.14-.45-.29-.94-.46-1.47.59.1,1.08.19,1.51.27l-7.74-20.16-9.27.07,8.15,21.22s.02.09.04.13h1.57c-1.41-1.12-2.63-2.44-3.24-5.18.91.02,1.83-.07,2.73.08,2.31.37,2.84,1.1,3.7,4.72Zm53.17-4.62c-.34-1.23-.58-2.59-1.08-3.64-.25-.52-.98-.46-1.49-.65-.01.66-.02,1.32-.03,1.98l.12.32c.29-.39.57-.79.91-1.26.37,1.46.65,2.55.93,3.65.22-.13.43-.27.65-.4Zm-31.36-10.73c-.75-1.06-1.33-2.32-1.54-4.02l-.71-1.84h-.04s-.43,0-.43,0c-.06.54-.11,1.09-.17,1.63-.25-.06-.51-.13-.76-.19l.1-1.44-7.97.05h-.04s2.28,5.94,2.28,5.94c.19-.09.37-.18.58-.28.34.96.64,1.83.94,2.7.29.83.58,1.65.86,2.47-.12.13-.26.21-.4.27l3.89,10.14s.02.08.04.13l9.33-.06-.79-2.07c-.1.07-.19.1-.3.21-.12-.37-.25-.73-.37-1.11-.48-1.45-.96-2.89-1.47-4.41-2.42,3.27-2.55,4.16-1.25,7.37-.78-.05-1.52-.1-2.11-.14-1.59-3.34-3.08-6.45-4.62-9.68-.23.16-.73.53-1.24.89-.1-.2-.2-.39-.3-.59.66-1.23,1.31-2.46,2.02-3.78,1.39,2,1.31,6.84,4.2,5.16-2.15-1.23-1.94-4.32-2.15-7.35,1.31,1.31,2.62,2.62,3.94,3.92l-1.5-3.91Zm31.78,15.32c-.62-1.3-1.25-2.6-1.87-3.91l1.45,3.78s.02.08.04.13h.39Zm193.66,67.41c.07-.73.15-1.38.25-1.91l-1.19-2.69c-.53.67-1.03,1.09-1.33-.29-.18-.81-.2-1.78,0-2.7l-.8-1.8s0,0,0,0c-.08.08-.16.12-.25.15l-2.49,7.35c.73-.27,1.43-.54,2.13-.79-1.31,1.24-2.12,2.01-2.67,2.39l-.02.06c0,.09.01.18.02.27l3.73-.03c.25-.21.47-.39.73-.61-.03.23-.05.41-.07.61h1.98Zm12.16-49.19c.05-.05.11-.11.17-.16-.07-.02-.14-.04-.2-.06,0,.08.02.16.04.23Zm-38.53,39.68l-3.28,9.7,6.15-.04c-.08-.5-.06-1.21.09-2.24-1.37.81-2.59,1.53-3.81,2.25,1.39-2.37,2.53-3.68,3.39-3.99l-2.53-5.68Zm5.23,12.85h-.1c0,.12,0,.22,0,.33l.11-.33Zm-152.65-70.91h.66s-8.19-21.36-8.19-21.36h-.04s-9.24.07-9.24.07h-.04s3.7,9.64,3.7,9.64c.03-.04.05-.05.08-.09.09.38.2.74.29,1.05l4.08,10.63s.02.08.04.13l6.85-.05c.02-.27.03-.54.05-.81.57.06,1.17-.03,1.68.28.06.04.07.26.08.52Zm149.35,73.76c.74-1.05,1.4-1.98,2.01-2.83l-2.06.02c-.11.81-.22,1.65-.34,2.46.13.12.26.26.38.36Zm-183.31-82.16c-.2.51-.39,1.03-.59,1.54l2.67,6.96s.02.09.04.13l2.51-.02c-.28-.4-.52-.88-.7-1.52-.71-2.56-1.5-4.71-.19-7.56.95,1.77,1.86,3.46,2.77,5.15.23-2.5.12-4.85-.13-7.18-.24-2.3-1.34-2.41-2.49-2.25-.39.05-.94.33-1.16.02-1.26-1.69-2.83-3.26-1.84-6.81.41.23.96.32,1.31.78,1.23,1.65,1.57,1.96,2.06.59l-1.01-2.63-3.98.03c-.09.53-.19,1.07-.3,1.68-.58-.36-.98-.76-1.4-.83-.49-.08-.99.16-1.49.21-.8.09-1.43-.05-1.89-.37l4.74,12.35c.06-.49.15-.95.33-1.1.63-.52,1.4-.74,2.12-.79.31-.02.65.68.98,1.06-.23.53-.46,1.06-.78,1.79-.55-.93-.86-1.47-1.21-2.06-.19.4-.29.6-.38.82Zm101.87-8.06c-.77-.7-1.54-1.4-2.32-2.1l5,13.03c1.21.88,2.42,1.77,3.63,2.66-.49.98-.85,1.7-1.19,2.38l8.77-.06-8.2-21.36-7.5.05c.76,1.64,1.48,3.2,2.19,4.74-.13.22-.25.44-.38.66Zm4.2,8.17c-.1.29-.21.58-.31.87-.81-.82-1.63-1.65-2.72-2.77,1.8-1.05,2.32.71,3.04,1.9Zm44.83,76.25l-1.04-2.35c-.74.88-1.83.88-2.7,1.06-.93-1.42-1.69-2.59-2.23-3.41l-1.61,4.75,7.57-.05Zm-86.27-55.27l.32-.79c0-.05-.02-.1-.03-.15,0-.05.09-.18.22-.33l2.93-7.23c-.14-.38-.27-.78-.37-1.21l-6.7.05,3.63,9.65Zm9.87-4.66l1.72,4.57,3.94-9.7-7.23.05c.44.15.88.3,1.33.45.76,2.4.85,3.72.24,4.63Zm-20.3,7.83l3.05,8.11,9.29-.07-5.35-14.22c0,.36,0,.68,0,.97-1.19-.4-2.01-.68-2.84-.96-.07-.2-.14-.4-.21-.6.66-.53,1.32-1.06,2.18-1.76l-1.27-3.37-2.3,5.67c.05.16.09.34.16.48.25.54.69.85,1.05,1.26-.14.3-.28.6-.43.91-.41-.51-.83-1.01-1.25-1.51l-2.07,5.09Zm26.24,7.95l9.28-.06-7.5-19.94-4.83,11.9,3.05,8.11Zm20.13-8.27l3.05,8.11,9.28-.07-7.5-19.94-4.83,11.9Zm-8.81-12.71l-7.58.05,3.63,9.65,3.94-9.7Zm34.26,41.19l1.87-5.53-9.28.06-1.88,5.54,9.29-.07Zm-72.98-31.24l1.68-4.12c-.05-.08-.11-.14-.15-.22-.25-.42,0-1.86.23-2.69.07-.27.98-.35,1.12-.06l1.07-2.62-7.57.06,3.63,9.65Zm50.31-10.02l-7.57.05,3.63,9.65,3.94-9.7Zm112.38-4l-.28-1.64c-.27.58-.6,1.12-.96,1.64h1.24Zm-79.64,24.67l-7.5-19.94-4.83,11.9,3.05,8.11,9.28-.06Zm54.63-21.28l-2.21.02.8,2.13c.5-.76.97-1.47,1.41-2.14Zm-79.72,10.23l3.94-9.71-7.57.05,3.63,9.65Zm80.03-34.86l8.14,21.23s.03.08.04.12l9.29-.06-2.29-5.98c-1.08-.51-2.1-1.19-3.14-1.4-1.92-.39-1-4.79-2.92-4.55-.39.41-.88.97-1.27.82-.5-.21-.86-.55-1.14-.96-.42.49-.83.97-1.28,1.5.28-.92.55-1.69.81-2.4-.51-1.43-.5-3.34-.87-4.97.97-.49,1.83-.91,2.97-1.48-.49-.69-.94-1.31-1.37-1.91l-6.96.05Zm4.8,5.95c.22.63.13,1.52.18,2.29-.16.03-.32.06-.49.1-.44-1.24-.89-2.48-1.33-3.72.15-.26.29-.52.43-.78.41.7.93,1.31,1.21,2.12Zm4.48-6.02h-.91c.75,1.17,1.49,2.35,2.25,3.5l-1.34-3.5Zm-56.09,26.18c1.96-.77,2.69,1.46,3.61,3.48l1.5-3.7c-.53.52-1.1,1.03-1.65,1.64-.05-.97-.01-1.85-.06-2.6l-4.4.03c.32.52.75,1.26,1,1.16Zm-17.67-1.05l-7.57.05,3.63,9.65,3.94-9.71Zm7.65,9.62l3.94-9.7-7.58.05,3.63,9.65Zm-9.69,11.29l-7.5-19.94-4.83,11.9,3.05,8.11,9.29-.06Zm-77.35,21.06l9.32-.06,1.87-5.53-8.93.06h-.36s-.04,0-.04,0l-1.87,5.53Zm11.63-.08l9.28-.07,1.87-5.53-9.28.06-1.87,5.53Zm20.15-.14c-1.91-.45-3.97-2.02-4.77-3.73,1.82,1.01,3.66,2.03,5.69,3.15l1.68-4.96-9.29.06-1.87,5.53,8.56-.06Zm140.75-14.97c-.06.23-.12.45-.16.72-.15-.14-.31-.28-.47-.43.01-.6.03-1.23.05-1.84l-.66-1.76h-.63c.07.5.08,1.15.04,2.06-.19-.25-.37-.48-.55-.72-.19.59-.49.81-.81.88-.27,1.05-.54,2.1-.8,3.15l3.97-.02c.16-.32.3-.62.45-.94l-.42-1.1Zm-134.84,14.92l6.4-.05,1.87-5.53-9.28.06-1.32,3.91c.97.11,1.74.67,2.33,1.6Zm17.99-.13l1.87-5.53-9.29.06-1.87,5.53,9.29-.06Zm11.59-.08l1.87-5.53-9.28.07-1.87,5.53,9.29-.07Zm-32.02.22c-.12-.07-.25-.15-.37-.22l-.08.22h.45Zm127.6-21.42c.38-1.92,1.11-3.9,1.61-6.15-1.07.49-2.19,1-3.46,1.58.59,1.08.87,1.58,1.16,2.11-.45.73-.81,1.3-.74,1.2-.48-.14-.88-.26-1.24-.36l.36.96c.44.22.89.44,1.32.67h.99Zm-8.01.05c.12-.41.33-.76.58-1.02-1.12-1.31-2.22-2.6-3.35-3.92,1.13-.87,1.92-1.29,2.55-1.26.2-.76.4-1.56.63-2.4l-4.28-11.36-4.83,11.9.55,1.45c.07-.21.15-.42.21-.64,1.96,2.15,3.7,4.01,5.38,5.95.24.28.24.84.31,1.32h2.25Zm-44.37-11.58l3.68-9.05-7.57.05,3.32,8.83c.2.04.38.11.57.17Zm-9.94,11.94l-5.56-14.78c-.53-.44-.77-1.23-.86-2.27l-1.09-2.88-4.83,11.9,3.05,8.11,9.29-.07Zm-2.4-12.54l.49,1.32.28-.7c-.27-.1-.53-.29-.78-.62Zm27.62-8.54l-3.76.02c.07.06.14.1.2.17.42.39.68,1.2,1.02,1.83-.47.23-.99.79-1.42.64-1.18-.41-2.04-1.39-2.76-2.61h-.86s3.63,9.65,3.63,9.65l3.94-9.7Zm-13.62,20.99l-2.34-6.22c-1.55-.52-3.1-1.05-4.65-1.57.47-.36.93-.71,1.51-1.15-1.3-1.2-2.84-2.08-1.28-4.83.16-.28-.1-1.1.01-1.54.11-.45.26-1.04.42-1.54l-1.16-3.1-2.33,5.74c.11.12.21.23.34.36-.27.66-.74,2.27-.9,2.19-.14-.07-.28-.1-.42-.13l-1.51,3.73,3.05,8.11,9.29-.07Zm37.91-.26s-.01-.04-.02-.06c0,.02,0,.04,0,.06h.01Zm-22.23-19.84l-4.83,11.9,3.05,8.11,4.68-.03c-.25-.4-.5-.79-.76-1.15-.91-1.19-1.77-2.41-2.19-3.89l-1.16-1.8c.23-.16.48-.33.71-.49.13.19.27.39.4.58,1.18-.32,2.19-.6,3.17-.87.13.56.3,1.31.6,2.65.28-.84.46-1.39.64-1.95-.22-1.14-.48-2.35-.77-3.66l-.43-1.14s-.02.03-.03.05c-.96-1.43-1.92-2.85-2.88-4.28.19-.31.37-.63.56-.94.33.52.66,1.04.99,1.56l-1.75-4.64Zm12.78,19.91c0-.91.06-1.8.18-2.67-.52-.99-1.05-1.97-1.6-3-.11.14-.2.27-.31.41.09.05.18.1.27.16-.22.1-.4.18-.57.25-.39.52-.75,1.01-.97,1.31.15.3.29.57.43.87,0,0,.01,0,.02,0,.04.12.09.22.14.34.38.78.77,1.56,1.14,2.32,0,0,.01.02.02.03h1.25Zm-376.24-13.29l2.04-5.01-4.7.03c.01.25.02.47.03.66-.58.23-1.11.45-1.4.57.21,1.46.52,2.41.45,3.34-.01.16-.04.32-.06.49l.17.44c1.04-.43,2.11-.77,3.18-1.08.06-.02.21.3.29.55Zm22.6,8.06c.16.05.31.1.45.22,2.33,2.24,4.01,5.88,7.26,6.08.61.04,1.23.57,1.84,1.32l2.44-.02c-2.47-.82-4.7-3.37-5.6-6.6-.74,1.85-1.33.97-1.54-.48-.25-1.75-.85-2.39-1.85-3.02-.61-.39-1.24-.89-1.64-1.69l-1.52,3.74.17.44Zm43.28-9.91c.18-1.55.3-2.63.42-3.61h-1.32c.04.29.09.57.12.83.09.71.38,1.37.79,2.78Zm17.29-3.72l-3.63.03c.83.94,1.65,1.87,2.48,2.81l1.15-2.83Zm-23.25.34c-.05-.06-.1-.12-.14-.17l-7.36.05,3.63,9.65,3.87-9.52Zm-5.5,12.12c.06-.1.12-.2.18-.3l-4.15-11.02-3.35,8.25c.21.28.43.57.64.87-.4.14-.78.28-1.17.42l-.96,2.35,1.77,4.69c.75-.52,1.19-.82,1.62-1.12.17.16.34.32.51.47-.24.7-.39,1.79-.74,2-.24.14-.59-.15-1.07-.51l.97,2.57,9.28-.07-2.92-7.76c-.2-.28-.41-.58-.62-.86Zm19.06-10.74c.06-.23.11-.47.17-.7v-.04s-4.85,11.9-4.85,11.9l3.05,8.11,9.29-.07-7.07-18.78c-.2-.14-.39-.28-.59-.42Zm19.61,2.32c-.17-.32-.33-.69-.45-1.18,0-.03-.12.01-.16-.03-.93-.94-1.87-1.85-2.74-2.88l-2.54.02,3.63,9.65,2.27-5.59Zm3.6-2.9c.42.9.85,1.81,1.27,2.71l-1.14-3.03-.13.32Zm8.3.52c-.56.4-1.2.55-2.14.95-.02-.13-.17-.97-.32-1.82-.14.1-.29.2-.43.3-.06.84-.13,1.68-.18,2.41-.78-.43-1.54-.76-2.25-1.25l2.74,7.3,3.65-8.99c-.35.41-.69.82-1.08,1.1Zm-10.81-1.73l-3.01.02s.06.03.09.03c1.7.32,2.51.41,2.92-.06Zm-2.19,12.79l3.05,8.11,9.29-.06-5.18-13.77s-.08.09-.11.14c-.85-.8-1.69-1.6-2.58-2.44-.01.53-.03,1.01-.03,1.3-.48-.21-1-.32-1.5-.49l-2.93,7.22Zm-78.36-12.22l-7.57.05,3.63,9.65,3.94-9.7Zm28.83,4.14l2,5.32,3.94-9.7-3.08.02c-.11.1-.23.21-.34.31-.03-.1-.06-.21-.09-.3h-1.5c-.03,1.15-.14,2.3-.23,3.7-.35.12-.56.36-.7.66Zm-50.82-.96l-1.49,3.68c.71.91,1.36,2.07,2.43,1.63.02,0,.08.1.14.23.31-.68.58-1.34.62-1.99.02-.34.07-.63.11-.94-.6-.87-1.2-1.73-1.81-2.61Zm52.4,11.3l-5.05-13.44c-.06-.04-.12-.1-.18-.16l-4.77,11.75,3.03,8.05s.02.04.04.06l4.02-.03c-.08-.89-.14-1.78-.23-2.66-.06-.55-.36-1.03-.45-1.58-.3-1.9-.54-3.82-.81-5.72.95.53,1.9,1.05,2.84,1.6.07.04.09.3.19.66-.44.08-.84.15-1.14.2-.68,3.53,1.46,4.78,2.38,7.49h.99c-.41-2.4-.74-4.31-1.07-6.2.07,0,.14,0,.2-.02Zm318.2-20.12l-4.19-10.92c-.73-.19-1.4-1.24-1.68-2.61-.41-1.97-.72-4.29-2.62-3.32-.12.06-.39-.64-.95-1.6,1.13.12,1.79.19,2.45.26v-.04s-1.2-3.12-1.2-3.12l-9.27.06.63,1.64c2.01.06,4.03.12,6.02.18.4,1.47.88,3.21,1.35,4.93-1.1,1.4-3.34-1.19-3.56,2.77-.42-.43-.84-.85-1.26-1.27l4.98,12.99s.02.09.04.13h.27c-.22-.58-.44-1.16-.67-1.73-.17-.45,0-1.25.02-1.88.17-.03.34-.06.51-.09.38,1.23.63,2.71,1.13,3.7l8.02-.06Zm-331.14,16.6l-3.82-10.14-2.44,5.99c.9,1.02,1.76,1.99,2.62,2.88.39.4.94.73,1.36.61.66-.19,1.5.1,2.27.66Zm5.73-11.11l-7.57.05,3.63,9.65,3.94-9.7Zm-11.59.08l-7.57.05,3.63,9.65,3.94-9.7Zm21.15,20.75l-.45-1.19c-.2.29-.47.67-.83,1.2h1.28Zm-50.6-20.56h-1.3s.46,1.24.46,1.24c.26-.43.54-.84.84-1.24Zm164.96,7.76c-.29-.15-.57-.34-.84-.55l.49,1.31.02-.05.02.05.31-.76Zm1.75-4.31c-.45-.34-.89-.68-1.44-1.1.18,1.26.35,2.37.5,3.41l.94-2.31Zm11.44,16.21l-5.11-13.6c.02.45.02.91,0,1.38-.83-2.3-1.67-4.64-2.62-7.26l-2.62,6.45c.65.71,1.34,1.45,2.34,2.54-1.39.29-2.19.46-3.46.73.12-.5.23-.92.33-1.31l-.74,1.83c.8,1.35.9,2.18.27,3.19l2.3,6.11,9.32-.07Zm-11.59.08l-2.9-7.7c-.14-.06-.3-.1-.44-.18-1.21-.75-2.4-1.63-3.6-2.46-.08.21-.15.41-.23.62.32.95.65,1.9,1.04,3.06-2.21-.8-2.8-3.02-2.33-7.47,1.01,1.22,2.1,2.56,3.46,4.22-.07-1.43-.09-1.92-.13-2.63.27.35.51.66.77.99l-1.96-5.22v.11s-.46-1.22-.46-1.22c-.32-.44-.65-.87-.99-1.28.19.05.38.1.57.15l-.35-.92-2.9,7.13c1.43,1.7,1.63,2.97.52,5.32-.23-1.63-.46-3.26-.69-4.89l-1.76,4.33,3.05,8.11,9.32-.07Zm23.18-.16l-7.5-19.94-.02.05-.02-.05-3.62,8.91c.78,1.16,1.55,2.32,2.32,3.47.1-.14.21-.27.31-.41-.22-.85-.43-1.7-.87-3.49.97.56,1.95.77,2.02,1.25.12.92-.16,2.15-.51,2.97-.21.47-1.12.8-1.33.5-.79-1.12-1.45-2.49-2.15-3.79l-1,2.47,3.05,8.11,9.33-.07Zm209.75-36.21c.11-.34.22-.7.34-1.04,1.07.82,2.02,1.54,2.94,2.24.38-.7.65-1.21,1.02-1.89.89,1.16,1.7,2.23,2.85,3.73-1.23-.1-2.21-1.23-3.11-.97.46.38.92.76,1.38,1.14-.48.31-1.1,1.01-1.39.85-.4-.22-.71-.65-1.02-1.09-.2-.02-.57-.28-.81-.45-.58-.41-1.16-.86-1.73-1.3l3.55,9.24s.02.09.03.13l2.03-.02c.02-.17.04-.32.05-.49.22.18.41.32.61.48h.56c.72-3.65,1.38-7.01,2.05-10.43l-4.21-10.98-9.27.06,4.13,10.75Zm8.46-.82c-.5,2.36-.79,2.36-2.46-.48.8.16,1.61.32,2.46.48Zm-204.69,16.04s.05.04.08.05l.02-.06h-.04s-.06,0-.06,0Zm-48.34,21.24l-.93-2.48c-.45-.12-.91-.23-1.36-.35.02-.3.05-.59.07-.89.32.11.63.21.95.32l-2.72-7.22c-2.41.91-1.8-2.92-2.71-4.37.44-.01.81.08,1.15.21l-1.54-4.09c-.22-.18-.43-.34-.63-.51l-1.01,2.49c.8,1.8.84,2.78.1,2.97-.39.11-.77-.08-1.12-.47l-2.58,6.35,3.05,8.11,9.28-.06Zm-11.05-10.81c1.21-.58,2.03-.97,2.42-1.15.94,2.02,1.62,3.5,2.29,4.93-.29.37-.77.97-1.33,1.69-1-1.62-2.01-3.25-3.38-5.47Zm43.94-.69l.02.04,3.94-9.7h-.03s-2.8.02-2.8.02c-.06.03-.13.06-.19.09,0-.03-.01-.06-.02-.09l-4.56.03,3.63,9.65.02-.05Zm231.34,3.23l-.72-1.91c-.04.12-.07.22-.11.34.3.82.55,1.54.8,2.24,0-.22.02-.44.03-.66Zm-254.87-10.51c.55-.03,1.08-.35,1.62-.55.87-.32,1.52-.29,1.99.05l.7-1.72-7,.05c.39.23.74.51.94.97.57,1.29,1.1,1.23,1.75,1.2Zm6.31-1.28s.07.04.1.06l-.04-.11-.02.05-.02-.05-.02.05Zm-15.86,4.64c-.6-1.15-1.19-2.29-1.81-3.49,1.12-.15,1.91.58,2.38,2.11l1.67-4.12-7.58.05,3.63,9.65,1.71-4.2Zm21.5,3.99l.02.05,3.94-9.7h-.04s-7.53.05-7.53.05h-.04s3.63,9.65,3.63,9.65l.02-.05Zm-51.88-8.1l-.1-.26-.03.08c.04.06.09.11.13.17Zm-8.57,1.27c-.08.06-.14.06-.22.11l2.7,7.18,3.88-9.56c0-.05,0-.1-.01-.15l-2.22.02c.13.63.25,1.25.35,1.71-1.75.22-3.27-.11-4.48.69Zm28.39.4c0-.24,0-.49.01-.75.03.18.07.32.1.48l.73-1.8c-.45.45-.85.85-.88.78-.26-.52-.49-1.08-.72-1.67l-5.6.04,3.63,9.65,2.73-6.72Zm-.82,17.94l-7.5-19.94-4.84,11.9,3.05,8.11,9.29-.07Zm-9.56-20.83l-7.57.05,3.63,9.65,3.94-9.7Zm-86.41,21.5c-.18-.12-.36-.24-.53-.35,0,.12,0,.23,0,.36h.52Zm-43.68-14.27c-.65.56-1.33,1.06-2.02,1.58l.66,1.76,1.37-3.36s0,.01-.01.02Zm226.48,28l-1.87,5.53,9.32-.06,1.87-5.53h-.04s-9.25.07-9.25.07h-.04Zm-57.95.4l-1.87,5.53,9.32-.07,1.87-5.53h-.04s-9.24.06-9.24.06h-.04Zm21.31,5.37h1.95c-.46-.3-.96-.61-1.56-.99,1.25-.08,1.8-.12,2.38-.15-.25-.86-.44-1.53-.66-2.3,2.64.02,1.49,2.19,1.88,3.42l5.33-.04,1.87-5.53h-.04s-9.25.07-9.25.07h-.04s-1.87,5.53-1.87,5.53Zm-46.36.32l9.28-.06,1.87-5.54-9.29.07-1.87,5.53Zm-57.96.41l9.29-.07,1.87-5.53-9.29.06-1.87,5.53Zm20.88-.15l1.87-5.53-9.29.06-1.87,5.53,9.28-.07Zm104.36-.73l1.87-5.53-9.33.07-1.87,5.53,9.33-.06Zm-23.18.16l1.87-5.53h-.04s-9.25.06-9.25.06h-.04s-1.87,5.53-1.87,5.53l9.32-.07Zm96.45,22.54l2.07-6.1c-2.03-1.07-3.87-1.46-4.84-2.76-.91-1.23-.88-3.44-1.42-5.93,2.06,1.59,2.23,5.19,5.05,3.38.41,1.75.76,3.24,1.23,5.23l3.94-11.65c-.29.02-.58.05-.87.07-.03-.18-.05-.36-.08-.53.51-.44,1.03-.87,1.55-1.31l.15-.45-7.95.06c1.17.97,2.26,1.86,3.38,2.79-.98,1.5-2.17,2-3.41.56-.8-.93-1.38-2.15-.43-3.35h-.88s-2.76,8.15-2.76,8.15l5.26,11.83Zm63.42,24.94l9.27-.07,5.82-16.83c-.79.84-1.58,1.68-2.36,2.51-.07-.27-.13-.54-.2-.81.91-1.01,1.81-2.02,2.72-3.03-1.07-.92-2.13-1.83-3.19-2.75.08-.12.16-.25.24-.37l-4.95.03s-.01.09-.03.13l-7.32,21.18Zm4.35-3.68c1.25-.52,2.47-1.03,3.69-1.54-2.2,3.65-3.67,3.77-3.69,1.54Zm16.39-15.63c.17.74.47,1.04.96.7-.34-.21-.67-.44-.96-.7Zm8.85.59c.09.45.18.9.28,1.4.46,0,1.01.01,1.57.02-.02.41-.04.81-.06,1.22-.59.13-1.28.59-1.75.31-.29-.17-.52-.52-.74-.92l-2.08,6.02c.85-.24,1.6-.45,2.28-.64-.27-.15-.53-.29-.79-.45.29-.69.59-1.38,1-2.36.81,1.23,1.36,2.08,1.91,2.91-.07.32-.14.64-.21.96-.33-.18-.66-.37-1-.56-.62.77-1.23,1.65-1.83,1.85-.49.16-.96-.51-1.57-1.14l-3.43,9.93,2.33-.02c.6-.96,1.18-1.88,1.76-2.8-.07-.58-.17-1.31-.28-2.22,1.79-1.32,3.53-3.39,5.07-3.54,2.03-.2,3.03-2.28,4.07-5.05.31.18.59.35.85.51l2.85-8.25-9.29.07s-.01.09-.03.13l-.91,2.62Zm-12.95-2.66l-3.2.03c.81.74,1.62,1.48,2.42,2.23l.78-2.25Zm6.61.96c.25-.32.52-.67.78-1.01h-1.6c.25.32.52.61.76.93.02.03.04.05.06.08Zm-52.16-5.36c.22-.44.54-.99.99-1.71.01.02.02.05.03.07l4.94-14.62s-.01-.02-.02-.03c.08-.35.16-.69.23-1.04.05.01.09.03.14.05l.73-2.16-5.47.04c.31.5.63.99.96,1.52-1.37.73-1.82.73-2.25-1.51l-2.53.02-2.76,8.15,5,11.23Zm-209.83-21.15l9.29-.06,1.87-5.54-9.29.07-1.87,5.53Zm242.85,22.42l-1-2.24c-.59.03-1.17.07-1.72-.07-.47-.12-.86-.72-1.29-1.12-.02,0-.03.01-.04.02,0-.04-.02-.07-.03-.11-.49-.74-1.05-1.36-1.66-1.88l-1.84,5.44,3.23-.02c.08-.18.17-.37.28-.59.2.21.39.4.58.59l3.48-.03Zm-4.01-3.42c.85-.48,1.58-.72,2.16-.72l-2.45-5.5-1.06,3.14c.63.85,1.09,1.86,1.28,2.99.02.03.04.05.06.08,0,0,0,0,.01.01Zm-192.48-19.32l9.32-.06,1.87-5.53h-.04s-9.09.07-9.09.07h-.19s-1.87,5.53-1.87,5.53ZM28.15,116.35l.39,1.04.32-.79c-.2-.23-.4-.44-.6-.67-.04.15-.07.27-.11.41Zm4.17,11.08c-.05-.13-.08-.28-.11-.43-.02,0-.04,0-.05,0l.16.44Zm-2.35-6.24c.6.57.97,1.59,1.36,2.59l-.22.42.85,2.26c1.06-2.86,2.08-5.63,3.18-8.61-.54.01-.97.03-1.44.03.02-.12.03-.21.05-.32-.09-.08-.18-.15-.26-.19-.62-.31-1.26-.61-2.11-1.02l-1.67,4.11.27.71Zm9.79,5.14c-.84-1.48-1.25-2.19-1.98-3.48.27-.11.51-.23.75-.36-.08-.05-.17-.11-.26-.16.27-.52.53-1.14.8-1.71l-.29-.76c-.07.04-.13.06-.16.03-.21-.38-.42-.74-.63-1.1-.56.77-1.12,1.42-1.7,1.73-1.86,1.02-2.49,3.36-3.02,6.36.15.16.31.32.44.47,1.83-.31,3.71-.63,5.97-1.01.03,0,.05-.02.08-.02Zm132.64-22.83l-8.2-21.36-9.27.07,3.1,8.08c.67.67,1.28,1.27,2.02,2.01-.24-2.09-.42-3.73-.62-5.49,1.77-.35,2.77,1.48,3.44,3.36.27.76-.45,2.39-.76,3.78,1.4-.52,1.49,1.55,1.87,3.5.49-1.65.86-2.92,1.19-4.03,1.52,1.16,2.8,2.14,4.22,3.22-1.63.18-3.02.33-4.32.47.99,1.52,1.88,2.57,2.5,3.92.35.76.62,1.61.88,2.48l3.96-.03Zm-128.18,21.71c1.15-.31,2.32-.05,2.62-.79-.09-.39-.18-.77-.31-1.12-.2-.55-.47-1.23-.79-1.44-.46,1-.93,2.07-1.52,3.35Zm-2.57-5.71c.17.09.34.18.53.25-.31.24-.6.46-.88.68l1.34,3.56c.61-1.52,1.21-2.62,1.83-3.35-.79-1.11-1.22-2.59-1.61-4.13l-1.21,2.99Zm-2.07,2.49l-.07-.19c-.26.2-.52.4-.77.59.3-.15.58-.31.84-.4Zm10.53-1.85c-.71-.89-1.28-1.61-1.84-2.31-.58-.09-1.19-.19-1.85-.29-.1,1.95,1.25,3.06,1.24,5.18.77-1.13,1.68-1.5,2.44-2.49,0-.03,0-.06,0-.09Zm392.06,14.17c-.18-.06-.36-.12-.53-.18l.07.18h.46Zm-158.6-18.75l.02.05,2.66-6.55c-.18-.15-.37-.28-.56-.36l.08-.88c.3.08.59.16.89.24l.87-2.14h-.04s-7.58.05-7.58.05l3.63,9.65.02-.04Zm-100.91,32.5l1.87-5.54-9.29.07-1.87,5.53,9.29-.06Zm-59.69-36.41c-1.27,1.54-2.4.84-3.5.27l1.81,4.82,3.94-9.71-4.46.03c.3,1.99.17,4.52,2.2,4.59Zm149.02,3.98l.02.05,3.94-9.7-7.61.05,3.63,9.65.02-.05Zm169.44,17.9c.2-1.35.4-2.7.63-4.18,1.88-.33,3.99,1.66,5.29,4.91h1.56c.5-.5.93-.92,1.4-1.38-.02.56-.03,1-.04,1.36h.74s-1.12-2.97-1.12-2.97c-.67.59-1.35,1.19-2.02,1.78-.08-.36-.15-.71-.23-1.06.47-.47.95-.94,1.42-1.41-.24-.14-.48-.27-.71-.42-.08-.06-.14-.22-.18-.43-2.28-.26-4.56-.53-6.85-.8h-.9c.21.83.26,1.71.27,2.59l.75,1.99Zm-304.25-21.06c.3-.28.5-1.12.56-1.83l-.88,2.15c.1-.1.2-.21.32-.32Zm-6.61-2.51c-.03.11-.06.22-.09.33l2.39,6.36,2.35-5.79c-.9-1.13-1.79-2.27-2.68-3.4.08-.16.15-.32.23-.48l-3.53.02,1.04,2.77.28.19Zm129.83,5.76l.02.05,3.64-8.97c-.17-.2-.35-.44-.55-.71,0,0-.02,0-.02-.02l-2.61.02c.18.42.37.83.55,1.25-.15.16-.31.31-.46.47-.54-.44-.94-1.03-1.28-1.7l-2.94.02,3.63,9.65.02-.05Zm-11.61.13l.02-.05.02.04,3.83-9.42c-.03-.1-.06-.18-.1-.28l-2.31.02c-.19.2-.39.4-.59.6-.06-.23-.14-.41-.22-.59l-4.24.03h-.04s3.63,9.65,3.63,9.65Zm-79.98,3.65l3.05,8.11,9.29-.07-6.4-17.02s-.03.1-.04.15c-.59-.45-1.18-.88-1.77-1.33l-4.13,10.16Zm296.68,61.46c.13.26.25.51.38.77.35-.66.71-1.35,1.08-2.05-.06,0-.12.02-.18.02-.45.44-.86.85-1.28,1.26Zm-8.05,6.9s-.02,0-.02,0c-.48.9-.96,1.8-1.44,2.7.05.11.1.22.15.33.07.03.13.05.2.08.39-.93.77-1.85,1.16-2.78-.01-.11-.02-.21-.03-.32Zm3.7,6.84h.07s.05-.03.08-.05c.02-.1.05-.19.07-.29-.07.11-.14.23-.22.34Zm-4.31-8.35c.03-.14.06-.28.09-.42-.27-.11-.54-.19-.8-.26.15.56.41.7.7.68Zm-2.07.64c.3-.47.59-.94.89-1.42-.24-.03-.48-.07-.71-.04-.13.01-.26.08-.39.1.07.45.14.9.21,1.35Zm13.95-1.74c.06-.27.11-.53.17-.81-.03-.04-.08-.09-.1-.13-.24-.14-.43-.31-.55-.54-.09.45-.19.91-.29,1.36.26.04.49.07.77.11Zm-8.77,5.23l-.1.29s.05.06.08.08c0-.13.01-.25.02-.38Zm9.12-110.48h-.34c.06.08.13.17.2.29.04-.1.09-.18.14-.29Zm.96,94.64c.25-.42.5-.84.76-1.26h-.82c-.07.3-.14.58-.21.87.09.13.18.26.27.4Zm-20.61,12.86l-2.22,6.43c.12-.18.24-.35.37-.46,2.08-1.79,4.2-3.36,6.31-4.97.23-.95.45-1.91.67-2.86-.79.17-1.55.53-2.31.98-.16.45-.33.9-.49,1.38-1.46.14-2.2.2-2.32-.5Zm16.23,7.17c.02-.15.05-.3.07-.44-.11.16-.24.3-.36.44h.28Zm9.58-102.91c.05-.28.08-.58.15-.83.2-.7.5-1.26.84-1.79-.43.22-.85.43-1.27.65-.1.93-.2,1.81-.3,2.69,0,0,0,0,0,0,.19-.24.39-.48.58-.72Zm-2.37,1.04l.7,1.81c.42-.42.81-1.1,1.11-2.13h-.03s0,0,0,0c-.57.1-1.16.21-1.78.32Zm-.44-6.01c-.73-.25-1.44-.48-2.14-.7l1.39,3.63c.21-.61.41-1.22.62-1.74.04-.38.09-.8.13-1.18Zm-4.26-6.79h-.21s.03.07.03.07c.06-.02.12-.05.18-.07Zm1.69,107.45c.08-.43.15-.86.23-1.29-.33.43-.34.87-.23,1.29Zm-36.57,1.98c.53.22.95.39,1.4.58-.32.93-.57,1.64-.82,2.33,0,0,0,0,.02,0l2.82-8.15c-1.12,1.72-2.24,3.44-3.42,5.25Zm25.44-14.99c-.03-.05-.84.49-1.17.68-.23-.24-.46-.48-.69-.72-.19.57-.37,1.34-.6,1.52-.36.27-.73.5-1.1.75.16.16.3.25.48.45-.5.07-.99.15-1.48.22-.52.32-1.04.64-1.56.97v.04c.25.48.51.96.77,1.44-.48.47-1.04,1.38-1.43,1.32-.09-.02-.18-.07-.26-.12l-.43,1.25c.4.05.8.12,1.21-.06.27-.12.54-.34.85-.63.32-1.06.6-1.99.85-2.84,1.07,1,1.84,1.72,2.99,2.8-1.41.29-2.33.48-3.32.68-.24.66-.47,1.3-.69,1.92,1.8-.59,3.07-.57,4.17.15.51-2.31,1.03-4.63,1.62-7.3.27,1.62.82,3.27.75,4.71-.03.62-.09,1.22-.13,1.83.14.07.29.16.43.24l.33-.95c-.32-1.35-.38-2.75.26-4.32.05-.11.05-.25.03-.4-.15-.39-.38-.76-.76-1.06-.06-.05-.1-.45-.12-.87-.35-.58-.73-1.16-1.01-1.67Zm29.13-78.69l-.04-2.45c-.07.9-.14,1.84-.21,2.87.08-.15.17-.28.25-.42Zm-28.79,98.76s.02,0,.03,0c-.04.07-.07.12-.1.18h.72c.03-.57.07-1.14.1-1.67-.24.48-.49.98-.75,1.48Zm8.48-20.5c-.29.92-.57,1.83-.85,2.74.03.02.07.03.11.05.32-.83.66-1.69,1-2.56-.09-.08-.18-.15-.26-.24Zm7.43-58.34c.25.24.51.49.76.73.43-.69.83-1.44,1.18-2.3-.65.54-1.29,1.05-1.94,1.57Zm.82-3.43c-.27-.13-.58-.22-.91-.27-.25-.05-.48-.12-.68-.21-.2.54-.39,1.1-.54,1.68-.24.11-.46.2-.69.3.38.36.74.72,1.12,1.07.27-.32.54-.77.82-1.47.19-.48.52-.82.88-1.11Zm-4.25,2.12s-.05.03-.08.04c.02.43.03.86.05,1.28.76-.36,1.48.06,2.25-.54-.11-.13-.19-.24-.31-.38-.26.11-.72.32-1.19.54.02-.18.04-.36.06-.53-.25-.16-.52-.28-.78-.41Zm-12.77,55.86c-.34-.21-.67-.41-1.01-.62-.24.18-.48.36-.71.55-.04.03-.07.06-.11.09h1.82Zm16.52-53.2c-.26-.32-.52-.64-.79-.98-.74.62-1.48,1.26-2.19,2.02-.36.38-.47,1.93-.65,3.11l.07.18c.86-.97,1.73-1.89,2.57-2.94.34-.43.66-.91.99-1.39Zm-6.37-5.21c0,.39,0,.8,0,1.18-.1.05-.2.07-.3.1l.44,1.17.76-1.88c-.17-.44-.33-.94-.5-1.46-.15.28-.29.55-.41.88Zm.35,9.15l-.42-1.12c-.02.21-.04.4-.06.61.15.17.32.34.48.51Zm1.05-9.78l.8-1.97c-.57.12-1.09.58-1.54,1.26.25.23.49.47.74.71Zm-7.41,5.18s-.03.03-.04.05c0,0,0,0,0,0h.03s0-.06,0-.06Zm-1.17,2.69c.38.29.76.58,1.13.86-.08.21-.16.42-.23.64.55-.53,1.12-1.08,1.78-1.72.03-.15.05-.28.08-.44.03.11.05.19.07.29.13-.13.26-.25.4-.39-.87-.78-1.48-1.33-2.09-1.88-.03,0-.07,0-.11,0-.36.81-.72,1.61-1.07,2.4.01.08.02.15.04.23Zm2.55,42.74c.11-.2.22-.43.32-.67-.09-.33-.14-.53-.2-.59-.2-.17-.43-.25-.64-.36.38.07.77.12,1.15.18.18-.46.36-.91.58-1.25.07-.11.13-.19.2-.26-.15-.24-.25-.57-.32-.99-.47.61-.93,1.21-1.4,1.81-.07-.94-.14-1.89-.21-2.84-.34-.01-.67-.03-.98-.15-.67-.25-1.22-.98-1.82-1.49-.12.31-.25.61-.37.92,1.06,1.35,2.13,2.7,3.19,4.06-.31,0-.64.05-.93-.03-1.15-.3-2.09-1.7-3.26-2.17l2.24,5.03c.81-.4,1.62-.8,2.46-1.21Zm4.74-9.06s.09-.05.14-.08c0-.02-.01-.06-.02-.09-.04.06-.08.1-.12.17Zm-10.01,9.41l-.71-1.6-.29.86c.37.13.71.35,1,.74Zm.69,1.9s.09-.04.13-.06l-.28-.64c.06.21.11.46.16.7Zm1.89-45.87c.08-.62.16-1.19.25-1.71-.17,0-.32.01-.52.02.1.62.18,1.15.26,1.69Zm8.7,7.32c.11-.35.21-.65.31-.96l-.46-1.23c-.45.19-.92.1-1.41-.24-.07-.05-.15-.06-.22-.1-.12.91-.26,1.75-.41,2.49.02.02.03.04.04.06h2.15Zm-6.48-11.42c-.32.71-.61,1.38-.91,2.04,0,.07,0,.16,0,.23.37-.52.74-1.03,1.1-1.54-.06-.23-.13-.45-.19-.73Zm-6.35.27l.58-1.42c-.35-.23-.71-.61-1.04-1.09-.01.4-.03.78-.04,1.17l.51,1.34Zm8.81,11.17c.12-.61.24-1.25.38-1.96-.97.83-2.05,1.19-2.27,1.97h1.89Zm-12.54,69.19h1.02c.32-.79.65-1.56.97-2.34.02-.2.04-.4.06-.6-.11-.08-.23-.16-.34-.24-.4.75-.81,1.5-1.21,2.25-.09.19-.19.38-.28.57,0-.02,0-.03,0-.04-.07.13-.14.26-.21.39Zm-32.29-84.13c.75.52,1.5,1.03,2.24,1.56l2.95-7.26-7.57.05,2.05,5.46c.11.06.23.11.33.18Zm7.25-4.8l-3.19,7.84c.28.25.59.45.86.72,1.07,1.07,1.82,2.64,2.62,4.07.51.92,1.07,1.58,1.83,1.9.06-.14.1-.28.17-.42.34-.71.77-1.6,1.25-1.75.33-.11.83,0,1.2.22l-.83-2.2s-.08-.04-.13-.06c-.05.33-.11.58-.17.59-.6.03-1.21-.31-1.82-.51.02-.31.05-.63.08-.94-.84-.39-1.67-.78-2.47-1.26-.57-.34-.72-1.68-1.2-2.9,1.78,1.12,3.37,2.13,4.98,3.14l-3.18-8.45Zm-5.59,7.81c-.35-.55-.78-1.03-1.32-1.42l.91,2.42.41-1Zm1.1,3.24l-.34.85.82,2.18c.09-.01.17-.02.26-.04-.22-.75-.56-1.49-.64-2.27-.03-.25-.07-.48-.1-.72Zm8.29-7.09l1.79,4.77,3.94-9.7-4.05.03c-.28,1.39-.56,2.78-.89,4.15-.08.33-.54.75-.79.76Zm37.97-27.6c.38.13.74.26,1.09.38.05.26.1.51.14.77-.3.25-.61.49-.91.74.65.04,1.3.05,1.87.4.01-.14.03-.26.04-.4.31.62.66,1.11,1.02,1.47.48-.54.99-1,1.48-1.38.36-.27.73-.45,1.1-.64,0-.19-.03-.44-.04-.65-1.19-.86-2.48-1.52-3.42-2.92l-3.34.03c.37.67.71,1.29,1.09,1.98-.05.07-.09.13-.13.21Zm-12.14,15.81c.27.38.55.78.86,1.23-.5.19-.84.33-1.3.51.25.69.44,1.23.63,1.75h1.97c-.13-.32-.26-.64-.4-.94.13-.15.26-.29.39-.44.44.46.89.9,1.33,1.36h.42s-3.38-8.81-3.38-8.81c.17,1.77,0,3.6-.54,5.34Zm-5,70.52c-.18.1-.36.19-.54.29l.25.57.29-.86Zm14.66,25.52l.26-.74c-.08.04-.15.05-.22.07l-.12.29c.03.12.06.26.09.38Zm-30.27-47.77l1.88-5.53h-.37c-1.37,1.85-2.68,3.61-4.13,5.55l2.63-.02Zm17.1,7.44c.4.89.23,2.06,0,3.26.24.05.48.09.72.14.29.06.57.2.85.31-.01.36-.03.71-.05,1.07-.58-.13-1.16-.25-1.74-.39-.14.81-.22,1.61-.08,2.29-1.74.61-3.22,1.13-4.71,1.65,0,.03,0,.05,0,.08l.37.84c.28,0,.63-.01,1.21-.02-.37.4-.62.68-.82.91l.89,1.99c.42-.26.93-.38,1.58-.37-.34.62-.66,1.21-.96,1.76l.1.23c.46.11.9.22,1.34.33,0,.02,0,.04,0,.06l1.99-5.89c-.39-.23-.79-.47-1.18-.7.43.09.92.06,1.41.02l.67-1.98c-.1.11-.19.19-.3.32.62-2.29.95-3.49,1.22-4.48.18,0,.32,0,.49-.02l1.48-4.36c-.78.99-1.57,1.97-2.35,2.96-.07-.12-.15-.24-.22-.37.64-1.3,1.3-2.64,2-4.05l-2.34.02c-.4,2.83-1,4.29-1.58,4.35Zm-28.21-1.99c.86.32,1.72.65,2.59.97-1.19,1.11-2.1,1.7-3.07,1.97-.2.05-.38.08-.54.09l-1,2.97,4.81,10.81c.05-.07.1-.12.15-.2.29-.46.65-.73,1.03-.94l2.96-8.77c-.16.07-.31.14-.51.21-.31-.67-.52-1.35-.89-1.88-.02-.03-.05-.05-.07-.08-.64.42-.98-.56-1.39-1.23-.74,1.16-1.48,2.32-2.4,3.78-.6-1.51-1.04-2.59-1.62-4.05,1.56.07,2.77.13,3.97.18-.2-.31-.41-.53-.69-.47,1.44-3.92,1.94-3.21,2.35-1.95.17-1.29-.73-2.44-1.9-3.6h-2.49c-.26.31-.54.59-.83.83l-.46,1.35Zm15.47,23.57c.49.2.98.39,1.5.59-.14.88-.25,1.56-.39,2.43-.42-.11-.78-.2-1.09-.29.42,2.3.73,2.17,1.73.13,1.08-2.19,2.04-2.53,3.25-1.8-.5,2.62-1.63,5.98-2.6,5.22-1.21-.95-2.1.86-3.15.87.23.42.46.85.64,1.16-.85,1.29-1.6,2.43-2.35,3.56-.42-.77-.77-1.4-.99-1.79.95-2.5,1.84-4.82,2.88-7.54-.09-.03-.2-.07-.28-.09l-5.92,17.13,8.51-.06c.19-.53.36-1.13.48-1.91.1-.66,1-1.26,1.6-1.89l.61-1.77c-1.88-1.15-3.67,3.3-5.66,4.59,2.58-5.16,3.57-6.37,6.53-7.1l.84-2.44s-.04,0-.05,0c-.93-.32-1.77-1.03-3.14-1.9,1.75-1.29,3.11-2.27,4.45-3.27.15.06.3.12.45.19l2.01-5.82-4.39.03c0,.07-.02.14-.02.21-1.27.71-2.32,1.39-3.38,1.83-.46.2-.92-.12-1.38-.21.3-.58.58-1.31.9-1.8h-1.02c-.01.05-.02.1-.03.14l-.55,1.59Zm9.48-25.44c-.25.33-.52.63-.72,1.03-.9,1.78-.78,3.15-.1,3.79.44-1.2.9-2.41,1.35-3.63-.18-.39-.35-.78-.53-1.19Zm-6.37-31.11c.06.7.07,1.26.02,1.71.17.28.34.6.5,1.01-.25-.08-.46-.14-.69-.21-.16.4-.43.69-.82.9.34.17.68.34,1.01.51.28-.73.54-1.28.8-1.72l-.83-2.2Zm.86-4.69s0-.02,0-.03c.05-.11.1-.21.14-.32l.06-.15c-.18-.38-.35-.72-.57-1.18.5-.21.9-.39,1.27-.54l1.23-3.03c-.48-.05-.96-.1-1.42-.15-.18-1.15-.34-2.17-.5-3.19.12-.23.24-.45.36-.68l-4.37.03,3.63,9.65.16-.4Zm-2.99,6.61c-.09.26-.19.52-.28.78.19.1.38.19.58.29.08-.31.16-.61.24-.91-.17-.06-.35-.11-.53-.16Zm14.31,12.95c.19-.81.39-1.62.58-2.43-.21.08-.37.26-.42.68-.05.58-.11,1.17-.17,1.75Zm1.13-4.7s-.05-.06-.07-.09h-1.92c-.26.08-.41.11-.48.21-.63.83-1.1,2.17-1.86,2.42-.61.2-1.53-.92-2.33-1.4-.03-.02-.07,0-.1,0l.53,1.42c.23.28.47.56.7.83-.02.15-.05.29-.07.43-.07-.03-.13-.07-.19-.1l.31.82c1.82-1.37,3.59-3.13,5.43-4.39.01-.05.02-.1.04-.15Zm-2.98,41.36c.53-2.03.91-3.47,1.24-4.74.87-.42,1.73-.85,2.59-1.27-.66-.39-1.3-.77-1.9-1.12l-2.41,7.13h.48Zm26.47-83.99l.1.25c.04-.15.09-.32.13-.46-.07.06-.13.11-.2.17,0,.01-.02.03-.02.04Zm-3.89,21.12c0-.17,0-.34,0-.51-.06,0-.12.04-.18.05l.17.46Zm-14.94-18.42c.03.19.06.39.09.58.41-.34.75-.62,1.04-.87-.28-.28-.53-.75-.74-1.48-.03.03-.06.05-.09.07-.1.55-.2,1.12-.3,1.69Zm24.48,9.04c-.04-.21-.08-.42-.12-.61-.02.34-.04.66-.07,1.02.06-.14.13-.27.19-.41Zm-2.47-3.45c.22,0,.45.01.68.02.07-.37.13-.74.2-1.1-.5-.16-.99-.33-1.41-.47.47-1.86.97-3.79,1.34-5.25-1.02.28-2.03.56-3.08.85l2.29,5.95Zm-2.39-.17c-.07.04-.15.08-.22.12.09,0,.18,0,.27,0l-.05-.12Zm-5.18-8.41c-.45.29-.89.58-1.33.88.21.38.43.8.67,1.23.34-.45.68-.89,1-1.38-.11-.24-.23-.48-.34-.72Zm2.76-3.93l.57,1.48c.09-.26.18-.52.26-.79-.21-.48-.36-.91-.29-1.12.22-.6.54-1.1.88-1.59,0-.05.02-.08.02-.13h-.87c.17.06.33.08.52.17-.39.71-.74,1.34-1.08,1.98Zm-.71,4.19l-.37-.95c-.2.72-.4,1.45-.6,2.16.32-.4.65-.81.97-1.21Zm-42.59,68.76l-.14.41c.08-.09.16-.17.25-.25-.04-.05-.07-.11-.1-.16Zm30.37-23.47c-.27-.64-.53-1.28-.89-2.15-.22,1.02-.38,1.91-.4,2.63.19-.07.36-.13.55-.2-.07.52-.18,1.03-.28,1.54.19.3.47.52.9.59,0,0,.02.01.03.02.22.04.45.08.67.13h.98c.97-1.53,1.95-3.06,2.93-4.59-.36,2.14-.91,3.67-1.67,4.58l2.73-.02c.04-.28.07-.56.1-.85-.26-.42-.59-.96-.99-1.63.2-.52.37-1.07.55-1.61l-.48-1.26-3.84.03c-.35.92-.8,1.87-.9,2.79Zm-12.01,14.6c-.47-1.8-.79-3.18-.11-5.51h-.27c-.86,1.3-1.73,2.32-2.61,3.12l-.82,2.42,3.81-.03Zm-20.32,7.84l.46-1.36-.11-.17c.07-.06.15-.12.22-.18l.94-2.79h-.82c-.6,1.11-1.24,2.19-1.93,3.34.32.31.74.7,1.23,1.16Zm19.85-46.3c.23.37.47.75.7,1.13-.17-.61-.3-1.24-.36-1.86.63-.79,1.15-1.44,1.75-2.19.37.36.79.77,1.48,1.44-.23.25-.39.49-.54.72.07.05.13.09.19.12,0,.15,0,.28,0,.43-.21.07-.42.15-.61.22-.68,1.65.27,2.85.95,4.11l2.89-7.11-5.66.04c-.42.6-.84,1.19-1.25,1.78l.45,1.19Zm-21.25,46.89c.23.52.49,1.04.68,1.53l.55-1.62c-.45.03-.8.05-1.23.09Zm22.46-43.69c-.02-.24-.03-.48-.04-.71,0-.02-.02-.04-.03-.06l-.13.18s-.03-.02-.04-.03l.23.62Zm-1.55-6.17h-.77s.59,1.57.59,1.57c.06-.52.12-1.05.18-1.57Zm-4.79.03l-3.16.02c.64,1,1.29,2,1.93,3l1.23-3.02Zm1.64,1.92c.29,0,.56.02.81.02l-.39-1.05-.41,1.02ZM21.97,89.94c.7-1.01,1.48-1.86,2.06-3.12.27-.59.16-1.94.22-3.1-.95,2.15-1.7,3.84-2.45,5.53.05.23.11.46.16.69Zm4.3,64.36c.06.28.12.57.18.86,1.24-.14,2.46-.27,3.61-.4l.82-2.42h-1.92c-.17.2-.35.36-.54.51.1.19.2.39.3.56-.22-.09-.45-.18-.67-.27-.59.4-1.21.72-1.79,1.16Zm-3.64-1.9h-1.04s-.42,1.24-.42,1.24c.5-.42.99-.84,1.46-1.24Zm253.97-1.77l-.03.08c1.05.81,2.09,1.62,3.14,2.43-.11.25-.21.49-.32.73-1.08-.65-2.15-1.31-3.23-1.96l-2.33,6.88,5.27,11.83.02-.05.02.05,6.78-20.04-9.33.07Zm-11.07,20.98l-2.03-4.55c-.04.08-.07.17-.11.25-.91-.75-1.82-2.12-2.73-2.14-.19,0-.34-.06-.52-.08l-2.23,6.58,7.61-.05Zm11.59-.08l-4.29-9.64v.05s-.04-.04-.04-.04l-3.28,9.69,7.61-.05ZM13.39,158.23l.02.94c.96.36,1.95.74,3.01-.16-1.01-.26-2.02-.52-3.03-.78Zm14.48,3.02l1.57-4.64c-.7-.75-1.44-.8-1.86.16-.41.95-.55,2.39-.74,4.08.34.14.68.28,1.02.4Zm-1.68-8.87h-1.1c-.09.16-.17.32-.27.47-.98,1.4-2,2.69-2.91,4.28-.01.02-.02.06-.04.08.37.22.75.46,1.14.69,1.06-1.87,2.12-3.72,3.18-5.53h0Zm-7.94,3.13c-.02-.17-.05-.35-.08-.55.08.04.15.09.22.13l.9-2.66h-.67c-.48.18-.95.36-1.43.54-.05-.18-.1-.35-.15-.52h-1.88c-.29.31-.57.6-.86.9.75.23,1.5.46,2.25.69-.05.4-.11.81-.17,1.21-1.01.11-2.03.23-3.04.35l.04,2.15c1.47-.33,2.96-.66,4.46-1l.42-1.23Zm200.92,16.43l-4.29-9.64-.02.05-.02-.05-3.28,9.69,7.61-.05Zm-.52-20.9l-2.76,8.15,3.64,8.18c.1-.2.19-.4.29-.61.75.55,1.5,1.09,2.26,1.64l5.89-17.43-9.32.06Zm42.15,12.15c.84,1.11,1.65,2.2,2.45,3.27l-2-4.49-.02.05-.02-.05-.41,1.22Zm-39.07,6.26c-.62-.44-1.24-.87-1.85-1.31l1.28,2.89v-.05s.04.05.04.05l.53-1.57Zm-198.17-7.26c.47.11.91.02,1.27-.55.13-.93.04-1.62-.2-2.08-.23.12-.46.24-.69.36-.13.75-.26,1.51-.39,2.27Zm183.99,9.83l-4.29-9.64-3.28,9.69,7.57-.05Zm34.81-.24l-4.29-9.64-.02.05-.02-.05-3.28,9.7,7.61-.05Zm31.98-21.12l-9.32.06-2.76,8.15,5.27,11.83.02-.05.02.05,6.78-20.04Zm-49.14,21.24c-.55-.39-1.1-.78-1.65-1.17l-.4,1.18h2.05Zm5.57-.05l-4.29-9.64-.02.05-.02-.04-2.54,7.51c.61.44,1.22.88,1.83,1.32-.12.28-.23.56-.34.85l5.38-.04Zm-23.71-20.73l-2.76,8.15,5.26,11.83,1.11-3.28v.11s5.71-16.87,5.71-16.87l-9.33.07Zm42.6,10.93v.05s-.04-.05-.04-.05l-3.28,9.7h.04s7.54-.05,7.54-.05h.04s-4.29-9.64-4.29-9.64Zm47.87-11.56l-9.32.07-2.76,8.15,5.67,12.73h.99s-.08-4.64-.08-4.64l5.51-16.3Zm-101.75,21.27l.03-.02-4.13-9.29-3.28,9.7,7.57-.05-.09-.2s-.07-.09-.1-.14Zm-30.57.55l7.58-.05-4.29-9.65-3.28,9.7Zm32.36-8.55c-.91.12-1.81.24-2.73.36l3.14,7.06,6.78-20.04-9.28.06-2.76,8.15,1.68,3.76c.85-1,1.86-1.34,3.05-.32.04.32.08.65.12.97Zm145.54-.77c-.43.09-.89.18-1.34.27l-2.65,7.84,7.57-.06-3.58-8.05Zm30.87,7.6s.03.06.04.1c-.04.06-.08.11-.12.16l7.56-.05-4.29-9.65-3.19,9.43Zm-357.23,2.75h.71c-.11-.12-.22-.24-.33-.36-.13.12-.26.25-.38.36Zm279.29-11.62l-3.28,9.7,7.57-.06-4.29-9.64Zm-282.44,7.13v.44s.26-.74.26-.74c-.09.1-.17.21-.26.31Zm22.82-4.19c.17.42.35.84.52,1.26-.52.99-1.05,1.99-1.57,2.99.38.41.77.8,1.08,1.26l.35-1.03c-.22-.44-.45-.89-.68-1.33.39-.06.79-.12,1.19-.18l2.85-8.43c-.45.11-.81.21-1.17.29.79-1.39,1.52-3.5,2.36-3.82l.07-.21c-1.68-.95-2.18-2.22-1.55-3.18h-.97c.02.12.05.21.07.33-.32-.11-.62-.21-.93-.31h-.72c-.4.71-.8,1.43-1.24,2.23.02-.84.07-1.56.14-2.21l-3,.02-2.76,8.15,2.24,5.03c.49.45,1.24.76,1.79,1.17.05.3.07.62.11.92.69-.79,1.4-1.5,1.83-2.94Zm-3.47-9.82c.17-.32.34-.64.51-.97,1.5,1.33,3,2.65,4.5,3.98-.13.22-.25.44-.38.66-1.55-1.22-3.09-2.45-4.64-3.67Zm-1.35,6.57c0-.27,0-.53.01-.8,1.21-.29,2.42-.58,3.63-.88.07.25.14.51.21.76-.65,1.04-1.31,2.08-1.79,2.85-.81-.76-1.43-1.35-2.06-1.94Zm4.07,10.27c-.04.09-.07.18-.11.27l.16.35.21-.61c-.08,0-.16,0-.25-.02Zm-15.81-11.88c-.23-.05-.46-.09-.69-.15l-.31.91.19.44c.36.07.7.13,1.06.19-.15-.39-.22-.87-.25-1.39Zm.81.87c-.05.19-.1.39-.16.59.4.07.81.15,1.2.22.35.06.72.25,1.09.41-.07-.52-.14-1.04-.21-1.56-.08,0-.16.03-.24.02-.49-.09-.98-.21-1.47-.33-.07.22-.14.44-.21.65Zm-7.17.44s-.02-.01-.03-.02l.02,1.4c.25.12.5.24.75.34.02-.13.05-.25.07-.38-.27-.45-.53-.87-.81-1.34Zm21.93,10.53c.07,0,.13,0,.2,0-.13-.16-.26-.29-.39-.43l.19.43Zm.2,0s.02.02.03.04h.02s0-.02.01-.04h-.06Zm-3.34-1.6c-.51.24-.99.75-1.41,1.56.67,0,1.33.01,1.98.01.01-.08.03-.14.04-.22l-.61-1.35Zm-9.27-.42l-.07.09.73,1.65c.16-.29.32-.54.48-.8-.38-.32-.76-.64-1.14-.95Zm59.87,0c-.76-.38-1.55-.77-2.37-1.17l1.57,3.53.8-2.36Zm74.03-6.93l-1.67,4.92c1.75.6,3.16,1.09,4.55,1.57l-2.89-6.49Zm-42.56-10.93l-2.76,8.15,5.27,11.82,6.78-20.04-9.28.06Zm11.59-.08l-2.76,8.15,4.39,9.86c.47.22.92.46,1.26.83l4.95-14.64c-1.08-.13-2.21-.27-3.42-.41,1.11-1.9,2.53-1.97,3.68-.35l1.19-3.5-9.29.07Zm11.59-.08l-2.76,8.15,5.26,11.83,6.78-20.04-9.28.07Zm-81.14.57l-2.33,6.89c.63.41,1.25.82,1.87,1.23-.12.28-.25.56-.38.84-.59-.41-1.19-.82-1.78-1.23l-.1.29c.31.7.62,1.4.89,2.14,0,0-.02.03-.02.04l.85,1.9c.57.06,1.15.12,1.75.19.05-.14.09-.28.15-.43.05.17.09.3.13.46.29.03.56.06.86.09-.24.29-.44.56-.6.83.24.84.48,1.67.71,2.47,0,0,0,0,.01,0,.54.28,1.07.56,1.63.86l1.27-3.75c-.07-.08-.14-.16-.21-.24.09.03.17.06.26.09l2.47-7.31c-.07,0-.14-.02-.21-.03.06-.36.13-.71.19-1.07.11.06.23.08.35.11l1.51-4.45-9.29.07Zm46.36-.32l-2.76,8.15,5.26,11.83,5.79-17.13s-.04,0-.06,0c-.58-.15-1.18-.64-1.68-1.21-.45-.51-.86-1.09-1.27-1.68l-5.3.04Zm-23.18.16l-2.51,7.43c.69.38,1.38.76,2.08,1.13-.57.45-1.18.69-1.8.75l2.27,5.11c1.4.15,2.8.3,4.2.46l5.05-14.94-9.29.06Zm-11.59.08l-1.46,4.32c.95-.12,1.84.04,2.44,1.7.16.44-.15,1.11-.24,1.68-.09,0-.18-.01-.27-.02-.1-.63-.19-1.26-.25-1.67-.75-.1-1.46-.19-2.15-.28l-.82,2.41,5.27,11.83,3.97-11.74c-1.05-.82-2.04-2.11-2.88-3.88,1.23.67,2.39,1.31,3.54,1.93l2.15-6.36-9.29.07Zm23.18-.16l-2.76,8.15.36.81c1.38.64,2.75,1.27,4.4,2.03-1.16.72-2.31.83-3.28.49l3.78,8.5,6.78-20.04-9.29.07Zm18.65-.13c.33.59.62,1.26.93,1.75.3-.11.56-.2.8-.28l.5-1.48-2.23.02Zm-82.42,21.47c-.13-.11-.26-.21-.39-.32-.03.11-.07.22-.1.33h.49Zm17.89-.13l-1.93-4.33c.03,1.03.06,2.14.09,3.25-1.62.35-2.5.62-2.92,1.12l4.75-.04Zm-6.44.05c-.23-.45-.46-.9-.68-1.34l-.45,1.34h1.13Zm52.81-.37l-4.29-9.64-1.97,5.83c.35.72.71,1.49,1.17,2.45-.58-.29-1.15-.57-1.71-.85l-.77,2.27h.86c.07-.14.13-.28.2-.42.2.14.4.27.61.41l5.9-.04Zm66.76-21.36l-6.76.05c.17.08.33.15.51.24-.54.87-.87,1.4-1.03,1.65.66,1.01,1.2,1.82,1.73,2.64-.17.15-.34.3-.51.46-.63-1.76-2.76-2.12-3.65-3.77l-2.35,6.95,4.49,10.09c.42.16.81.36,1.16.6l2.89-8.53c-.72-.59-1.45-1.17-2.17-1.76.2-.33.39-.65.59-.98.64.58,1.28,1.16,1.92,1.75l3.17-9.39Zm-118.16.82c.51.72,1.01,1.43,1.51,2.15l.48-1.43c-.14-.2-.28-.46-.42-.73h-1.57Zm.84,11.46c-.27,1.14-.54,2.3-.81,3.44.73-.11,1.46-.22,2.2-.33l-1.39-3.11Zm-1.23,3.51s-.06-.09-.09-.13l-.05.15s.09-.01.14-.02Zm8.87.78l3.18-9.41-1.51-1.04c.1-.23.2-.47.31-.7.49.32.98.64,1.47.96l1.91-5.64-4.53.03c-.44.97-.88,1.94-1.3,2.87.31.27.63.54.95.81-.57,1.18-.95,1.98-1.51,3.13-.16-.61-.31-1.15-.46-1.71-.52,1.14-1.03,2.28-1.55,3.42-.21-2.1.13-4.15.89-5.9-.05-.17-.09-.36-.14-.53.12-.16.23-.31.35-.47l.21.18c.35-.65.76-1.27,1.23-1.8l-3.43.03-2.76,8.15,3.43,7.7c.37-.23.64-.4.85-.53.33.81.64,1.56.81,1.98.69-.65,1.12-1.27,1.6-1.54Zm112.47,4.32l-1.32-2.97c-.07.23-.13.46-.2.69-1.43-.19-2.86-.33-4.28-.62-.13-.03-.2-.5-.36-1.22l-1.41,4.17,7.57-.05Zm78.38-21.45l-9.32.06-2.76,8.15,5.26,11.83.02-.05.02.05,2.46-7.26c-.62.22-1.24.43-1.81.29-.51-.12-.84-1.37-1.49-2.54,1.59.39,2.68.66,3.75.93l2.18-6.45c-.67-.67-1.29-1.62-1.82-2.89.79.36,1.7.45,2.59.62l.93-2.74Zm-90.66,21.53c-.52-.9-1.05-1.81-1.69-2.91.35-.07.69-.11,1.02-.13l-2.94-6.61-3.28,9.7,6.89-.05Zm-22.5.16l-4.29-9.64-3.28,9.69,7.57-.05Zm10.69-.07c.23-.21.47-.36.71-.42l-4.1-9.23-3.28,9.7,6.68-.04Zm14.42-1.21l.09.21.05-.14s-.09-.05-.14-.07Zm32.85.88l-4.29-9.64-3.28,9.7,7.57-.05Zm-.48-20.9l-2.76,8.15,5.26,11.83,6.78-20.04-9.29.07Zm-23.18.16l-2.76,8.15,5.26,11.82,6.78-20.04-9.29.06Zm20.88-.15l-9.29.07-.25.73c.71.8,1.46,1.63,2.37,2.64-1.49.14-2.4-.27-2.86-1.2l-2.02,5.97,5.26,11.83,6.78-20.04Zm-101.53,21.61l-1.29-2.9c-.9-.61-1.55-1.37-1.24-2.79l-1.76-3.96-1.06,3.14c2.45.46.04,2.89.36,4.36-.86-.11-1.34-.37-1.6-.71l-.98,2.9,7.57-.05Zm-15.56.11c-.06-.11-.1-.25-.18-.33-1.63-1.73-1.85-2.89.13-3.99-.52-.61-1.01-1.19-1.5-1.75l-1.85,5.47c.48.22.94.43,1.38.63h2.01Zm-5.28-1.85c-.12.07-.22.13-.35.2.09.04.16.07.24.11l.11-.31Zm55.61,1.49l-4.29-9.64-3.28,9.7,7.57-.05Zm-46.37.32l-4.29-9.64-.8,2.34c1.8,1.01,2.51,2.31,2.08,3.75-.47,1.54-.51,2.98.7,3.4.1.03.18.11.27.17l2.04-.02Zm-13.24.09c-.37-.67-.62-1.42-.71-2.27.6.33,1.18.64,1.79.97l-2.96-6.64c-.18-.14-.37-.27-.59-.36.06-.18.12-.36.18-.54l-.36-.8-1.38,4.09c.5-.05,1-.1,1.46-.16.23,1.52.54,3.49.85,5.52-.82-.33-1.68-1.05-2.32-.85-.57.18-1.08.19-1.56.12l-.33.97,5.92-.04Zm-8.86-2.96l.94,2.11.33-.97c-.43-.33-.85-.73-1.27-1.14Zm56.88,2.62l-4.29-9.64-3.28,9.7,7.57-.05Zm-5.66-2.99c3.09-.49,4.22.39,4.09,2.61-1.2-.77-2.4-1.53-4.09-2.61Zm279.79,25.55l9.27-.06,7.37-21.31-9.29.06s-.02.09-.03.13l-7.32,21.17Zm-47.17-31.99c.69.76,1.4,1.5,2.06,2.29.52.62.41,1.99.59,3.01-.23.08-.46.17-.7.25-.48-.42-1.02-.76-1.42-1.26-.47-.59-.91-1.21-1.35-1.83l-1.83,5.42,7.57-.05-4.29-9.65-.62,1.83Zm-286.27,19.7l.53-1.52c-.17-.36-.33-.71-.51-1.06-.35.26-.71.52-1.06.78.34.61.69,1.2,1.03,1.8Zm-30.17-6.43s0,.04-.01.06l.03,1.79c.22.4.42,1.05.64,1.64.19.05.38.09.57.14.36-1.18.7-2.32,1.09-3.64l-2.32.02Zm31.14-.22c.35.26.71.5,1.07.75l.26-.76h-1.33Zm-18.08,2.48c.39.2.8.4,1.21.61-.11-.81-.19-1.39-.22-1.6-.34.3-.67.64-.99,1Zm6.2-1.3c.33.25.65.51.98.76l.64-1.86-2.92.02c-.63,1.09-.72,2.3-.24,3.77.55-.95.96-1.68,1.54-2.68Zm-7.97,5.76c.31.3.61.62.92.95.09-.15.19-.3.3-.44-.43-.11-.84-.26-1.22-.5Zm7.22-.01c-.44-.33-.88-.72-1.33-1.03.22.57.63,1.16,1.1,1.69l.23-.66Zm-13.29-4.81s-.07.03-.1.05c0-.05,0-.1-.01-.15-.17-.14-.35-.29-.52-.44-.23.91-.46,1.8-.69,2.69,1.05.05,2.1-.07,3.14-.6-.56-.48-1.18-1.01-1.81-1.55Zm7.51,2.24c-.27-.16-.54-.33-.81-.49-.43.58-.86,1.19-1.28,1.82.6-.21,1.22-.43,1.8-.63.09-.23.19-.46.28-.7Zm24.61,14.81s.02.05.03.07l1.12-3.25c-.82-.65-1.47-1.61-1.81-3.2.39-.35.82-.75,1.6-1.45-1.25-.12-2.1-.02-2.87-.31-.88-.33-1.94-.74-2.47-1.53-.33-.51-.63-1.05-.92-1.6l-.52,1.5c.52,1.28.96,2.62,1.43,3.93-.88-.32-1.5-1.02-1.93-1.86-.04-.09-.08-.16-.13-.24l-1.53,4.44c2.45.93,4.78,1.81,7.08,2.7.31,0,.65,0,1.11-.03-.09.25-.17.45-.26.69.02.04.05.08.06.12Zm-21.58-15.33c.03-.05.07-.11.1-.16-.27-.47-.52-.9-.77-1.32-.17.3-.35.6-.52.89.39.19.78.39,1.19.59Zm63.41,7.42c-.52-.49-1-1.05-1.48-1.59l-.42,1.21c1.04.99,2.08,1.99,3.12,2.98.23-.37.46-.74.69-1.11-.64-.49-1.32-.93-1.91-1.49Zm-12.31-2.32c-.12-.1-.26-.19-.38-.29l-1.01,2.92c1.12.92,1.77,2.73,2.62,4.15.15-.18.29-.35.44-.53-.57-2.15-1.15-4.3-1.67-6.25Zm-22.81-9.02l-9.29.07s-.02.09-.03.13l-.77,2.22c.58.73.95,1.65.88,2.96,1.58.56,2.85,1.01,4.19,1.49.26-.4.59-.92.99-1.56.54.54,1.11,1.03,1.67,1.51l.8-2.33c-.2-.74-.08-1.82-.17-3.04.28.46.53.89.78,1.29l.94-2.73Zm36.13,20.31c.1.22.18.47.28.7h2.19c-.38-.3-.75-.6-1.14-.86-.31-.22-.88.09-1.33.16Zm-65.71-12.38l-.08.15c-.02-.06-.04-.11-.07-.17-.38-.07-.77-.14-1.15-.21.22.56.4,1.12.48,1.73.97.86,2.06,1.51,3.48,1.53l.38-1.11c-.82-1.27-1.92-1.67-3.05-1.9Zm-11.78-7.63c.06,1.1.09,1.81.12,2.42.5-.84.98-1.64,1.45-2.44h-1.57Zm4.37-.02h-.02c.02.32.05.64.07.96,0,0,.02,0,.02.01-.03-.32-.05-.65-.08-.98Zm19.97,4.76c-.14,0-.29-.09-.43-.15-.04.08-.07.16-.1.25,0-.1,0-.19,0-.28-.84-.39-1.72-1.46-2.86-2.37,1-.24,1.57-.37,2.13-.51.02-.17.04-.35.06-.53-.91-.16-1.82-.31-2.9-.5l-.87,2.51c2.2,1.71,4.41,3.41,6.62,5.12.15-.25.3-.5.46-.75-.34-1.23-.15-2.67-2.1-2.79Zm197.44,14.99h1.32c-.33-.29-.68-.59-1.02-.88l-.3.88Zm10.26-13.46c1.17.08,2.35.15,3.61.23l2.82-8.15-9.33.07s-.02.09-.03.13l-.66,1.91c.87,1.01,1.75,2.03,2.62,3.03-1.18.32-2.37-.28-3.2-1.34l-4.37,12.63c.78.78,1.56,1.56,2.34,2.34.33.68.47,1.64.65,2.58h1.42c-.28-.41-.54-.88-.82-1.27.18-.19.36-.38.55-.57.81.24,1.63.49,3.01.91-.34.29-.64.61-.92.9h1.35s.04,0,.04,0l3.97-11.48c-.63.54-1.5-.06-3.02-1.91Zm-167.9,14.56h.83c-.14-.22-.28-.44-.42-.65-.17.15-.33.3-.49.45.03.06.06.13.08.2Zm106.7-10.09c.17-.32.33-.65.5-.98,1.4,1.07,2.81,2.13,4.22,3.2l4.82-13.95c-.1-.08-.2-.16-.3-.25l-8.9.06s-.02.09-.03.13l-7.32,21.18,9.27-.06,2.18-6.32c-1.78-.35-3.67-.44-4.44-3.01Zm-.58,6.02c.09.31.19.62.28.92-.88.35-1.77.7-2.81,1.11q.21-2.8,2.54-2.03Zm37.12,1.51c.19.43.24.98.26,1.56h.26s2.16-6.24,2.16-6.24l-.62.72c-.43-4.93-1.87-2.23-3.26-1.8.22-.94.6-1.95,1.07-2,1.05-.12,2.16.17,3.21.49.08.02-.05,1.02-.14,1.83l4.95-14.31-9.33.06s-.02.09-.03.13l-2.19,6.34c1.65.78,2.15,2.94,3.48,4.12-.6.36-1.01.72-1.08.64-.93-1-1.86-2.04-2.92-3.23l-2.06,5.95c1.79.62,1.66,2.61,1.95,4.23-.7-1.03-1.45-2.11-2.27-3.31l-2.23,6.44h.04s8.13-.05,8.13-.05c.2-.51.4-1.01.62-1.56Zm-1.15-12.76c-.08-.28.37-.77.58-1.16.88.68,1.75,1.36,2.63,2.04-.18.32-.36.63-.54.95-1.38.51-2.23-.29-2.67-1.82Zm3.97,14.26l-.02.04h.04s-.01-.03-.02-.04Zm177.23-17.51c-3.23-.21-3.84-.95-3.85-3.42,1.41.83,2.72,1.6,4.18,2.46l1.38-3.99h-2.13c.06.15.13.29.2.43-.32-.15-.57-.28-.84-.41l-6.52.05s-.02.09-.03.13l-7.32,21.18,9.28-.07,5.65-16.36Zm-111.33,17.1h1.35s2.09-6.07,2.09-6.07c-.43-.48-.64-1.46-.96-2.19.24-.2.48-.39.72-.58l.98.66,2.42-6.99c-1.73,1.07-2.44.49-3.39-1.96,1.15.28,2.33.58,3.75.93l1.77-5.12-9.33.06s-.02.09-.03.13l-5.05,14.63s.1.02.14.03c.38.1.7.5,1.1.79-.37.38-.6.62-1.12,1.16,1.1-.07,1.86-.26,2.57-.11.52.11,1.01.62,1.44,1.07.1.1-.07.89-.19.91-.55.12-1.14.18-1.69.08-.84-.15-1.71-.3-2.48-.71-.24-.13-.48-.3-.71-.46l-1.31,3.8h.04s7.92-.06,7.92-.06Zm-1.88-9.77c.67.17,1.3.32,1.92.48.23-.7.43-1.33.83-2.54.33,1.93.55,3.18.77,4.43q-3.17.12-3.52-2.37Zm135.35-4.48c-1.4,1.59-2.61,1.98-3.7,1.16.87-1.11,1.69-2.15,2.71-3.45-.07-.36-.13-.72-.21-1.02-.85-.28-1.58-.62-1.87-.11-1.55,2.73-3.22,1.35-4.69,3.49-.08-.25-.17-.51-.25-.77.83-1.82,1.69-3.69,2.63-5.75-.41-.45-.79-.92-1.14-1.45h0s-.02.09-.03.13l-7.32,21.18,9.27-.06,4.61-13.35Zm-9.72,10.31c.6.02,1.15.04,1.46.05.03-1.49-.12-2.53.11-3.39.48-1.87,1.15-3.64,1.69-5.29.91.56,2.09,1.28,3.31,2.02-.61.92-1.44,1.66-1.67,2.63-1.06,4.33-3.1,4.84-5.22,6.67.17-1.39.25-2.13.32-2.69Zm-49.87,1.51l-.66,1.92,2.18-.02c-.5-.64-1-1.28-1.51-1.9Zm-222.91,2.36s.01.05.02.08l5.59-16.18s-.02-.02-.03-.04c.01,0,.02,0,.03.01l1.41-4.08-9.29.06s-.02.09-.03.13l-4.88,14.13c.78.86,1.47,1.88,2.32,2.99,1.5-1.17,2.39-.07,2.97,2.73-1.89-.46-3.47-.86-4.91-1.21-.27-1.25-.47-2.16-.67-3.06l-.2-.02-1.03,2.98c-.01.07-.02.13-.03.2,0-.01-.01-.02-.02-.03l-.16.45c1.2.66,2.39,1.33,3.58,2l4.61-.03c.09-.29.18-.58.27-.86.15-.08.3-.17.45-.25Zm-79.16,1.66h.64c-.19-.08-.38-.15-.56-.23l-.08.23Zm252.73-1.76l2.85-8.26c-.56-1.13-1.56-2.2-.05-4.37.24,1.08.43,1.96.61,2.77l3.96-11.45-9.29.07s-.01.09-.03.13l-7.32,21.18,9.28-.06Zm-285.5-3.8l-.18.53c2.03,1.54,4.09,3.02,6.05,4.68.13.11.2.31.26.54h1.14s.46-1.35.46-1.35c-2.72-1.55-5.24-2.98-7.73-4.4Zm11.3-5.93c-.14-.03-.24-.08-.4-.1-2.01-.2-3.97-1.48-5.95-2.29-.65-.19-1.43.22-2.2.36l-.5,1.44c.54.26,1,.33,1.23.03,1.43-1.84,2.01-.46,2.93.71-.4.26-.75.49-1.17.77.41.53.78.99,1.14,1.46-.09.18-.18.36-.28.55-.95-.46-1.95-.93-3-1.44-.19,1.14-.4,2-.64,2.64.16.01.31.03.45.03,1.44-.02,2.88-.43,4.31-.33.67.05,1.43.78,1.91,1.45.19.27-.13,1.06-.33,1.91l2.48-7.19Zm-9.54.84l-.85,2.47s.01.11.04.15c.08.15.22.26.39.36.4-.79.82-1.62,1.3-2.56-.3-.14-.56-.27-.87-.42Zm134.3,2.51c.16-.3.31-.59.47-.88.31.17.62.34.94.51l4.67-13.51-9.29.06s-.02.09-.03.13l-1.29,3.74c2.38.32,4.74.64,7.22.97.02.89.04,1.91.06,3.09-3.53-3.65-6.48-3.64-7.04-1.32-.37-.09-.73-.18-1.1-.27l-1.04,3.02s0,0,0,0c.86,1.38,1.71,2.76,2.56,4.12-1.94-1.13-2.87-2.05-2.99-2.89l-3.7,10.7,9.27-.06,2.35-6.81c-.35-.21-.71-.42-1.06-.63Zm-60.89,1.61c.02-.05-.07-.15-.23-.47-.44-.08-1.34.06-1.54-.32-.72-1.37-1.32-2.89-1.67-4.43-.09-.4.85-1.27,1.44-1.62.23-.14.81.54,1.23.85.05.22.11.44.16.66-.51.04-1.03.08-1.55.12.06.24.13.48.19.73.51.43,1.03.86,1.05.87,1.8-1.33,3.15-2.59,4.69-3.35.6-.3,1.47.18,2.27.45l2.96-8.58-9.29.07s-.02.09-.03.13l-.39,1.12c.61,1.16,1,2.66,1.55,3.9-.23.17-.45.34-.68.5-.52-.7-1.05-1.43-1.59-2.16-.05.07-.09.13-.13.2l-3.43,9.91c.81.75,1.59,1.54,2.31,2.44-1.92,2.23-2.02-.99-2.82-.96l-2.15,6.22,9.27-.06.43-1.26c-1.84-.08-3.27-.72-2.08-4.96Zm-41.2,5.19c-.08.48-.16.95-.22,1.34h1.23c-.38-.4-.77-.78-1.01-1.34Zm-3.43.2c.16-.97.29-1.77.37-2.28.25,0,.49-.01.74-.02l5.86-16.97c-1.37-.07-2.64-.12-3.83-.17-.05-.22-.07-.46-.1-.69l-3.27.02c.39.06.78.12,1.17.17-.42.82-.83,1.64-1.32,2.6.26.62.57,1.37.89,2.12-.22.18-.45.37-.67.56-.41-.73-1.04-1.4-1.16-2.19-.14-.91.16-1.91.27-2.87-.35-.08-.66-.18-.97-.27,0,0,0,0,0,.01l-1.75,5.05c.2.34.4.67.6,1,0,.17,0,.34,0,.52-.29-.19-.61-.36-.93-.53l-.79,2.29c.52.55.99,1.12,1.31,1.79,1.26,2.62,2.91,2.85,4.95,2.78.14.89.26,1.72.35,2.26-2.17-.84-4.24-1.64-6.49-2.51.19.83.34,1.48.51,2.19-.67.06-1.18.1-1.68.14.54,1.07.99,1.94,1.43,2.8-1.11-.34-2.28-.51-3.36-.84l-1.47,4.24,9.28-.07.36-1.05c-.09-.03-.18-.07-.27-.11Zm165.83-3.81c.17.07.34.14.51.22.63.27,1.27.55,2.02.88-.22.79-.41,1.47-.76,2.69h1.58c1.44-.45,2.7-.82,3.95-1.22.06-.02.06-.32.1-.54-.55-.31-1.11-.61-1.98-1.1.82-.54,1.33-.88,2.19-1.44-1.71-2.24-3.31-4.35-5.12-6.72l-2.49,7.21Zm15.36-17.56l-9.33.07s-.01.09-.03.13l-3.11,8.99c1.04.25,1.88.44,2.04.93.63,2.01,1.92,1.98,3.16,2.36l-.03-.05s.02,0,.03.01c.07-2.66.14-5.31.22-8.01.45,1.48.54,3.63,1.41,4.28,1.21.91,1.53,1.93,1.59,2.99l3.94-11.41c0-.07-.01-.13,0-.2.02.02.04.04.05.06l.05-.15Zm23.82,21.09c-.2-.13-.4-.25-.6-.38.11-.27.22-.55.33-.82,1.3.18,2.64.37,4.06.56l.84-2.42c-.34-.04-.68-.08-1.01-.18-2.85-.85-2.42-3.7-2.49-6.43,1.09.59,2.05,1.38,2.86,2.36.08.11-.69,1.23-1.33,2.33.69.34,1.46.71,2.25,1.09l6.03-17.45h-1.77c.02.49.04.99.06,1.49-.37-.17-.75-.34-1.2-.54-.03.79-.06,1.58-.1,2.78-.96-1.34-1.78-2.49-2.64-3.69l-3.68.03s-.01.09-.03.13l-5.04,14.6c.59.04,1.18.09,1.77.13.04.58.08,1.19.08,1.3,1.02.69,1.79,1.21,2.56,1.74-.08.22-.16.46-.24.69-.7-.05-1.39-.09-2.19-.15-.13.8-.24,1.48-.35,2.17-1.3-.32-2.35-.58-3.37-.83l-.45,1.3c0,.07-.01.17-.02.25l5.66-.04Zm-28.89-6.44l.46-1.33c-.94-.31-1.81-.6-2.66-.89,0,0,0,.01,0,.02.73.73,1.47,1.47,2.2,2.2Zm-18.12-14.5l-9.33.06s-.02.09-.03.13l-3.4,9.84c.71-.27,1.35-.69,1.78-1.42.67.6,1.34,1.19,2.34,2.07-.16-1.05-.24-1.58-.32-2.11.18-.07.37-.13.56-.19.32,1.52.63,3.04,1.09,5.25-2.24-.08-4.24-.14-6.38-.21-.07.46-.18,1.11-.39,2.42-.19-.18-.34-.32-.52-.49l-2.08,6.02,9.31-.06.11-.32c-.25.14-.66.21-.76.1-1.12-1.29-2.18-2.67-3.19-3.95,1.39-.73,2.39-1.25,3.27-1.72.31,1.25.68,2.57.96,3.91.04.21.06.46.05.7l1.34-3.89c-.31.33-.81.5-1.64.77.9-1.74,1.57-3.05,2.25-4.36-.04.95-.07,1.65-.13,2.18l5.1-14.75Zm-10.8,19.59q-3.62-.13-4.17-.91c.52-.45,1.07-.93,1.88-1.64.55.62,1.33,1.49,2.29,2.55Zm-11.61-15.08c1.79,3.19,4.71,5.31,7.27,5.74l3.52-10.17-9.29.07s-.01.06-.02.09c.55.86,1.1,1.72,1.65,2.59-.16.17-.32.35-.47.52-.58-.47-1.15-.96-1.74-1.44l-.9,2.61Zm-24.54,12.96c-.85-.51-1.7-1-2.55-1.51l-1.95,5.65,9.27-.06,7.36-21.31-9.29.06s-.02.09-.03.13l-5,14.45c1.81.98,3.63,1.96,5.43,2.97.34.19.55.76.74,1.2.04.09-.29.58-.37.55-.39-.11-.75-.33-1.11-.55-.84-.52-1.66-1.09-2.51-1.6Zm3.02-12.2c1.27.31,2.36.58,3.44.85-.06.29-.12.59-.18.88-1.21.3-2.65,1.71-3.26-1.73Zm-.8,2.38c1.02.47,1.95,1,2.93,1.3.76.23,1.57.18,2.36.25-.03.3-.06.6-.08.9-1.8-.5-4.15.88-5.21-2.46Zm25.73,13.75l.49-1.41c-.38.47-.77.94-1.15,1.41h.66Zm-39-20.99l-9.29.07s-.02.09-.03.13l-1.66,4.8c1.05.44,2.04.85,3.25,1.35-1.41.47-2.12.72-3.01,1.01-.23-.32-.46-.65-.71-.99l-5.19,15.02,9.28-.06,5.36-15.5c-.09-.02-.18-.04-.27-.06.29-1.11.54-2.06.58-2.24.16.02.3.04.46.06l1.23-3.56Zm37.14,21c.76-1.97,1.98-3.2,2.96-3.2l1.55-4.47c-.2-.19-.43-.41-.6-.56-1.33-.01-2.46-.03-3.58-.05,0-.16-.02-.32-.03-.48.7-.25,1.4-.51,2.56-.93-1.65-1.54-2.78-3.06-4.18-3.79-.5-.26-.88-.49-1.16-.74l-4.94,14.28,7.41-.05Zm152.59-1.06l7.37-21.31-9.29.07s-.02.09-.03.13l-7.32,21.18,9.28-.07Zm-23.18.16l6.22-18c-1.56,0-3.12-.01-4.67-.1-.26-.01-.5-.86-.75-1.32.44-.16.87-.46,1.31-.44,1.44.04,2.88.16,4.32.31.1.01.21.05.31.07l.63-1.82-9.29.07s-.02.09-.03.13l-7.32,21.18,9.27-.07Zm11.59-.08l7.37-21.31-9.29.06s-.02.09-.03.13l-7.32,21.18,9.27-.07Zm-36.7-21s-.02.09-.03.13l-7.32,21.17,9.28-.06,7.36-21.31-9.29.06Zm-13.89.09l-9.33.07s-.02.09-.03.13l-7.32,21.18,8.91-.06c-.32-1.05-.63-2.11-.95-3.17.22-.18.44-.36.65-.55.55.32,1.1.63,1.65.94l.85-2.45s-.08-.07-.11-.1c-.16-.16.2-1.57.33-1.57.12,0,.23.02.35.02l4.99-14.44Zm-11.56,12.61c1.75-.2,3.37-.39,5.27-.61-3.29,3.26-3.57,3.3-5.27.61Zm-20.95-12.39s-.02.09-.03.13l-7.32,21.18h.04s8.91-.06,8.91-.06c-.08-.04-.15-.07-.24-.11.44-.55.79-.99,1.12-1.4l.4-1.17c-1.77-.99-1.72-1.13-.44-2.77.34.25.69.5,1.11.81l.4-1.16c-.15-.34-.3-.67-.48-1.04.29.02.54.04.82.06l5.03-14.54-6.6.05s-.05.08-.07.13c-.02-.05-.03-.08-.05-.13l-2.6.02Zm24.38,19.18c.33.65.6,1.19.85,1.68l.47-1.35c-.39-.1-.81-.2-1.31-.33Zm93.5,1.27l7.37-21.31-9.29.06s-.02.09-.03.13l-6.08,17.59c1.14.79,1.87,2.04,2.39,3.56l5.65-.04Zm-11.59.07l1.23-3.56c-.44-.27-.97-.56-1.63-.99.72-.03,1.34.03,1.92.15l5.84-16.9-9.29.07s-.02.09-.03.13l-7.32,21.18,9.27-.07Zm-269.03-9.31c-.02-.8.04-1.63-.1-2.41-.18-1.02-.47-2.05-.84-3.54l-1.79,5.17c.24.04.44.15.65.22.68.23,1.38.38,2.08.56Zm8.37-10.13h-.3c-.18,1.13-.28,1.73-.38,2.34-.64-.22-1.14-.39-1.05-.36-.21-.77-.39-1.4-.55-1.97l-5.62.04s-.02.09-.03.13l-1.24,3.6c1.19.91,1.94,1.49,2.81,2.15-.65.59-1.04.94-1.18,1.07,1.38,2.04,3.07,3.53,4.78,5.02l1.34-3.86c-.94.44-1.71.08-2.49-1,.8-2.2,2.24-2.68,3.89-3.04l.98-2.84c-.3-.41-.62-.84-.94-1.28Zm-3.82,4.6c-.2.36-.39.72-.59,1.08-1.15-.97-2.3-1.95-3.45-2.92.14-.29.28-.58.42-.88,1.2.9,2.41,1.81,3.61,2.71Zm-.7,12.46c-.28.2-.55.39-.83.58.12.27.23.54.35.81l.48-1.4Zm-7.87-3.99l-.95,2.76c.39.4.78.8,1.18,1.21-.12.25-.24.49-.36.74-.41-.23-.81-.52-1.22-.78l-1.51,4.38,4.38-.03c.07-.27.14-.53.27-.83.89-2.1,1.32-3.63,3.59-3.82-2.21-.7-3.91-2.02-5.37-3.61Zm14.9-9.65l-.03.08s.05-.01.07-.02c-.01-.02-.03-.04-.04-.06Zm-9.31,15.24c.48-.34.97-.68,1.45-1.02,0-.01,0-.02-.01-.04-.48.35-.96.7-1.44,1.05Zm-26.79,2.59c.28.05.49.15.72.23h1.71c-.3-.39-.61-.76-.89-1.15-.37-.52-.46-1.3-.68-1.96.59.12,1.29.06,1.76.41.71.54,1.4,1.13,2.11,1.77l.91-2.63c-2.46-1.98-2.42-2.19-2.07-3.94.83,1.24,1.56,2.33,2.27,3.39l1.67-4.82c-.34.02-.71.1-1.15.3-2.08.94-3.78-.24-4.86-2.96.56.24,1.35.72,1.43.59,1.78-3,2.07-.02,2.38.41.97.18,1.86.22,2.65.32l1.23-3.57c-.34-.27-.67-.52-1.02-.78.12-.29.23-.57.35-.86.37.12.75.23,1.12.35l2.15-6.21-3.59.03c.41.3.83.6,1.28.93-2.21.92-3.48.71-4.2-.91h-1.85c.07.93-.46,1.89-.79,3.04-.27-.79-.46-1.33-.59-1.7l-5.7,16.5c1.02-.02,2.07-.05,3.23-.08-1.5,2.57-1.46,2.99.42,3.29Zm9.85-6.65c-.15-.32-.3-.57-.46-.82l-2.65,7.67,2.47-.02c-.54-.34-.89-.81-.4-1.82.64-1.36,2-2.23,3.47-.85.94.89,1.86,1.81,2.83,2.63h.91s.33-.97.33-.97c-1.91-1.43-3.82-2.81-5.67-4.28-.39-.31-.57-1-.82-1.54Zm53.61,3.32l.49-1.42c-.1-.13-.19-.25-.29-.38-.54.36-1.05.69-1.57,1.02,0,0,0,0,0,.01.45.25.91.51,1.36.76Zm-49.37-17.79s-.02.09-.03.13l-.21.6c.61.51,1.2,1,1.66,1.39-.18,1.46-.31,2.58-.45,3.71-.16.07-.32.14-.47.21-.42-1.27-.83-2.54-1.25-3.81l-1.61,4.66c.78.24,1.57.49,2.42.76-1.53,1.95-1.73,5-.49,5.63.97.49,2.33-.1,3.98-.25.26.26.57.58.91.92l1.03-2.98c-.78-1.03-1.53-2.11-2.29-3.16.14-.2.27-.4.41-.59.8.76,1.6,1.52,2.39,2.29l3.3-9.55-2.13.02c-.17.34-.33.68-.5,1.01-1.15.23-1.9-.29-2.57-.99l-4.08.03Zm3.08,17.9l.63-1.83c-1.16-.04-1.71.75-1.66,1.88.34-.02.68-.03,1.02-.04Zm35.94,3.09h1.18c.39-.11.79-.24,1.16-.29-.05-.32-.11-.63-.16-.95-.52.1-1.05.21-1.22.24-.08-.39-.15-.74-.23-1.1l-.73,2.1Zm-10.43-9.96l.54-1.57c-.66.08-1.35.17-2.2.27.61.48,1.15.9,1.66,1.3Zm8.73,3.99c-.36-.82-1.3-1.28-2.23-2.1,1.32-.22,2.23-.37,3.11-.52-.14-.95-.25-1.73-.46-3.2,1.05,1.02,1.62,1.58,2.28,2.23l4.05-11.73-9.29.06s-.02.09-.03.13l-5,14.47c1.8.82,3.6,1.62,5.38,2.48.3.14.46.68.72.97.47.52.92,1.09,1.39,1.63l.44-1.26c-.11.12-.21.23-.33.35.02-1.61.31-2.75-.02-3.52Zm13.97-2.76l4.37-12.64-6.32.04c.59.79,1.17,1.58,1.7,2.42.2.31-.02.99-.05,1.74-1.21-1.57-2.21-2.91-3.17-4.15h-1.44c-.01.05-.02.1-.03.14l-3.62,10.48c.4.22.82.61,1.28,1.25-.76.29-1.38.53-1.98.77l-.37,1.08c.46.07.93.15,1.33,0,1.02-.37,1.69-.74,2.06,1.1.32,1.56,1.27,2.92,2.98,2.58l-.02-.03s0,0,0,0c-.81-1.53-1.63-3.07-2.75-5.17,1.87-.16,3.23-.56,4.5-.31.52.1,1.04.36,1.53.7Zm-14.59,8.75l.16-.47c-1.08-1.22-2.79-1.29-4.01-.03-.37.38-.99.41-1.83.54l5.67-.04Zm-8.77-9.09c-.78,1.34-1.39,2.4-1.98,3.43.3.23.6.46.9.7l1.28-3.69c-.07-.15-.12-.27-.19-.43Zm.74,5.54c.13.1.25.2.39.3-.03-.47-.05-.84-.07-1.24l-.32.93Zm-.83,2.39l-.42,1.22h.79c.22-.14.43-.28.66-.43-.27-.37-.4-.71-.56-.74-.15-.02-.31-.04-.47-.05Zm235.19-93.66l-.11-.28c-3.56-1.2-7.12-2.4-10.68-3.6l1.46,3.82s.02.09.03.13l9.29-.07Zm-306.37,10.62c.16.53.37,1.2.63,2.04-.29.4-.58.83-.86,1.26l.42,1.12,3.94-9.7-2.27.02c-.68,1.92-1.27,3.58-1.87,5.27Zm-26.62-5.08l1.22,3.24c.49-1.09.99-2.17,1.48-3.26l-2.7.02Zm23.79-.16c.08.62.18,1.35.34,2.51v.04c.24-.99.4-1.82.56-2.55h-.9Zm-22.23,12.32c-.6-1.86-1.23-3.66-1.85-5.48-.12.69-.25,1.4-.39,2.19l.06,3.3c.52-.19,1.02-.29,1.29.38-.38,1.88-.78,3.83-1.18,5.76l.03,1.51c.64-2.21,1.29-4.43,1.93-6.65.08-.3.17-.82.11-1.01Zm-1.71-6.42c-.04.27-.08.54-.11.8.08-.17.15-.33.23-.5l-.11-.29Zm275.19-10.86l-8.19-21.36-9.31.06,6.81,17.76c.81-.43,1.74.55,2.63,1.23-.67.12-1.35.23-2.02.35l.72,1.89s.02.08.04.13h.04s9.25-.06,9.25-.06h.04ZM30.68,112.14s0-.02,0-.03c-.77-.46-1.71-1.02-2.66-1.59-.12.2-.25.37-.38.59.56,1.46,1.11,2.92,1.66,4.38l1.37-3.37Zm-13.46,4.69l1.91-4.7c-.08-.1-.17-.19-.26-.28-.62,1.57-1.21,3.07-2,5.06.12-.03.23-.05.35-.08Zm344.08-36.06l-9.28.06,8.15,21.23s.02.09.04.13l9.29-.06-8.19-21.36ZM25.2,99.63c.56.56,1.14.99,1.78,1.12-.48-.76-.95-1.54-1.43-2.31-.12.4-.23.79-.35,1.19Zm-12.32,4.19c-.16.06-.31.13-.47.19v.55s.02.04.02.06h.57s0-.02.01-.03v.03s.03,0,.03,0c-.04-.25-.03-.53-.05-.79-.05,0-.07-.02-.12,0Zm9.14-4.76s-.03.07-.04.11l.46,1.2c.05-.13.11-.27.16-.41-.2-.3-.39-.6-.59-.9Zm2.45,4.07c.23-.66.43-1.23.63-1.81-.1-.14-.18-.26-.27-.4-.32,1.07-.64,2.13-.94,3.22l.1.26s.02.09.04.13h1.62c-.38-.46-.75-.89-1.18-1.4Zm211.63-14.69c-1.06-.64-1.96-1.18-2.86-1.73.07-.31.15-.63.23-.95,1.14-.15,1.78-.04,2.16.63l-1.82-4.74-7.38.05s0,.01.01.02c.89,1.64,1.57,2.34,2.86,1.56.15.92.28,1.67.43,2.59-.57-.15-.98-.26-1.39-.36-.35,4.64.31,6.02,3.12,8.06.91.66,1.54,2.37,2.3,3.6-.66.85-1.32,1.71-2.09,2.71.48.7,1.14,1.65,1.99,2.89-.44.14-.82.01-1.17-.22l.15.4s.02.08.03.13l4.73-.03c-.07-.3-.13-.59-.2-.88.27-.12.54-.24.8-.36.08.41.16.82.24,1.23l3.71-.03h.04s-6.13-15.97-6.13-15.97c.1.37.17.82.23,1.4Zm-125.19,15.48c-.83-1.23-1.67-2.7-2.43-2.62-2.21.23-3.69-1.98-5.47-3.07,0,0-.02-.02-.02-.02l2.15,5.62s.02.08.04.13h.04c.3-.52.64-1.1,1.13-1.94-.03.72-.06,1.34-.08,1.94l4.65-.03Zm44.64-.73c.03.14.06.28.08.42l5.19-.03-.16-.43c-.07-.03-.16-.02-.23-.06-.52-.28-.97-.89-1.55-1.46.24-.59.45-1.04.67-1.41l-1.44-3.76c-.19-.1-.39-.19-.57-.29,0-.42-.01-.83-.02-1.25l-2.28-5.94c-.49.19-.89.35-1.28.51-.87-5.29-.87-5.25-4.23-6.66-.3-.13-.59-.35-.87-.59l-5.49.03,6.36,16.58c.11-.07.22-.14.33-.22.12.69.16,1.46.38,2.04.39.99.77,1.99,1.18,2.96l3.72-.03c.08-.14.15-.28.22-.42Zm-4.05-9.12c-1.14-1.61-2.26-3.27-3.28-5.06-.55-.96-.9-2.21-1.34-3.33.12-.11.23-.23.35-.34,1.87,2.79,3.74,5.57,5.61,8.36-.07.23-.14.47-.21.69-.38-.09-.87.02-1.11-.32Zm-89.28-11.21l1.87,4.88c.07-.27.14-.53.21-.8,1.52.63,3.04,1.24,4.34,2.61.35-.32.69-.65,1.03-.97-.17.6-.34,1.12-.5,1.59.09.12.19.2.28.33-.1.36-.21.72-.31,1.09-.13-.1-.27-.2-.4-.3-.74,1.63-1.51,2.02-2.69,1.57l4.31,11.22s.02.08.04.13l9.29-.06-8.2-21.36-9.27.06Zm-49.16,31.49l-.04.09s.01.04.02.06v-.07s.02-.05.02-.08Zm125.43-5.54c1.42,1.47,1.64,2.63,1.36,5.06-.98.01-1.97.03-3.27.04.88,1.68,1.5,2.87,2.11,4.05-.17.22-.33.44-.49.67-.48-.71-.97-1.38-1.43-2.12-.42-.69-.64-1.29-.67-1.84l-2.06,5.08,3.05,8.12,9.28-.06-7.5-19.94-.39.95Zm-57.37,19.45h.97s-.02-.04-.03-.05c-1.47-1.9-3.13-3.41-4.79-4.92l1.88,4.99h1.24c.14-.2.28-.39.42-.59.11.19.21.38.32.57Zm34.86-19.16c-.24-.1-.44-.15-.63-.21l-4.49,11.04,3.05,8.11,9.28-.06-7.49-19.92c.09.33.17.64.28,1.05Zm-50.56,8.87c.68-.48,1.34-1.15,2.06-1.34.28-.08.68.93,1.03,1.45-.52.65-1.04,1.29-1.62,2.02.07.23.23.77.39,1.3-.67.57-1.27,1.07-1.78,1.5l2.05,5.45,9.28-.06-7.51-19.94-3.91,9.62Zm7.09,2.17q-2.58-2.36-2.05-4.25c.25,1.96,2.48,1.28,2.05,4.25Zm201.41,6.77l-7.5-19.94-.02.05-.02-.05s0,0,0,0l-1.01,2.5c.23-.07.47-.13.73-.2-.64,1.36-1.04,2.21-1.61,3.44-.09-.13-.18-.27-.27-.41l-2.67,6.56,3.05,8.11h.04s9.25-.06,9.25-.06h.04Zm-11.59.08l-7.51-19.94-.02.05-.02-.05-.46,1.13c.63,1.39.9,3.18.57,4.6-.39-1.1-.76-2.15-1.13-3.22l-3.81,9.38,3.05,8.11h.04s9.25-.07,9.25-.07h.04Zm-196.92-9.02l-.19.47c.13.04.26.09.38.13-.06-.2-.13-.4-.19-.6Zm91.81,1.62l3.05,8.11,9.29-.06-7.5-19.95-4.83,11.9Zm86.01-12.46l-.02.05-.02-.05-4.83,11.9,3.05,8.11h.04s9.25-.06,9.25-.06h.04s-7.5-19.95-7.5-19.95Zm-210.46,21.46h.15c-.16-.31-.33-.62-.49-.92l.35.92Zm23.32-16.11c1.74-.14,1.6,1.67,1.28,3.69.38.29.78.58,1.18.88-.04.3-.08.61-.12.92-.77-.42-1.72-.52-2.27-1.33-.36-.53-.75-1.08-1.08-1.72l-2.19,5.38.62,1.65c.74-1.38,1.49-2.77,2.23-4.15.11.24.22.47.32.71-.74,1.44-1.48,2.87-2.23,4.31l1.94,5.16c.22.13.43.27.65.42l8.8-.06-7.5-19.94-1.65,4.06Zm5.13,12.45c-.09.39-.19.78-.28,1.17-1.11-.75-2.22-1.49-3.34-2.24.09-.35.19-.69.28-1.03,1.11.7,2.23,1.41,3.34,2.1Zm-31.34,3.68h.59s-.4-1.07-.4-1.07c-.06.35-.13.71-.19,1.07Zm11.84-.73c-.02.07-.04.14-.06.22.02.09.07.18.12.28-.02-.16-.04-.33-.07-.5Zm-13.37.32c.08-.06.15-.12.24-.16-.29-.31-.58-.63-.8-.86.38-1.01.73-1.95,1.07-2.87l-2.17-5.76c-1.49,5.25-2.39,6.47-5.66,8.61-.09-1.37-.16-2.5-.32-5.03,2.92,4.15,4.05-1.09,5.74-4.22l-1.14-3.02c-.08-.11-.16-.23-.24-.34-.22.34-.41.75-.58,1.21,0,.49,0,.91,0,1.34-.13-.02-.24,0-.34,0-.05.3-.08.63-.1.98.16.04.31.08.5.12-.21.39-.42.82-.6,1.21-.15.69-.84,1.59-1.24,2.38-.19-.2-.37-.41-.55-.61.31-.44.5-.85.66-1.25-.41-.46-.79-1-1.18-1.52.11-.28.21-.57.32-.85.36.09.71.18,1.12.27-.07-.69-.24-1.36-.39-2.04-.63-.62-1.26-1.24-1.88-1.87l-.97,2.4c.67-.05,1.33.1,2,.17-.35,1.18-.57,2.74-1.06,3.49-.61.94-1.24,1.83-1.86,2.72l2.24,5.96,6.66-.04c.14-.16.27-.31.41-.47.03.02.06.03.09.05Zm-10.17-1.39l-.73-1.94c-.81,1.14-1.63,2.27-2.44,3.42.09.06.18.12.27.18-.03.08-.06.16-.09.24h2.26c.08-.55.17-1.08.26-1.64.18-.1.31-.17.47-.26Zm26.17,1.31c.14.13.28.25.43.38h.46c-.02-.76-.05-1.52-.08-2.37-.29.71-.55,1.36-.8,1.99Zm7.82-3.62h0s-.73-1.95-.73-1.95c-.36.09-.67.1-.91-.1-.28,1.2-.58,2.47-.89,3.79.33-.23.61-.41.78-.26.8.76,1.57,1.6,2.33,2.45h.91s-1.44-3.83-1.44-3.83c-.02-.04-.04-.08-.05-.12Zm-2.83,3.02c-.03-.12-.05-.22-.08-.32-.09-.18-.17-.34-.27-.53.04-.02.07-.05.11-.07-.42-1.43-.95-1.82-1.76,0-.27.62-.55,1.25-.83,1.88l3.4-.02c-.18-.34-.36-.71-.55-1.06,0,.04-.02.07-.03.12Zm279.53-46.53l6.65,17.34c-.08-.31-.16-.63-.21-.95-.15-1.03-.28-2.08-.42-3.11.68-.09,1.46-.57,2.03-.2,1.43.96,2.06.1,2.26-2.36,1.47,1.08,2.89,2.12,4.32,3.16l-2.51-6.54c-1.16-1.43-2.53-2.06-4.08-2.21-2.15-.21-3.36-1.88-3.65-5.15l-4.38.03Zm-179.62,22.66l-.33-.86c-.17.3-.33.59-.49.87h.82Zm-6.98-5.04c.76,3.16,2.96,4.33,4.7,3.14.39-.27.68-.9,1.01-1.4l-6.93-18.06-7.67.05c0,.12.02.23.02.36-.09,2.65.51,3.8,1.57,5.14.98,1.24,1.91,2.59,2.86,3.89-.1.18-.21.35-.31.52.46,2.05.92,4.11,1.38,6.16-.47-.26-.92-.54-1.3-.9l2.32,6.06s.02.09.04.13h1.27c-.59-1.16-1.1-2.47-1.42-4.05-.31-1.5-.58-3.03-.91-4.77,1.39.76,2.69.89,3.37,3.72Zm11.2-14.24l-.83-2.16h-2.02c1,.51,1.94,1.22,2.85,2.16Zm124.53,22.55l-.02-.05-4.83,11.9,3.05,8.11,9.28-.06h.04s-7.51-19.94-7.51-19.94l-.02.05Zm-131.43-3.26c-1.06-.08-2.13-.17-3.23-.26,0,.08.02.18.02.28l3.21-.02Zm-43.51-8.36c.07-1.47.18-2.69.16-3.92,0-.44-.27-1.23-.46-1.28-1.77-.43-1.67-3.02-2.55-5.11.8.17,1.31.28,1.85.39-.12,1.02-.21,1.79-.35,3.01,1.02-.71,1.75-1.23,2.6-1.82.63.83,1.27,2.23,2.05,2.49.49.16,1.13-1.06,1.72-1.82l-1.82-4.74-9.28.07,3.81,9.93c.14-.64.34-1.3.64-2,.1,2.06.13,4.08,1.61,4.78Zm23,8.5l-2.71-7.05c-.54.41-1.04.8-1.57,1.2-.13-.76-.22-1.3-.31-1.85-.15.18-.3.36-.45.54.42.74.75,1.77,1.27,2.15,1.4,1.04,2.66,2.26,3.03,4.8,0,.05-.02.14-.03.2h.76Zm11.59-.09l-3.83-9.99c-.13.32-.25.64-.38.96-.64-.65-1.27-1.3-1.91-1.95.16-.38.32-.76.48-1.14.57.62,1.14,1.23,1.71,1.85l-2.19-5.7c-.09,0-.19-.06-.28-.05-1.55.13-2.74.36-3.15-1.74-1.4-.29-2.52-.53-3.65-.77.89-1.47,1.34-2.22,1.34-2.81l-5.61.04,8.15,21.23s.02.09.03.13l9.29-.07Zm-15.87-1.41c-1.22-.52-2.24.25-2.95,1.54l4.07-.03c-.11-.12-.23-.25-.34-.37-.29-.33-.48-1.02-.78-1.14Zm216.35-21.4l-3.32.02c1.01.84,1.91,1.61,2.64,2.22.51-.37.87-.64,1.2-.88l-.52-1.36Zm1.99,5.52c.08.11.17.21.25.32l-1.46-3.81c-.16,1.46.43,2.52,1.21,3.49Zm-49.49,16.22l9.33-.06-8.19-21.36h-1.3s-7.98.07-7.98.07h-.04s8.15,21.23,8.15,21.23c.01.04.02.08.03.13Zm-81.14.57l9.33-.07-8.2-21.35-9.31.06,8.15,21.23s.02.08.04.13Zm-2.82-12.24c-1.12-.5-1.99-2.58-2.97-3.96.1-.2.21-.4.32-.6.97.99,1.66,3.49,3.29,1.31.25,1.83.66,3.85-.64,3.26Zm-22.67,12.42l-8.2-21.36-9.27.07,6.13,15.98c3.5,1.42,3.54,1.47,3.76,2.84-1.23-.9-2.47-1.81-3.71-2.72l1.96,5.12s.02.09.04.13l9.29-.07Zm11.07-.08c-.44-.6-.89-1.21-1.39-1.89.34-.39.66-.56.96-.59l-7.24-18.87-9.27.07,8.15,21.23s.02.08.04.13l8.76-.06Zm-7.5-3.39c.12-.19.25-.39.37-.58,1.72.83,1.85,1.08,1.7,3.5-.73-1.03-1.4-1.98-2.07-2.93Zm123.98,2.58l-5.37-14.01c-.76-.26-1.52-.51-2.28-.76.36-.55.89-1.68,1.04-1.55.19.16.37.37.56.55l-.85-2.21c0,.1.01.18.02.28-.87-1.26-1.67-2.42-2.51-3.65l-7.15.05c.11.23.22.46.32.69-.12.19-.23.38-.35.56-.23-.26-.47-.5-.71-.74l7.95,20.72s.02.08.04.13l9.29-.07Zm-255.05,1.78l-3.08-8.03s-.04-.05-.06-.08c-.25,1.99-.51,4.02-.77,6.09.49.06.98.16,1.47.23,0,.25,0,.49,0,.73-.35-.03-.71-.06-1.26-.12.2.46.38.84.54,1.2l3.15-.02Zm72.09-21.91c.27.54.68.87,1.22.95l-.37-.96h-.85Zm194.55,20.06l-8.2-21.36-9.28.07,8.15,21.23s.02.08.04.13l9.29-.07Zm-13.25-12.67c-.32-.73-.65-1.45-1.04-2.31,1.07.46,2.01.85,3.04,1.29,0,.47,0,1.08,0,1.69-.67-.22-1.33-.45-2-.67Zm24.84,12.59l-8.2-21.36-3.9.03c.48,1.78.97,3.63,1.53,5.73-1.09-.94-1.94-1.74-2.83-2.41-.87-.66-1.19-2.09-.87-3.31l-3.21.02,4.49,11.71c.31-.43.63-.85.91-1.33,1.16-2,4.83-1.43,5.97.78.66,1.28,1.59,2.19,2.36,3.31.33.47.58,1.08.87,1.62-3.23-1.08-6.45-2.17-9.67-3.25l3.22,8.39s.02.09.04.13l9.29-.06ZM34.75,84.7c-.42-.17-.79-.62-1.18-.95-.09.29-.18.58-.26.88.66,1.62,1.32,3.25,1.97,4.84.74-1.59,1.44-3.07,2.13-4.57l-.55-1.44c-.26.43-.51.88-.78,1.3-.29.46-.91.12-1.34-.06Zm6.26-1.7c-.21,1.23-.39,2.48-.56,3.72l.44,1.15c.65-1.55,1.3-3.11,2.04-4.89h-1.92Zm-1.4,7.6l-.04-.12s-.03.05-.04.08c.03.01.06.03.08.04Zm4.54-7.61c-.37.8-.57,1.57-.45,2.07.68,2.8-.31,3.22-1.26,4.24-.04-.7-.08-1.3-.12-2.04-.43.46-.81.85-1.19,1.26l1.29,3.34c.09.04.18.08.27.12.21-.51.42-1.01.63-1.51-.32-.2-.64-.41-.95-.62.03-.15.05-.29.08-.44.42.02.84.04,1.28.06.19-.47.39-.93.57-1.41-.07-.25-.15-.49-.22-.72.11.11.22.22.33.32.3-1.19.2-2.86.53-4.22.04-.17.11-.31.16-.47h-.95Zm3.33,13.57c-.03.84,0,1.94,0,2.9.57-.28.98-.48,1.38-.68.16,1.11.29,1.86.44,2.39.4-4.36.14-4.73-1.82-4.61Zm3.57,7.8c-.52-.38-1.04-.76-1.49-1.09-.82.26-1.93.85-2.01.61-.22-.68-.37-1.41-.49-2.13-.18.26-.36.53-.54.83l.65,1.68s.02.09.04.13l3.84-.03Zm2.03-21.09c-.27,1.39-.53,2.74-.78,4.07l.58,1.51c.89-1.7.98-3.59.2-5.58Zm-15.14,10.6c-1.08,2.96-2.11,5.75-3.12,8.51l.76,1.97s.02.08.03.13l3.44-.03c.31-.75.66-1.42,1.03-1.73,1.1-.93,2.24-1.47,3.38-2.07l-.56-1.47c-.63.46-1.26.9-1.91,1.22-1.05.51-2.11.7-3.17,1.02.44-1.24,1.04-1.96,1.66-2.33.79-.48,1.31-.73,1.81-2.84.06-.25.14-.48.21-.72l-1.34-3.5c-.4-.2-.8-.41-1.2-.63-.12.14-.23.27-.34.38-.23.22-.65-.71-1.15-1.32-.27.48-.69,1.24-1.26,2.3.71.46,1.15.74,1.74,1.12Zm51.53-9.01c-.86.31-1.54.55-2.45.87.02-.92.04-1.86.06-3.02h-1.69s5.15,13.42,5.15,13.42c.04-.29.08-.59.12-.93,1.02,1.46,2.16,1.82,1.6,4.12-.07.27-.11.57-.16.85l1.44,3.77s.02.08.04.13l4.03-.03c-.3-1.05-.61-2.13-.95-3.28,1.07.66,1.88,1.16,2.82,1.74-.09-1.08-.12-1.61-.21-2.72,1.03,1.36,1.78,2.34,2.67,3.52-.29.25-.55.49-.82.72h1.75s-8.2-21.37-8.2-21.37l-6.57.05c.55.85.97,1.52,1.38,2.16Zm-38.98,3.83l-1.56-4.07c-.99,1.69-1.99,3.39-2.99,5.08.18.6.18,1.36-.15,2.41-.32-.21-.61-.4-.91-.6-.52.89-1.05,1.79-1.57,2.68l.62,1.62c.14.02.26.05.4.07.06-.21.12-.42.18-.69.33-1.54,1.44-2.57,2.49-4.33-.15,1.61-.23,2.52-.31,3.43.09.09.2.18.3.26.45-1.69.9-3.4,1.49-5.63.52-.06,1.27-.15,2.03-.23Zm48.49,15.34s-.02-.08-.02-.13l-.15.13h.17Zm-7.71.05l-.09-.23c-.85-.37-1.9-.81-2.98-1.28.04-.25.08-.5.12-.75,1.26.26,1.76.35,1.93-.37l-7.19-18.73-9.27.06,8.15,21.23s.02.08.03.13h1.19c-.02-.38-.03-.75-.05-1.12.15-.08.3-.16.44-.24.28.45.56.9.83,1.35l6.88-.05Zm-10.69-4.7c.07-.29.14-.57.21-.86l5.74,3.71c-.08.37-.17.74-.25,1.11-1.9-1.32-3.8-2.65-5.69-3.97Zm30.44-16.85c.06.46.1.96.17,1.36-.16.05-.32.11-.48.16-.39-.5-.79-1.01-1.18-1.51h-.96s2.03,5.31,2.03,5.31c2.15,1.3,4.32,2.59,5.81,6.21,2.16-1.63,4.14-.96,6.13.67l-4.7-12.24-6.83.05Zm3.42,1.07c1.03,1.21,1.38,2.97,1.48,5.48-.99-1.6-1.64-2.58-2.23-3.66-.25-.46-.37-1.13-.54-1.7.44-.06,1.02-.44,1.29-.12Zm-54.63-.71c-.79,2.2-1.65,4.24-3.19,4.76-.56.19-1.12,1.82-1.67,2.79-.34-.04-.7-.33-.99-.07-.12.11-.24.24-.36.38l2.87,7.47c.19.2.36.37.55.57-.11,0-.24-.05-.36-.07l2.09,5.46s.02.09.04.13h1.02c1.05-2.02,1.91-2.04,2.2-.41-.14.13-.28.26-.42.39l6.49-.05-8.2-21.36h-.08Zm3,10.3c-1.22,1.84-2.43,3.69-3.65,5.54-.1-.27-.19-.53-.28-.8,1.17-1.96,2.34-3.9,3.51-5.85.14.37.28.73.42,1.11Zm-11.3-1.84l-.88-2.29c-.47,1.91-.95,3.84-1.57,6.35,1.14-.68,2.21-1.32,3.26-1.95l-.38-.99c-.45.15-.55-.31-.43-1.13Zm12.63-3.44l1.65,4.32c.66-.62,1.28-1.19,1.85-1.72-1.17-.86-2.33-1.73-3.5-2.6Zm257.34,41.91l-9.29.07,2.01,5.35,9.29-.07-2.01-5.35Zm-294.7,13.85l.02.05.03-.05h-.06Zm-7.2,5.57h.8s.04-.11.04-.11c-.28,0-.55.03-.83.11Zm8.85-4.49c.65.13,1.19.3,1.64.51.03-.57.07-1.12.16-1.62l-2.92.02c-.13.11-.25.22-.38.33.6,1.2,1.19,2.4,1.79,3.6-.29.31-.59.62-.88.93-.51-1.34-1.01-2.66-1.52-3.99,0,0-.01,0-.02.02l.02-.03c-.06-.15-.11-.29-.17-.44.15-.14.3-.27.45-.41l-2.05.02-1.21,3.56c.15.28.28.56.42.84.46-1.1.93-2.23,1.55-.78.23.53.39,1.19.44,1.89l3.66-.03c.28-.54.47-1.26.55-2.24-.53-.75-1.04-1.47-1.53-2.17Zm-13.44,2.65c-.13-.55-.29-1.04-.53-1.32-.64-.71-1.09-1.45-1.34-2.24l.1,5.38c.32-.29.64-.59.96-.88.28-.25.55-.59.81-.95Zm7.26-3.7h-1.63c.24.22.48.43.72.66.16.16.32.35.49.57l.41-1.22Zm22.04-.15l-4.79.03c-.13.64-.91,2.12-1.16,2.03-.52-.18-.92-1.16-1.44-2.01h-.74s-1.87,5.54-1.87,5.54l2.78-.02c.54-.81,1.33-1.05,2.47-.78-.15.27-.29.51-.43.77l2.48-.02c.38-.55.73-.35,1.08,0h.91s1.4-4.16,1.4-4.16c-.23-.47-.45-.93-.68-1.37Zm2.07,4.07l-.48,1.43h1.5s-.09-.05-.12-.09c-.32-.41-.61-.86-.89-1.34Zm-15.93,1.54h1.11c-.3-.43-.55-.79-.82-1.17-.1.41-.19.8-.29,1.17Zm1.05-4.27c-.11.4-.19.77-.29,1.16.55.6.83,1.43.95,2.62l1.71-5.05h-1.03c-.1,1.22-1.09,1.04-1.34,1.27Zm327.09-15.33l2.01,5.35,9.29-.07-2.01-5.35-9.28.07Zm-304.52,13.91c.04.31.08.65.13,1.05-.33-.34-.61-.7-.9-1.04h-1.6c-.22,1.23-.61,2.25-1.6,2.55-.31.09-.61-.6-.92-.93.03-.14.06-.27.09-.4.4.07.8.13,1.06.17.12-.48.22-.91.34-1.37l-2.88.02-.59,1.76c.36.37.76.66,1.27.83.69.23,1.23,1.67,1.84,2.56-.02.12-.05.23-.07.35l4.97-.03,1.87-5.54-2.99.02Zm316.12-13.99l2.01,5.34,9.28-.06-2.01-5.35-9.28.06Zm11.59-.08l2.01,5.35,9.29-.06-2.01-5.35-9.29.07Zm-34.77.24l2.01,5.35,9.28-.06-2.01-5.35-9.29.06Zm-329.63,14.09c.19.88.4,1.73.85,2.11.06-.91.12-1.6.19-2.12h-1.04Zm421.01-10.68c-.02-.52-.02-1.05-.03-1.58l-.54-1.42c-.89,2.1-2.2,3.14-3.33,2.37.82-1.15,1.6-2.24,2.43-3.4h-.66c-.46.24-.95.5-1.58.82-.03.2-.15,1.03-.28,1.86-1.44-.49-2.88-.97-4.33-1.46-.02-.4-.04-.79-.06-1.18h-.36c-.05.06-.1.11-.16.17,0-.01-.02-.02-.03-.04,0,.27-.02.53-.06.82l-1.03-.35,1.78,4.74,9.29-.06-.41-1.09c-.21-.07-.43-.14-.64-.22Zm-45.02-3.73l2.01,5.35,9.29-.06-2.01-5.35-9.29.07Zm23.18-.16l2.01,5.35,9.29-.07-2.01-5.35-9.28.06Zm-81.14.57l2.01,5.35,4.88-.04c-.59-1.11-.64-2.34-.05-3.45.44,1.11.89,2.25,1.36,3.44l3.09-.02-2.01-5.35-9.29.07Zm-38.28-2.95l-6.1-16.22-.08-4.64h-.99s-1.11,2.73-1.11,2.73l.29.08c-.04.41-.07.83-.11,1.24-.31.3-.6.41-.87.39l-3.4,8.37,3.05,8.11h.04s3.48-.02,3.48-.02l5.81-.04Zm14.81,44.54l-4.29-9.65-3.28,9.7,7.57-.05Zm95.21-30.3l-1.87,5.53,9.29-.06,1.87-5.53-9.29.06Zm-107.28,9.48l-2.76,8.15,5.26,11.83,2.77-8.2c-.93-.44-1.77-.83-2.88-1.35,1.39-.35,2.42-.62,3.65-.94l1.27-3.77c-.07-.17-.14-.35-.21-.53.16-.09.33-.22.5-.33l1.67-4.93-9.28.07Zm27.86,3.33c-1.75-.89-3.38-1.73-5-2.55l-2.44,7.21,5.26,11.83,2.25-6.67c-.54-.7-1.11-1.37-1.74-1.93-1.96-1.75-2.28-3.77-2.03-6.65.64,1.33.96,2.52,1.62,3.29.93,1.07,1.9,2.1,2.87,3.13l3.79-11.21-7.2.05c1.48.81,2.52,2.02,2.59,3.5Zm-16.27-3.4l-1.36,4.01c1.2.48,2.28,1.55,3.41,2.35-.87.84-1.93.73-2.58,1.29-.57.5-.91,1.38-1.38,2.4l2.83,6.36c.15-.44.3-.93.49-1.52.58,1.41,1.07,2.61,1.55,3.76l6.33-18.71h-1.65c.14.18.28.35.37.53-3.21-1.18-3.23,1.83-4.3,3.83-.84-2.72-2.01-1.66-2.85-.87.32-1.11.66-2.28,1-3.43l-1.87.02Zm-30.31,21.11l7.61-.05-4.29-9.64v.05s-.04-.05-.04-.05l-3.28,9.7Zm32.72-1.36l.1.23.03-.1s-.09-.08-.13-.12Zm-55.61-6.02c-1.22-1.19-1.8-3.16-2.82-4.62.83.17,1.62.51,2.1,1.15.46.61.71,1.47,1.08,2.43l4.18-12.34-9.32.06-.99,2.91c.08.03.16.06.25.09-.39.88-.79,1.79-1.21,2.75l-.67,1.99c2.02.3,2.62,1.49,1.99,3.68-.31-.21-.63-.42-.94-.63l4.08,9.17.02-.05.02.05,2.25-6.65Zm65.28,7.09l-4.29-9.64-3.28,9.69,7.57-.05Zm-257.54-27.84c-.85,1.02-1.72,2.05-2.44,2.92-.48-.78-.92-1.47-1.35-2.16-.01.14-.03.32-.04.46-.86.97-1.61,1.83-2.31,2.62-.23-1.07-.46-2.14-.69-3.18l-1.66,4.91,9.29-.07,1.87-5.53-2.66.02Zm209.47,4.06l1.87-5.53h-.04s-9.25.06-9.25.06h-.04s-1.87,5.54-1.87,5.54h.04s9.25-.07,9.25-.07h.04Zm-164.04-2.28c.97.03,1.76.53,2.44,1.28l.29-.86c-.86-.53-1.73-1.06-2.66-1.63,1.35-.24,2.41-.25,3.24-.07l.28-.84-9.28.06-1.87,5.53,9.29-.07.19-.57c-.79-.58-1.5-1.35-1.92-2.84Zm-11.69-2.01c1.08.43,2.06.81,3.01,1.19-.04.24-.08.47-.12.7-1.18.47-2.34.99-3.54,1.36-.23.07-.74-.36-.86-.69-.24-.64-.38-1.35-.65-2.55l-3.43.02-1.87,5.53,9.28-.06,1.87-5.53-3.7.02Zm-28.77.2l-1.87,5.53,4.2-.03h0c-.06-.22.5-.9.77-1.36.18.45.42.88.53,1.35l3.79-.03,1.87-5.53-9.29.07Zm11.59-.08l-1.87,5.53,9.28-.06,1.87-5.53-9.28.07Zm113.61-.79l-9.28.06-1.87,5.54,9.29-.07,1.87-5.53Zm-78.84.55l-.18.53c.41.56.81,1.11,1.25,1.71-.61-.11-1.13-.36-1.59-.71l-.22.66c.29.55.44,1.24.42,2.11-.32-.2-.63-.39-.94-.57l-.61,1.81,5.01-.03c-.25-.47-.49-.94-.73-1.41.11-.13.21-.25.31-.38.57.51,1.15,1.03,1.98,1.78l2.72-.02,1.87-5.53-9.29.06Zm11.59-.08l-1.87,5.53,9.28-.06,1.87-5.53-9.29.06Zm276.05-13.72l2.01,5.35,9.29-.07-2.01-5.35-9.29.06Zm-317.29,7.57h1.45c-.37-.57-.73-1.28-1.05-2.2-.17.96-.3,1.65-.4,2.2Zm-18.9-5.23l2.01,5.35,9.28-.06-2.01-5.35-9.29.07Zm14.13-.1c.07.13.15.27.22.4-.22.29-.43.58-.65.87-.22-.42-.44-.84-.67-1.27h-1.44s2.01,5.36,2.01,5.36l4.84-.04c-1.02-1.79-1.99-3.62-3.01-5.34h-1.31Zm-25.72.19l1.63,4.33c-.04-.25-.07-.48-.11-.77.89.63,1.67,1.18,2.51,1.77h.87c-.33-.67-.63-1.35-.84-2.06.67.7,1.33,1.37,1.99,2.05l5.26-.04-2.01-5.35-9.29.06Zm39.98-.28c.84,1.21,2.25,1.96,4.18,2.17-.85,2.94-1.74,3.21-3.17,1.2-.45-.64-1.14-.87-1.71-1.28-.15.17-.29.34-.44.51.14.9.28,1.82.42,2.77l5.44-.04-.18-.3c.18-.33.35-.66.53-.99.24.43.48.85.71,1.28h.3s-2.01-5.35-2.01-5.35l-4.08.03Zm-44.87.31c-.47,1.08-.68,2.62-1.02,4.1-.55-1.47-.98-2.65-1.51-4.08l-4.17.03.88,2.33c.67-.78,1.32-1.53,1.97-2.28-.51,1.55-.99,2.74-1.45,3.65l.62,1.64,2.39-.02c-.14-.53-.31-1.02-.42-1.6.51.63.88,1.17,1.23,1.59l6.09-.04-2.01-5.35-2.59.02Zm60.55-.43l-9.29.07,2.01,5.35,9.29-.07-2.01-5.34Zm-23.63.37c.06-.07.11-.13.16-.2h-1.36c.27.41.53.79.79,1.13.23.29.22,1.04.41,1.47.42.95.9,1.84,1.35,2.75h.31s.06-.07.09-.11c-.59-1.68-1.17-3.36-1.75-5.04Zm25.93-.38l2.01,5.35,9.29-.06-2.01-5.35-9.29.07Zm-19.92,3.63c.19-.74,0-1.77-.08-2.67-.02-.27-.05-.55-.07-.82l-3.11.02,1.19,3.18s0,0,0,0h0s.82,2.17.82,2.17h.27c.38-.59.79-1.16.98-1.88Zm-55.73.94c.05.08.1.19.14.29.14-.68.29-1.4.43-2.05,1.05.06,2.12.83,2.77,0,.36-.46.67-.79.95-1.01l-.49-1.3h-.39c-.16.41-.33.82-.49,1.22-.06-.44-.11-.83-.16-1.21l-3.57.02c.35.35.69.71,1.01,1.03-.07.23-.15.46-.22.7-.68-.57-1.36-1.15-2.05-1.72h-1.14c.32.22.64.43.9.76.8,1.01,1.56,2.13,2.3,3.27Zm284.34-6.02l2.01,5.35,3.16-.02c-.23-.46-.46-.96-.69-1.45.69.47,1.38.95,2.1,1.44l4.71-.03-2.01-5.35-9.29.07Zm12.17-23.3l-4.83,11.9,3.05,8.11,9.29-.07-7.51-19.94Zm-22.96.76c-.15-.01-.32.03-.51.1l-2.98,7.33c.36.36.71.77,1,1.23.6.94.94,2.29,1.4,3.46-.18.12-.36.24-.54.37-.69-.85-1.39-1.69-2.26-2.75-.17,1.45-.29,2.55-.42,3.61l2.28,6.06,9.29-.07-7.28-19.34Zm-1.88,5.66c.06-.23.11-.45.17-.68q2.91.67,2.67,2.23c-.96-.52-1.9-1.03-2.84-1.55Zm1.83,3.33c2.01,2.5,2.32,3.95,1,6.08.07-2.37-2.1-3.33-1-6.08ZM24.06,136.38c.03-1.49.2-3.25.52-4.51h-1.18c-.23.32-.46.63-.68.93l1.35,3.58Zm10.55-4.58h-.65s2.01,5.35,2.01,5.35h1.69c-.06-.07-.13-.12-.17-.19-.99-1.68-1.94-3.41-2.88-5.16Zm-6.28,3.76c-.15.53-.27,1.12-.42,1.65l5.75-.04-.72-1.91c-.27.19-.67.18-1.19-.11.03-.38.08-.65.06-.89-.1-.81-.22-1.63-.33-2.44h-.44c.02.47.04.97.08,2.18-.49-.79-.92-1.5-1.34-2.17h-.5c-.11.62-.22,1.24-.34,1.91-.3-.88-.54-1.49-.74-1.9h-.4c.33.68.47,1.62.42,2.81-.46-.51-.9-.98-1.33-1.45,0,.03-.01.05-.02.08-.68,2.57-1.53,3.31-2.81,3.12l.31.83h1.36c.42-.47.82-.92,1.24-1.3.41-.39.9-.27,1.35-.38Zm-9.87,1.27c-.33-.36-.67-.72-1-1.09.39-.66.77-1.78,1.16-1.88.55-.15,1.09.44,1.64.71-.3.9-.61,1.8-.91,2.7l2.73-.02-.95-2.51c-.27,0-.53,0-.8.01.03-.66.03-1.34.05-2l-.32-.84h-.54c-.03.16-.04.28-.07.45-.5.22-1.04.24-1.5.69-.49.47-.9,1.34-1.62,2.46.21-1.31.39-2.46.57-3.58l-4,.03.08,4.52c.34.28.69.55,1.03.82l4.07-.03c.12-.14.25-.29.37-.44Zm23.7-.04c-.04.12-.11.21-.16.32l2.58-.02c-.07-.08-.14-.13-.21-.23-.77-1.24-1.61-1.78-2.21-.07Zm359.65-21.72c1.74.95,1.48,1.72-.08,5.64,0,0-.02,0-.02,0l2,5.31,3.62-.03c-.76-.53-1.47-1.03-2.15-1.5.21-.35.41-.7.62-1.05.87.82,1.75,1.65,2.7,2.54l4.5-.03-7.5-19.94-3.68,9.06Zm-264.57,20.73l.58.21-1.85-4.9-9.29.06,2.01,5.35,8.39-.06c.05-.22.1-.44.15-.65Zm-8.55-3.06c2.22-.99,3.62.05,4.75,2.51-1.42-.75-2.85-1.51-4.75-2.51Zm125.54-2.47h-.04s2.01,5.35,2.01,5.35l9.32-.06-2.01-5.35-9.28.06Zm-2.35.02l-9.25.06h-.04s2.01,5.35,2.01,5.35l9.33-.07-2.01-5.35h-.04Zm-11.55.08h-.04s-9.25.07-9.25.07h-.04s2.01,5.35,2.01,5.35h.04s9.25-.07,9.25-.07h.04s-2.01-5.35-2.01-5.35Zm60.26-.42l2.01,5.35,9.28-.07-2.01-5.35-9.28.06Zm-52.3,29.29c-.29-.2-.58-.39-.89-.6.41-.06.76-.08,1.13-.11l2.61-7.71-4.16.03c.46.51.92,1.02,1.38,1.53-.25.27-.69.8-.74.75-.73-.72-1.42-1.5-2.12-2.27l-3.69.02-1.21,3.56c.56.43,1.05,1.05,1.37,2.1-.76.43-1.5.55-2.22.42l-.7,2.07,5.26,11.83.02-.05.02.05,3.93-11.62Zm-8.08.16c1.66-.38,3.92-2.27,3.64,2.5-1.38-.95-2.51-1.72-3.64-2.5Zm37.16-29.29l2.01,5.35h.04s9.25-.06,9.25-.06h.04s-2.01-5.35-2.01-5.35l-9.33.07Zm-2.27.01h-.04s-9.25.06-9.25.06h-.04s2.01,5.35,2.01,5.35l9.28-.06h.04s-2.01-5.35-2.01-5.35Zm23.18-.16l-6.96.05h-2.33s-.04.01-.04.01l2.01,5.35h.03s.42,0,.42,0l8.87-.06-2.01-5.35Zm-148.42,1.03l2.01,5.35,9.29-.06-2.02-5.35-9.28.07Zm11.59-.08l2.01,5.35,9.29-.06-2.01-5.35-9.28.07Zm-23.18.16l2.01,5.35,9.28-.06-2.01-5.35-9.29.06Zm44.06-.3l-9.29.06,2.01,5.35,9.28-.07-2.01-5.34Zm46.36-.32l-9.25.06h-.04s2.01,5.35,2.01,5.35l9.32-.07-2.01-5.35h-.04Zm-34.77.24l-9.28.07,2.01,5.35,9.28-.07-2.01-5.35Zm2.31-.02l2.01,5.35,9.29-.06-2.01-5.35-9.28.07Zm20.88-.14l-7.12.05-2.17.02,2.01,5.35,9.33-.07-2.01-5.35h-.04Z"/>
    </g>
  </g>
</svg>